<?xml version="1.0" standalone="no"?>
<!DOCTYPE svg PUBLIC "-//W3C//DTD SVG 1.1//EN" "http://www.w3.org/Graphics/SVG/1.1/DTD/svg11.dtd" >
<svg>
<metadata>
Created by FontForge 20090914 at Tue Jun 24 23:15:40 2014
 By www-data
Copyright (c) 2008 by Moretype. All rights reserved.
</metadata>
<defs>
<font id="AlwynNew-Light" horiz-adv-x="660" >
  <font-face 
    font-family="Alwyn New Lt"
    font-weight="300"
    font-stretch="normal"
    units-per-em="1000"
    panose-1="2 11 3 3 0 0 0 2 0 4"
    ascent="795"
    descent="-205"
    x-height="512"
    cap-height="698"
    bbox="-66 -213.999 999 885.999"
    underline-thickness="20"
    underline-position="-113"
    unicode-range="U+0020-U+2122"
  />
<missing-glyph horiz-adv-x="500" 
d="M50 768h400v-768h-400v768zM405 46v675h-310v-675h310z" />
    <glyph glyph-name=".notdef" horiz-adv-x="500" 
d="M50 768h400v-768h-400v768zM405 46v675h-310v-675h310z" />
    <glyph glyph-name="space" unicode=" " horiz-adv-x="250" 
 />
    <glyph glyph-name="exclam" unicode="!" horiz-adv-x="343" 
d="M129 698h85l-10 -478l-64 -10zM124 35c0 13.333 4.66699 24.666 14 33.999s20.666 14 33.999 14s24.666 -4.66699 33.999 -14s14 -20.666 14 -33.999s-4.66699 -24.666 -14 -33.999s-20.666 -14 -33.999 -14s-24.666 4.66699 -33.999 14s-14 20.666 -14 33.999z" />
    <glyph glyph-name="quotedbl" unicode="&#x22;" horiz-adv-x="312" 
d="M192 699h66l-6 -230h-54zM54 699h67l-6 -230h-55z" />
    <glyph glyph-name="numbersign" unicode="#" horiz-adv-x="553" 
d="M153 302h-84v63h84v125h-84v63h84v145h63v-145h120v145h63v-145h85v-63h-85v-125h85v-63h-85v-145h-63v145h-120v-145h-63v145zM336 365v125h-120v-125h120z" />
    <glyph glyph-name="dollar" unicode="$" horiz-adv-x="532" 
d="M70 83c30 -9.33301 59.165 -17.3311 87.498 -23.998s57.833 -10 88.5 -10c52 0 89.667 12 113 36s35 55.667 35 95c0 28.667 -8 51.5 -24 68.5s-36.167 31.5 -60.5 43.5s-50.666 23 -78.999 33s-54.666 22.333 -78.999 37s-44.5 33.167 -60.5 55.5s-24 51.833 -24 88.5
c0 52.667 15.833 94.667 47.5 126s74.167 50 127.5 56v114h58v-112c23.333 -1.33301 46.5 -4.83301 69.5 -10.5s46.5 -13.167 70.5 -22.5l-17 -58c-25.333 9.33301 -49.166 16.666 -71.499 21.999s-46.166 8 -71.499 8c-46 0 -80.833 -10.667 -104.5 -32
s-35.5 -51.666 -35.5 -90.999c0 -26 8 -46.833 24 -62.5s36.167 -29.334 60.5 -41.001s50.666 -22.667 78.999 -33s54.666 -23.333 78.999 -39s44.5 -35.334 60.5 -59.001s24 -54.167 24 -91.5c0 -52 -15.5 -94.833 -46.5 -128.5s-74.5 -54.167 -130.5 -61.5v-114h-58v111
c-30 1.33301 -59 5 -87 11s-57 13.667 -87 23z" />
    <glyph glyph-name="percent" unicode="%" horiz-adv-x="843" 
d="M223 331c-23.333 0 -43.999 4.16699 -61.999 12.5s-33.167 19.333 -45.5 33s-21.833 29.5 -28.5 47.5s-10 36.667 -10 56v68c0 19.333 3.16699 38 9.5 56s15.666 34 27.999 48s27.5 25.167 45.5 33.5s38.333 12.5 61 12.5s43 -4.16699 61 -12.5s33.167 -19.5 45.5 -33.5
s21.833 -30 28.5 -48s10 -36.667 10 -56v-68c0 -19.333 -3.16699 -38 -9.5 -56s-15.666 -33.833 -27.999 -47.5s-27.333 -24.667 -45 -33s-37.834 -12.5 -60.501 -12.5zM531.001 691h59l-277 -691h-58zM223.001 380c31.333 0 54.332 10.668 68.999 32.001s22 46 22 74v56
c0 14 -1.83301 27.5 -5.5 40.5s-9.16699 24.333 -16.5 34s-17 17.5 -29 23.5s-26 9 -42 9s-29.667 -3 -41 -9s-20.666 -13.833 -27.999 -23.5s-12.833 -21 -16.5 -34s-5.5 -26.5 -5.5 -40.5v-56c0 -14 1.83301 -27.333 5.5 -40s9.16699 -23.834 16.5 -33.501
s17 -17.5 29 -23.5s26 -9 42 -9zM476 206.001c0 19.333 3.16797 38 9.50098 56s15.666 34 27.999 48s27.5 25.167 45.5 33.5s38.333 12.5 61 12.5s43 -4.16699 61 -12.5s33.167 -19.5 45.5 -33.5s21.833 -30 28.5 -48s10 -36.667 10 -56v-68c0 -20 -3.16699 -39 -9.5 -57
s-15.666 -33.833 -27.999 -47.5s-27.333 -24.667 -45 -33s-37.834 -12.5 -60.501 -12.5c-23.333 0 -44 4.16699 -62 12.5s-33.167 19.333 -45.5 33s-21.833 29.5 -28.5 47.5s-10 37 -10 57v68zM529.001 143.001c0 -14 1.83301 -27.333 5.5 -40s9.16699 -23.834 16.5 -33.501
s17 -17.5 29 -23.5s26 -9 42 -9s29.667 3 41 9s20.666 13.833 27.999 23.5s12.833 20.834 16.5 33.501s5.5 26 5.5 40v57c0 14 -1.83301 27.333 -5.5 40s-9.16699 24 -16.5 34s-17 18 -29 24s-26 9 -42 9s-29.667 -3 -41 -9s-20.666 -14 -27.999 -24
s-12.833 -21.333 -16.5 -34s-5.5 -26 -5.5 -40v-57z" />
    <glyph glyph-name="ampersand" unicode="&#x26;" horiz-adv-x="595" 
d="M69 194c0 46.667 11.667 85.001 35 115.001s54.333 51.667 93 65c-30.667 14.667 -55.167 35.667 -73.5 63s-27.5 61 -27.5 101c0 31.333 5.83301 59.166 17.5 83.499s27.667 45 48 62s44 30 71 39s55.833 13.5 86.5 13.5c22 0 43.667 -1.33301 65 -4s43.333 -7 66 -13
l-12 -61c-20 5.33301 -39.667 9.33301 -59 12s-39 4 -59 4c-44 0 -80.167 -11.167 -108.5 -33.5s-42.5 -56.5 -42.5 -102.5s14.167 -80.333 42.5 -103s64.5 -34 108.5 -34h238v-60h-53v-312c-32 -13.333 -63.667 -23.666 -95 -30.999s-64 -11 -98 -11
c-35.333 0 -68 4.66699 -98 14s-55.667 22.666 -77 39.999s-38 38.833 -50 64.5s-18 55.167 -18 88.5zM142 195.001c0 -49.333 15.333 -85.832 46 -109.499s72 -35.5 124 -35.5c22 0 45 2.16699 69 6.5s44.667 10.166 62 17.499v267h-130c-52 0 -93.5 -12 -124.5 -36
s-46.5 -60.667 -46.5 -110z" />
    <glyph glyph-name="quotesingle" unicode="'" horiz-adv-x="175" 
d="M54 698h67l-6 -230h-55z" />
    <glyph glyph-name="parenleft" unicode="(" horiz-adv-x="303" 
d="M85 589c0 36.667 4.83301 67.332 14.5 91.999s22.667 44.334 39 59.001s35.333 25 57 31s44.5 9 68.5 9v-63c-36 0 -63.5 -9.5 -82.5 -28.5s-28.5 -52.167 -28.5 -99.5v-612c0 -46.667 9.5 -80 28.5 -100s46.5 -30 82.5 -30v-60c-25.333 0 -48.833 3.16699 -70.5 9.5
s-40.5 16.833 -56.5 31.5s-28.667 34.167 -38 58.5s-14 54.5 -14 90.5v612z" />
    <glyph glyph-name="parenright" unicode=")" horiz-adv-x="303" 
d="M150 588c0 47.333 -9.33203 80.833 -27.999 100.5s-46.334 29.5 -83.001 29.5v62c24 0 46.833 -3.16699 68.5 -9.5s40.667 -16.833 57 -31.5s29.333 -34.334 39 -59.001s14.5 -55.334 14.5 -92.001v-610c0 -37.333 -4.83301 -68.166 -14.5 -92.499
s-22.667 -43.833 -39 -58.5s-35.333 -25 -57 -31s-44.5 -9 -68.5 -9v62c36 0 63.5 9.83301 82.5 29.5s28.5 52.834 28.5 99.501v610z" />
    <glyph glyph-name="asterisk" unicode="*" horiz-adv-x="465" 
d="M207 469l-120 -75l-31 53l125 66l-125 65l31 54l120 -76l-6 142h62l-5 -141l119 75l31 -54l-125 -65l125 -66l-31 -53l-119 74l5 -141h-62z" />
    <glyph glyph-name="plus" unicode="+" horiz-adv-x="628" 
d="M282 283h-188v63h188v188h64v-188h187v-63h-187v-188h-64v188z" />
    <glyph glyph-name="comma" unicode="," horiz-adv-x="233" 
d="M168 80l-74 -229h-53l55 229h72z" />
    <glyph glyph-name="hyphen" unicode="-" horiz-adv-x="486" 
d="M92 313h301v-60h-301v60z" />
    <glyph glyph-name="period" unicode="." horiz-adv-x="217" 
d="M60 37c0 13.333 4.66699 24.5 14 33.5s20.666 13.5 33.999 13.5s24.833 -4.5 34.5 -13.5s14.5 -20.167 14.5 -33.5s-4.83301 -24.666 -14.5 -33.999s-21.167 -14 -34.5 -14s-24.666 4.66699 -33.999 14s-14 20.666 -14 33.999z" />
    <glyph glyph-name="slash" unicode="/" horiz-adv-x="433" 
d="M294 741h66l-221 -778h-66z" />
    <glyph glyph-name="zero" unicode="0" horiz-adv-x="587" 
d="M65 436c0 87.333 19.832 154.999 59.499 202.999s95.834 72 168.501 72c36.667 0 69.167 -6.5 97.5 -19.5s52.166 -31.333 71.499 -55s34.166 -52.5 44.499 -86.5s15.5 -72 15.5 -114v-173c0 -87.333 -19.833 -155.166 -59.5 -203.499s-96.167 -72.5 -169.5 -72.5
c-36 0 -68.167 6.33301 -96.5 19s-52.166 31 -71.499 55s-34.166 53 -44.499 87s-15.5 72.333 -15.5 115v173zM292.999 47.999c30.667 0 56.334 6 77.001 18s37.167 28.167 49.5 48.5s21 43.666 26 69.999s7.5 54.166 7.5 83.499v163c0 28.667 -2.5 56.334 -7.5 83.001
s-13.667 50 -26 70s-28.833 36 -49.5 48s-46.334 18 -77.001 18c-31.333 0 -57.166 -6 -77.499 -18s-36.5 -28 -48.5 -48s-20.5 -43.333 -25.5 -70s-7.5 -54.334 -7.5 -83.001v-163c0 -29.333 2.5 -57.166 7.5 -83.499s13.5 -49.666 25.5 -69.999s28.167 -36.5 48.5 -48.5
s46.166 -18 77.499 -18z" />
    <glyph glyph-name="one" unicode="1" horiz-adv-x="442" 
d="M69 60h151v569l-155 -65l-25 55l188 79h60v-638h131v-60h-350v60z" />
    <glyph glyph-name="two" unicode="2" horiz-adv-x="518" 
d="M52 64c0 46 8.16406 85.1689 24.4971 117.502s36.833 60.5 61.5 84.5s51.167 45.167 79.5 63.5s54.833 36.666 79.5 54.999s45.167 38.166 61.5 59.499s24.5 47 24.5 77c0 16.667 -2.66699 32.667 -8 48s-13.5 29 -24.5 41s-25 21.667 -42 29s-37.5 11 -61.5 11
c-25.333 0 -51.166 -3.16699 -77.499 -9.5s-52.166 -15.166 -77.499 -26.499l-22 56c28.667 13.333 58 23.5 88 30.5s59.667 10.5 89 10.5c32 0 60.833 -5 86.5 -15s47.334 -23.667 65.001 -41s31.167 -37.5 40.5 -60.5s14 -47.5 14 -73.5
c0 -37.333 -8.16699 -68.833 -24.5 -94.5s-37 -48.667 -62 -69s-51.833 -39.5 -80.5 -57.5s-55.5 -37.833 -80.5 -59.5s-45.667 -46.834 -62 -75.501s-24.5 -63.667 -24.5 -105h341v-40c0 -13.333 -6.66699 -20 -20 -20h-388v64z" />
    <glyph glyph-name="three" unicode="3" horiz-adv-x="466" 
d="M46 73c22 -9.33301 44.168 -15.835 66.501 -19.502s44.833 -5.5 67.5 -5.5c50 0 89.167 13.167 117.5 39.5s42.5 60.833 42.5 103.5c0 26.667 -4.83301 49.334 -14.5 68.001s-22.167 33.667 -37.5 45s-33 19.5 -53 24.5s-40.333 7.5 -61 7.5h-40v60h36
c22.667 0 43.167 3.33301 61.5 10s34.166 16 47.499 28s23.666 26 30.999 42s11 33.333 11 52c0 34.667 -11.833 63.667 -35.5 87s-58.167 35 -103.5 35c-21.333 0 -42 -2.5 -62 -7.5s-40.333 -11.5 -61 -19.5l-21 57c24 9.33301 48 16.833 72 22.5s48 8.5 72 8.5
c30 0 57.833 -4.16699 83.5 -12.5s47.834 -20.166 66.501 -35.499s33.167 -34.166 43.5 -56.499s15.5 -47.833 15.5 -76.5c0 -14.667 -2.33301 -29.834 -7 -45.501s-11.834 -30.667 -21.501 -45s-21.667 -27.5 -36 -39.5s-31.166 -22 -50.499 -30
c44 -14 77.333 -36.833 100 -68.5s34 -68.5 34 -110.5c0 -28 -4.83301 -54.333 -14.5 -79s-24.167 -46.167 -43.5 -64.5s-43.333 -33 -72 -44s-62 -16.5 -100 -16.5c-25.333 0 -50.333 2.16699 -75 6.5s-49.667 11.5 -75 21.5z" />
    <glyph glyph-name="four" unicode="4" horiz-adv-x="563" 
d="M127 162c-30.667 0 -53 7.83301 -67 23.5s-17 40.834 -9 75.501l105 437h64l-105 -443c-2.66699 -10.667 -2.5 -18.834 0.5 -24.501s10.167 -8.5 21.5 -8.5h176v272l67 19v-291h135v-60h-135v-162h-67v162h-186v0z" />
    <glyph glyph-name="five" unicode="5" horiz-adv-x="516" 
d="M56 84c28 -10.667 55.1729 -19.335 81.5059 -26.002s53.5 -10 81.5 -10c27.333 0 51.666 4.66699 72.999 14s39.166 21.833 53.499 37.5s25.333 33.834 33 54.501s11.5 42.667 11.5 66c0 21.333 -2.83301 41.666 -8.5 60.999s-14.834 36.333 -27.501 51
s-28.667 26.334 -48 35.001s-43 13 -71 13c-24 0 -47.333 -2.66699 -70 -8s-45.334 -12.666 -68.001 -21.999l-30 48v300h357l-6 -61h-286v-212c34.667 10 69.667 15 105 15s66.833 -5.5 94.5 -16.5s51 -26.167 70 -45.5s33.5 -42.5 43.5 -69.5s15 -56.833 15 -89.5
c0 -36 -6.33301 -68.333 -19 -97s-29.834 -53 -51.501 -73s-47.334 -35.333 -77.001 -46s-61.5 -16 -95.5 -16c-31.333 0 -61 3.33301 -89 10s-57 15.667 -87 27z" />
    <glyph glyph-name="six" unicode="6" horiz-adv-x="553" 
d="M64 483c0 30.667 4.66699 59.8311 14 87.498s23.333 51.834 42 72.501s42.167 37.167 70.5 49.5s61.5 18.5 99.5 18.5c26 0 51.667 -2.33301 77 -7s50.666 -11.667 75.999 -21l-16 -59c-23.333 8 -46 14.333 -68 19s-44.667 7 -68 7
c-30.667 0 -56.167 -5.16699 -76.5 -15.5s-36.666 -23.5 -48.999 -39.5s-21 -34 -26 -54s-7.5 -39.333 -7.5 -58v-77c24.667 15.333 49 26.833 73 34.5s49.333 11.5 76 11.5c30 0 58.167 -5.16699 84.5 -15.5s49.5 -25.666 69.5 -45.999s35.667 -45.333 47 -75
s17 -63.5 17 -101.5c0 -36.667 -5.66699 -69.167 -17 -97.5s-27 -52 -47 -71s-43.167 -33.5 -69.5 -43.5s-54.5 -15 -84.5 -15c-29.333 0 -57.166 5 -83.499 15s-49.333 24.5 -69 43.5s-35.334 42.667 -47.001 71s-17.5 60.833 -17.5 97.5v269zM132 212.997
c0 -22.667 3.00195 -44.001 9.00195 -64.001s15.167 -37.5 27.5 -52.5s27.833 -26.833 46.5 -35.5s40.667 -13 66 -13c26 0 48.333 4.33301 67 13s34 20.5 46 35.5s20.833 32.667 26.5 53s8.5 41.833 8.5 64.5c0 24.667 -3 47.834 -9 69.501s-15.333 40.5 -28 56.5
s-28.334 28.667 -47.001 38s-41 14 -67 14c-25.333 0 -49.833 -3.83301 -73.5 -11.5s-47.834 -19.167 -72.501 -34.5v-133z" />
    <glyph glyph-name="seven" unicode="7" horiz-adv-x="481" 
d="M175 0c0.666992 64 7.5 122.667 20.5 176s29 105 48 155s40 99.667 63 149s44.833 101.666 65.5 156.999h-345v61h422v-55c-21.333 -57.333 -43.5 -110.166 -66.5 -158.499s-44.333 -96.833 -64 -145.5s-36.167 -100.167 -49.5 -154.5s-20.333 -115.833 -21 -184.5h-73v0
z" />
    <glyph glyph-name="eight" unicode="8" horiz-adv-x="548" 
d="M53 171c0 26.667 3.99707 49.8271 11.9971 69.4941s18.5 37 31.5 52s28.167 28.167 45.5 39.5s35.666 21.666 54.999 30.999c-17.333 8.66699 -33.5 18.167 -48.5 28.5s-28.333 22.333 -40 36s-20.834 29.334 -27.501 47.001s-10 38.5 -10 62.5
c0 26.667 5.5 50.667 16.5 72s25.833 39.5 44.5 54.5s40.334 26.667 65.001 35s50.334 12.5 77.001 12.5s52.334 -4.16699 77.001 -12.5s46.334 -20 65.001 -35s33.5 -33.167 44.5 -54.5s16.5 -45.333 16.5 -72c0 -23.333 -3.5 -43.666 -10.5 -60.999
s-16.333 -32.666 -28 -45.999s-25.167 -25 -40.5 -35s-31.666 -19.333 -48.999 -28c19.333 -9.33301 37.833 -19.666 55.5 -30.999s33.167 -24.666 46.5 -39.999s24 -33.166 32 -53.499s12 -44.166 12 -71.499s-5.5 -52.166 -16.5 -74.499s-26.167 -41.666 -45.5 -57.999
s-42.666 -29 -69.999 -38s-57 -13.5 -89 -13.5c-32.667 0 -62.5 4.5 -89.5 13.5s-50.333 21.667 -70 38s-34.834 35.666 -45.501 57.999s-16 47.166 -16 74.499zM277.997 398.993c16.667 7.33301 32.832 15.165 48.499 23.498s29.5 18 41.5 29s21.5 23.333 28.5 37
s10.5 29.834 10.5 48.501c0 16.667 -3.33301 32 -10 46s-16 26 -28 36s-26.167 17.667 -42.5 23s-33.833 8 -52.5 8c-19.333 0 -37 -2.83301 -53 -8.5s-30 -13.5 -42 -23.5s-21.333 -22 -28 -36s-10 -29 -10 -45c0 -18.667 3.66699 -35 11 -49s17.333 -26.167 30 -36.5
s27.334 -19.666 44.001 -27.999s34 -16.5 52 -24.5zM122.995 170.992c0 -34.667 13.332 -63.835 39.999 -87.502s63.667 -35.5 111 -35.5c48.667 0 86 12 112 36s39 53 39 87c0 22.667 -4.33301 42 -13 58s-20.334 30.167 -35.001 42.5s-31.5 23 -50.5 32l-58.5 26.5
c-19.333 -8 -37.666 -16.667 -54.999 -26s-32.666 -20.166 -45.999 -32.499s-24 -26.666 -32 -42.999s-12 -35.5 -12 -57.5z" />
    <glyph glyph-name="nine" unicode="9" horiz-adv-x="555" 
d="M126 75c23.333 -7.33301 46.165 -13.665 68.498 -18.998s45.166 -8 68.499 -8c30.667 0 56.334 5.16699 77.001 15.5s37.167 23.5 49.5 39.5s21 33.833 26 53.5s7.5 39.167 7.5 58.5v78c-25.333 -16 -50.166 -27.5 -74.499 -34.5s-49.166 -10.5 -74.499 -10.5
c-30 0 -58.333 5.16699 -85 15.5s-49.834 25.5 -69.501 45.5s-35.334 44.667 -47.001 74s-17.5 63 -17.5 101c0 36.667 5.83301 69 17.5 97s27.334 51.667 47.001 71s42.834 34 69.501 44s55 15 85 15c29.333 0 57.166 -5 83.499 -15s49.333 -24.667 69 -44
s35.334 -43 47.001 -71s17.5 -60.333 17.5 -97v-269c0 -30.667 -4.66699 -59.834 -14 -87.501s-23.333 -51.834 -42 -72.501s-42.167 -37.167 -70.5 -49.5s-61.833 -18.5 -100.5 -18.5c-25.333 0 -50.833 2.5 -76.5 7.5s-51.167 12.167 -76.5 21.5zM276.999 308.001
c25.333 0 49.832 4 73.499 12s47.834 19.667 72.501 35v130c0 22.667 -3 44 -9 64s-15.167 37.5 -27.5 52.5s-27.833 26.833 -46.5 35.5s-40.667 13 -66 13c-26 0 -48.333 -4.5 -67 -13.5s-34.167 -21 -46.5 -36s-21.333 -32.5 -27 -52.5s-8.5 -41.333 -8.5 -64
c0 -24.667 3 -47.667 9 -69s15.333 -40 28 -56s28.5 -28.5 47.5 -37.5s41.5 -13.5 67.5 -13.5z" />
    <glyph glyph-name="colon" unicode=":" horiz-adv-x="217" 
d="M108 370c-13.333 0 -24.666 4.66699 -33.999 14s-14 20.666 -14 33.999s4.66699 24.666 14 33.999s20.666 14 33.999 14s24.833 -4.66699 34.5 -14s14.5 -20.666 14.5 -33.999s-4.83301 -24.666 -14.5 -33.999s-21.167 -14 -34.5 -14zM60 37
c0 13.333 4.66699 24.5 14 33.5s20.666 13.5 33.999 13.5s24.833 -4.5 34.5 -13.5s14.5 -20.167 14.5 -33.5s-4.83301 -24.666 -14.5 -33.999s-21.167 -14 -34.5 -14s-24.666 4.66699 -33.999 14s-14 20.666 -14 33.999z" />
    <glyph glyph-name="semicolon" unicode=";" horiz-adv-x="245" 
d="M137 371c-13.333 0 -24.5 4.66699 -33.5 14s-13.5 20.666 -13.5 33.999s4.5 24.5 13.5 33.5s20.167 13.5 33.5 13.5s24.666 -4.5 33.999 -13.5s14 -20.167 14 -33.5s-4.66699 -24.666 -14 -33.999s-20.666 -14 -33.999 -14zM169 80l-74 -229h-54l55 229h73z" />
    <glyph glyph-name="less" unicode="&#x3c;" horiz-adv-x="573" 
d="M74 299l376 218l29 -56l-322 -186l322 -185l-29 -57l-376 218v48z" />
    <glyph glyph-name="equal" unicode="=" horiz-adv-x="629" 
d="M94 456h440v-63h-440v63zM94 234h440v-64h-440v64z" />
    <glyph glyph-name="greater" unicode="&#x3e;" horiz-adv-x="575" 
d="M94 91l320 184l-320 183l31 60l375 -218v-50l-375 -218z" />
    <glyph glyph-name="question" unicode="?" horiz-adv-x="455" 
d="M175 207c0 38.667 3.49902 71.502 10.499 98.502s15.667 50.333 26 70s21.666 36.5 33.999 50.5l34 40c10.333 12.667 19 25.667 26 39s10.5 29.333 10.5 48c0 25.333 -8.5 47.5 -25.5 66.5s-41.5 28.5 -73.5 28.5c-21.333 0 -41.666 -3.5 -60.999 -10.5
s-38.666 -15.833 -57.999 -26.5l-28 56c24.667 14.667 49 25.667 73 33s48.667 11 74 11c27.333 0 51.5 -4.33301 72.5 -13s38.5 -20.334 52.5 -35.001s24.667 -31.5 32 -50.5s11 -38.5 11 -58.5c0 -22 -3.5 -40.833 -10.5 -56.5s-15.833 -30.334 -26.5 -44.001l-34 -41.5
c-12 -14 -23.333 -30 -34 -48s-19.5 -39.167 -26.5 -63.5s-10.5 -53.5 -10.5 -87.5zM161.999 36.002c0 13.333 4.66699 24.666 14 33.999s20.666 14 33.999 14s24.666 -4.66699 33.999 -14s14 -20.666 14 -33.999s-4.66699 -24.666 -14 -33.999s-20.666 -14 -33.999 -14
s-24.666 4.66699 -33.999 14s-14 20.666 -14 33.999z" />
    <glyph glyph-name="at" unicode="@" horiz-adv-x="958" 
d="M74 242c0 65.333 10.665 123.998 31.998 175.998s50.666 96 87.999 132s81.333 63.5 132 82.5s105.667 28.5 165 28.5c58.667 0 112.667 -9.83301 162 -29.5s91.666 -47.834 126.999 -84.501s63 -81.167 83 -133.5s30 -110.833 30 -175.5c0 -24 -3 -49.833 -9 -77.5
s-15.833 -53.5 -29.5 -77.5s-31.5 -43.833 -53.5 -59.5s-49 -23.5 -81 -23.5c-57.333 0 -96 20.333 -116 61c-17.333 -15.333 -37.666 -29.333 -60.999 -42s-52.666 -19 -87.999 -19c-46 0 -81.667 12.5 -107 37.5s-38 57.5 -38 97.5c0 24 4.66699 44.5 14 61.5
s22.666 30.833 39.999 41.5s37.833 18.5 61.5 23.5s50.167 7.5 79.5 7.5h83v45c0 40 -8 69.833 -24 89.5s-44.667 29.5 -86 29.5c-21.333 0 -41.666 -1.83301 -60.999 -5.5s-39.666 -8.83398 -60.999 -15.501l-15 53c23.333 7.33301 46 13 68 17s45 6 69 6
c29.333 0 54.666 -4 75.999 -12s39 -19.167 53 -33.5s24.333 -31.333 31 -51s10 -41.167 10 -64.5v-183c0 -29.333 6.66699 -51.833 20 -67.5s30.666 -23.5 51.999 -23.5c20.667 0 38.334 6 53.001 18s26.834 27 36.501 45s16.667 37.833 21 59.5s6.5 42.5 6.5 62.5
c0 56.667 -8.5 107.834 -25.5 153.501s-40.833 84.5 -71.5 116.5s-67.167 56.667 -109.5 74s-88.833 26 -139.5 26c-51.333 0 -99 -8.33301 -143 -25s-82.167 -40.667 -114.5 -72s-57.666 -69.666 -75.999 -114.999s-27.5 -96.666 -27.5 -153.999
c0 -59.333 9 -111.166 27 -155.499s42.833 -81.5 74.5 -111.5s69 -52.5 112 -67.5s89.167 -22.5 138.5 -22.5c26 0 51.833 1.83301 77.5 5.5s51.167 9.16699 76.5 16.5l11 -53c-25.333 -7.33301 -52.833 -13 -82.5 -17s-57.167 -6 -82.5 -6c-56 0 -108.833 9 -158.5 27
s-93 44.333 -130 79s-66.167 77.5 -87.5 128.5s-32 109.833 -32 176.5zM371.998 134.998c0 -23.333 7.16797 -42.5 21.501 -57.5s36.5 -22.5 66.5 -22.5c26.667 0 50.667 5 72 15s40.666 22 57.999 36c-1.33301 5.33301 -2 11 -2 17v18v77h-81
c-40 0 -72.5 -5.83301 -97.5 -17.5s-37.5 -33.5 -37.5 -65.5z" />
    <glyph glyph-name="A" unicode="A" horiz-adv-x="649" 
d="M202 601c8.66699 34 23.668 60.833 45.001 80.5s47 29.5 77 29.5s55.667 -10 77 -30s36.666 -47 45.999 -81l157 -600h-69l-54 207h-314l-53 -207h-69zM465.001 267l-82.999 321.999c-4.66699 17.333 -11.167 31.333 -19.5 42s-21.166 16 -38.499 16
c-16.667 0 -29.334 -5.16699 -38.001 -15.5s-15.334 -24.166 -20.001 -41.499l-83 -323h282z" />
    <glyph glyph-name="B" unicode="B" horiz-adv-x="588" 
d="M98 668c32.667 12.667 65.166 22.832 97.499 30.499s65.5 11.5 99.5 11.5c33.333 0 62.833 -4.83301 88.5 -14.5s47.334 -23 65.001 -40s31.167 -36.833 40.5 -59.5s14 -46.667 14 -72c0 -32.667 -7.5 -62.167 -22.5 -88.5s-36.833 -47.166 -65.5 -62.499
c41.333 -14 72.333 -36.667 93 -68s31 -67 31 -107c0 -26.667 -4.66699 -52 -14 -76s-23.333 -45 -42 -63s-41.667 -32.333 -69 -43s-59.333 -16 -96 -16h-220v668zM293.999 394.998c24.667 0 45.667 3.33105 63 9.99805s31.5 15.834 42.5 27.501s19 25 24 40
s7.5 30.833 7.5 47.5c0 17.333 -2.5 33.833 -7.5 49.5s-13 29.334 -24 41.001s-25 21 -42 28s-37.833 10.5 -62.5 10.5c-22 0 -43.5 -2 -64.5 -6s-42.167 -9.66699 -63.5 -17v-231h127zM315.999 61.9961c27.333 0 50.5 3.83105 69.5 11.498s34.5 17.834 46.5 30.501
s20.667 27.167 26 43.5s8 33.166 8 50.499s-2.66699 34.333 -8 51s-13.833 31.334 -25.5 44.001s-27 22.834 -46 30.501s-42.5 11.5 -70.5 11.5h-149v-273h149z" />
    <glyph glyph-name="C" unicode="C" horiz-adv-x="570" 
d="M69 451c0 83.333 21.334 147.499 64.001 192.499s104 67.5 184 67.5c34 0 66.333 -2.66699 97 -8s63 -12.666 97 -21.999l-14 -60c-28.667 8 -57.334 14.667 -86.001 20s-58.667 8 -90 8c-35.333 0 -64.666 -5.5 -87.999 -16.5s-41.833 -26 -55.5 -45
s-23.167 -41.167 -28.5 -66.5s-8 -52.333 -8 -81v-183c0 -28.667 2.66699 -55.5 8 -80.5s14.833 -47 28.5 -66s32.167 -34 55.5 -45s52.666 -16.5 87.999 -16.5c32 0 62 2.66699 90 8s56.667 11.666 86 18.999l14 -59c-32 -9.33301 -63.333 -16.666 -94 -21.999
s-64 -8 -100 -8c-80 0 -141.333 22.167 -184 66.5s-64 108.5 -64 192.5v205z" />
    <glyph glyph-name="D" unicode="D" horiz-adv-x="653" 
d="M98 698l235 0.000976562c85.333 0 148.333 -19.833 189 -59.5s61 -102.167 61 -187.5v-205c0 -84.667 -20.333 -146.834 -61 -186.501s-103.667 -59.5 -189 -59.5h-235v698zM332 62.001c36.667 0 66.667 4.66699 90 14s41.666 22.5 54.999 39.5s22.5 37.667 27.5 62
s7.5 51.5 7.5 81.5v181c0 30 -2.5 57 -7.5 81s-14.167 44.5 -27.5 61.5s-31.666 30.167 -54.999 39.5s-53.333 14 -90 14h-165v-574h165z" />
    <glyph glyph-name="E" unicode="E" horiz-adv-x="517" 
d="M78 525c0 52 15.833 93.833 47.5 125.5s80.5 47.5 146.5 47.5h180v-62h-180c-24 0 -44.167 -2.66699 -60.5 -8s-29.166 -13 -38.499 -23s-16 -22 -20 -36s-6 -29.333 -6 -46v-134h275v-62h-275v-152c0 -17.333 2 -32.833 6 -46.5s10.667 -25.5 20 -35.5
s22.166 -17.667 38.499 -23s36.5 -8 60.5 -8h184v-42c0 -13.333 -6.66699 -20 -20 -20h-164c-65.333 -0 -114 15.833 -146 47.5s-48 73.167 -48 124.5v353z" />
    <glyph glyph-name="F" unicode="F" horiz-adv-x="519" 
d="M98 698h372v-62h-303v-258h273v-62h-273v-316h-69v698z" />
    <glyph glyph-name="G" unicode="G" horiz-adv-x="631" 
d="M69 451c0 83.333 21.332 147.5 63.999 192.5s104 67.5 184 67.5c36 0 69.333 -2.66699 100 -8s62 -12.666 94 -21.999l-14 -60c-29.333 8 -58 14.667 -86 20s-58 8 -90 8c-35.333 0 -64.666 -5.5 -87.999 -16.5s-41.833 -26 -55.5 -45s-23.167 -41.167 -28.5 -66.5
s-8 -52.333 -8 -81v-184c0 -28.667 2.66699 -55.667 8 -81s14.833 -47.333 28.5 -66s32.167 -33.334 55.5 -44.001s52.666 -16 87.999 -16c28 0 55 2.5 81 7.5s52.667 10.833 80 17.5v244l67 8v-299c-38.667 -11.333 -76.667 -20.833 -114 -28.5
s-76.666 -11.5 -117.999 -11.5c-80 0 -141.333 22 -184 66s-64 108 -64 192v206z" />
    <glyph glyph-name="H" unicode="H" horiz-adv-x="676" 
d="M98 698h69v-309h341v309h70v-678c0 -13.333 -6.66699 -20 -20 -20h-50v327h-341v-327h-69v698z" />
    <glyph glyph-name="I" unicode="I" horiz-adv-x="265" 
d="M98 698h69v-678c0 -13.333 -6.66699 -20 -20 -20h-49v698z" />
    <glyph glyph-name="J" unicode="J" horiz-adv-x="482" 
d="M58 69c20 -6.66699 39.499 -11.6699 58.499 -15.0029s38.5 -5 58.5 -5c29.333 0 53.5 4.33301 72.5 13s33.833 20.834 44.5 36.501s18 34 22 55s6 43.833 6 68.5v476h70v-486c0 -32 -3.83301 -61.667 -11.5 -89s-20.167 -51.166 -37.5 -71.499
s-39.666 -36.166 -66.999 -47.499s-60.666 -17 -99.999 -17c-23.333 0 -45.333 1.66699 -66 5s-42.334 9 -65.001 17z" />
    <glyph glyph-name="K" unicode="K" horiz-adv-x="599" 
d="M98 698h68.999v-317l126 7l141 310h76l-143 -314c24.667 -5.33301 43.834 -16 57.501 -32s25.167 -37.667 34.5 -65l97 -287h-74l-89 268c-7.33301 20.667 -16.833 36 -28.5 46s-28.167 14.333 -49.5 13l-148 -9v-298c0 -13.333 -6.66699 -20 -20 -20h-49v698z" />
    <glyph glyph-name="L" unicode="L" horiz-adv-x="548" 
d="M98 698h69v-636h329v-42c0 -13.333 -6.66699 -20 -20 -20h-378v698z" />
    <glyph glyph-name="M" unicode="M" horiz-adv-x="861" 
d="M153 698l85 0.000976562l150 -529c5.33301 -20.667 11 -35.167 17 -43.5s14.667 -12.5 26 -12.5s20 4.16699 26 12.5s11.667 22.833 17 43.5l150 529h85l97 -698h-69l-68 488c-2 15.333 -4 33.666 -6 54.999s-3.66699 41.333 -5 60l-14.5 -60.5
c-5 -21 -9.83301 -39.5 -14.5 -55.5l-90 -329c-9.33301 -34 -22 -60.5 -38 -79.5s-39.333 -28.5 -70 -28.5s-54 9.5 -70 28.5s-28.667 45.5 -38 79.5l-91 331l-14.5 56c-5.66699 22 -10.5 42.333 -14.5 61c-1.33301 -20 -3 -41.5 -5 -64.5s-4.33301 -42.833 -7 -59.5
l-67 -482h-69z" />
    <glyph glyph-name="N" unicode="N" horiz-adv-x="664" 
d="M98 698l66 0.000976562l337 -575c-1.33301 21.333 -2.33301 42.666 -3 63.999s-1 40.666 -1 57.999v453h69v-698h-66l-337 574c1.33301 -21.333 2.33301 -42.666 3 -63.999s1 -40.333 1 -57v-453h-69v698z" />
    <glyph glyph-name="O" unicode="O" 
d="M69 429c0 42 6 80.333 18 115s29.167 64.334 51.5 89.001s49.666 43.834 81.999 57.501s68.833 20.5 109.5 20.5s77.167 -6.83301 109.5 -20.5s59.666 -32.834 81.999 -57.501s39.5 -54.334 51.5 -89.001s18 -73 18 -115v-159c0 -43.333 -6 -82.5 -18 -117.5
s-29.167 -64.667 -51.5 -89s-49.666 -43.166 -81.999 -56.499s-68.833 -20 -109.5 -20s-77.167 6.66699 -109.5 20s-59.666 32.166 -81.999 56.499s-39.5 54 -51.5 89s-18 74.167 -18 117.5v159zM141 280c0 -30.667 3.16699 -60 9.5 -88s16.666 -52.5 30.999 -73.5
s33.666 -37.833 57.999 -50.5s54.5 -19 90.5 -19s66.167 6.33301 90.5 19s43.666 29.5 57.999 50.5s24.666 45.5 30.999 73.5s9.5 57.333 9.5 88v138c0 30.667 -3.16699 59.834 -9.5 87.501s-16.666 52.167 -30.999 73.5s-33.666 38.333 -57.999 51s-54.5 19 -90.5 19
s-66.167 -6.33301 -90.5 -19s-43.666 -29.667 -57.999 -51s-24.666 -45.833 -30.999 -73.5s-9.5 -56.834 -9.5 -87.501v-138z" />
    <glyph glyph-name="P" unicode="P" horiz-adv-x="566" 
d="M98 698h188c36.667 0 69.167 -5.83301 97.5 -17.5s52.166 -27.334 71.499 -47.001s33.833 -42.5 43.5 -68.5s14.5 -53.667 14.5 -83s-4.83301 -57 -14.5 -83s-24.167 -48.667 -43.5 -68s-43.166 -34.666 -71.499 -45.999s-60.833 -17 -97.5 -17h-119v-268h-69v698z
M284 330c28.667 0 52.834 4.5 72.501 13.5s35.834 20.667 48.501 35s21.834 30.666 27.501 48.999s8.5 36.5 8.5 54.5c0 18.667 -2.83301 37.167 -8.5 55.5s-14.834 34.833 -27.501 49.5s-28.834 26.334 -48.501 35.001s-43.834 13 -72.501 13h-117v-305h117z" />
    <glyph glyph-name="Q" unicode="Q" 
d="M69 429c0 42 6.00098 80.334 18.001 115.001s29.167 64.334 51.5 89.001s49.666 43.834 81.999 57.501s68.833 20.5 109.5 20.5s77.167 -6.83301 109.5 -20.5s59.666 -32.834 81.999 -57.501s39.5 -54.334 51.5 -89.001s18 -73 18 -115v-159
c0 -68 -14.167 -124.833 -42.5 -170.5s-68.5 -77.5 -120.5 -95.5l58 -159l-60 -22l-62 166c-5.33301 -0.666992 -11 -1.16699 -17 -1.5s-11.667 -0.5 -17 -0.5c-40.667 0 -77.167 6.66699 -109.5 20s-59.666 32.166 -81.999 56.499s-39.5 54 -51.5 89s-18 74.167 -18 117.5
v159zM141.001 280.001c0 -30.667 3.16699 -60 9.5 -88s16.666 -52.5 30.999 -73.5s33.666 -37.833 57.999 -50.5s54.5 -19 90.5 -19s66.167 6.33301 90.5 19s43.666 29.5 57.999 50.5s24.666 45.5 30.999 73.5s9.5 57.333 9.5 88v138c0 30.667 -3.16699 59.834 -9.5 87.501
s-16.666 52.167 -30.999 73.5s-33.666 38.333 -57.999 51s-54.5 19 -90.5 19s-66.167 -6.33301 -90.5 -19s-43.666 -29.667 -57.999 -51s-24.666 -45.833 -30.999 -73.5s-9.5 -56.834 -9.5 -87.501v-138z" />
    <glyph glyph-name="R" unicode="R" horiz-adv-x="582" 
d="M98 674c35.333 11.333 70.333 20.3311 105 26.998s70 10 106 10c35.333 0 66.333 -6 93 -18s49 -28 67 -48s31.667 -43 41 -69s14 -53 14 -81c0 -18.667 -2.83301 -38.667 -8.5 -60s-15 -41.666 -28 -60.999s-30 -36.666 -51 -51.999s-46.5 -26 -76.5 -32l145 -290h-75
l-141 282h-122v-282h-69v674zM298 341.998c25.333 0 47.666 4.33301 66.999 13s35.5 20 48.5 34s22.667 30.167 29 48.5s9.5 37.5 9.5 57.5c0 18.667 -2.5 37.334 -7.5 56.001s-13.167 35.167 -24.5 49.5s-26.166 26 -44.499 35s-40.5 13.5 -66.5 13.5
c-24 0 -47.667 -1.83301 -71 -5.5s-47 -8.83398 -71 -15.501v-286h131z" />
    <glyph glyph-name="S" unicode="S" horiz-adv-x="524" 
d="M70 83c30 -9.33301 59.166 -17.3379 87.499 -24.0049s57.5 -10 87.5 -10c52 0 89.667 12 113 36s35 55.667 35 95c0 28.667 -8 52 -24 70s-36.167 33.833 -60.5 47.5s-50.5 26.334 -78.5 38.001s-54.167 25.5 -78.5 41.5s-44.5 35.667 -60.5 59s-24 53.333 -24 90
c0 29.333 5.16699 55.5 15.5 78.5s24.833 42.333 43.5 58s41 27.667 67 36s54.667 12.5 86 12.5c28 0 54.833 -3 80.5 -9s52.5 -14.333 80.5 -25l-18 -58c-25.333 8.66699 -49.166 15.834 -71.499 21.501s-46.166 8.5 -71.499 8.5c-46 0 -80.667 -10.667 -104 -32
s-35 -51.666 -35 -90.999c0 -26 8 -47.333 24 -64s36.167 -31.667 60.5 -45s50.5 -26.166 78.5 -38.499s54.167 -27 78.5 -44s44.5 -37.667 60.5 -62s24 -55.166 24 -92.499c0 -58.667 -19.5 -105.5 -58.5 -140.5s-93.167 -52.5 -162.5 -52.5
c-33.333 0 -64.833 3.33301 -94.5 10s-60.834 14.667 -93.501 24z" />
    <glyph glyph-name="T" unicode="T" horiz-adv-x="549" 
d="M240 636h-192v62h453v-62h-192v-636h-69v636z" />
    <glyph glyph-name="U" unicode="U" horiz-adv-x="662" 
d="M83 698h69v-463c0 -24 3.5 -47.167 10.5 -69.5s17.667 -42.166 32 -59.499s32.833 -31.166 55.5 -41.499s49.667 -15.5 81 -15.5c30.667 0 57.167 5.16699 79.5 15.5s40.833 24.166 55.5 41.499s25.5 37.166 32.5 59.499s10.5 45.5 10.5 69.5v463h70v-445
c0 -85.333 -21.333 -151 -64 -197s-104 -69 -184 -69c-78.667 0 -139.667 23 -183 69s-65 111.667 -65 197v445z" />
    <glyph glyph-name="V" unicode="V" horiz-adv-x="629" 
d="M40 698h71.002l168 -505c5.33301 -16.667 11.166 -37 17.499 -61l17.5 -66l17.5 65.5c6.33301 23.667 12.166 44.167 17.499 61.5l168 505h72l-232 -698h-85z" />
    <glyph glyph-name="W" unicode="W" horiz-adv-x="886" 
d="M50 698l70 0.000976562l96 -468c4 -19.333 7.66699 -41.666 11 -66.999l10 -73c3.33301 23.333 7.33301 47.666 12 72.999s9.33398 47.666 14.001 66.999l74 311c8 32.667 20.167 58.667 36.5 78s39.5 29 69.5 29s53.167 -9.66699 69.5 -29s28.5 -45.333 36.5 -78
l73 -311c4.66699 -19.333 9.33398 -41.833 14.001 -67.5s8.66699 -50.167 12 -73.5l10.5 73.5c3.66699 25.667 7.5 48.167 11.5 67.5l96 468h70l-145 -698h-82l-124 529c-4.66699 19.333 -9.66699 33.166 -15 41.499s-14.333 12.5 -27 12.5s-21.834 -4.16699 -27.501 -12.5
s-10.834 -22.166 -15.501 -41.499l-123 -529h-82z" />
    <glyph glyph-name="X" unicode="X" horiz-adv-x="621" 
d="M269 366l-202 332h80l164 -270l166 270h77l-203 -329l226 -369h-80l-188 307l-188 -307h-77z" />
    <glyph glyph-name="Y" unicode="Y" horiz-adv-x="574" 
d="M252 292c-28 3.33301 -51.668 10.998 -71.001 22.998s-35.333 26.833 -48 44.5s-22.667 37.5 -30 59.5s-13.333 44.667 -18 68l-40 211h68l39 -200c4 -18 8.5 -35.833 13.5 -53.5s12.333 -33.5 22 -47.5s22.334 -25.167 38.001 -33.5s36.167 -12.5 61.5 -12.5
s46 4.16699 62 12.5s28.833 19.333 38.5 33s17 29.334 22 47.001s9.16699 35.834 12.5 54.501l38 200h69l-40 -211c-4.66699 -23.333 -10.667 -46 -18 -68s-17.5 -41.833 -30.5 -59.5s-29.167 -32.5 -48.5 -44.5s-43 -19.667 -71 -23v-292h-69v292z" />
    <glyph glyph-name="Z" unicode="Z" horiz-adv-x="550" 
d="M55 57l347 579h-336v62h417v-56l-347 -580h359v-62h-440v57z" />
    <glyph glyph-name="bracketleft" unicode="[" horiz-adv-x="278" 
d="M239 -152v-61h-175v993h175v-61h-106v-871h106z" />
    <glyph glyph-name="backslash" unicode="\" horiz-adv-x="433" 
d="M73 741h66l221 -778h-66z" />
    <glyph glyph-name="bracketright" unicode="]" horiz-adv-x="299" 
d="M146 -152v871h-106v61h175v-993h-175v61h106z" />
    <glyph glyph-name="asciicircum" unicode="^" horiz-adv-x="586" 
d="M258 698h70l174 -364h-73l-136 305l-136 -305h-73z" />
    <glyph glyph-name="underscore" unicode="_" horiz-adv-x="501" 
d="M500 -101v-61h-500v61h500z" />
    <glyph glyph-name="grave" unicode="`" horiz-adv-x="344" 
d="M75 651l27 59l168 -77l-20 -46z" />
    <glyph glyph-name="a" unicode="a" horiz-adv-x="513" 
d="M50 136c0 26.667 5.33008 49.332 15.9971 67.999s25.667 34 45 46s42.333 20.667 69 26s56.334 8 89.001 8h94v49c0 43.333 -9.16699 76 -27.5 98s-50.166 33 -95.499 33c-24.667 0 -48 -2.16699 -70 -6.5s-45 -10.166 -69 -17.499l-15 59c26 8 51.333 14.333 76 19
s50.667 7 78 7c64.667 0 112.667 -16.667 144 -50s47 -76.333 47 -129v-346h-53l-8 52c-21.333 -19.333 -45.166 -35 -71.499 -47s-54.833 -18 -85.5 -18c-51.333 0 -91.333 13.833 -120 41.5s-43 63.5 -43 107.5zM119.997 135.998c0 -26 8.16699 -47.167 24.5 -63.5
s41.5 -24.5 75.5 -24.5c26 0 51.5 5.5 76.5 16.5s47.167 25.833 66.5 44.5v119h-90c-46 0 -83 -6.5 -111 -19.5s-42 -37.167 -42 -72.5z" />
    <glyph glyph-name="b" unicode="b" horiz-adv-x="553" 
d="M86 726l67.999 0.000976562v-260c25.333 19.333 49.833 34 73.5 44s48.834 15 75.501 15c58.667 0 104.334 -17.833 137.001 -53.5s49 -85.834 49 -150.501v-130c0 -64 -16.333 -114 -49 -150s-78.334 -54 -137.001 -54c-28 0 -54.333 5.5 -79 16.5s-50 26.833 -76 47.5
l-7 -51h-55v726zM153.999 109.001c20.667 -15.333 42.8311 -29.333 66.498 -42s48.167 -19 73.5 -19c44.667 0 76.834 13 96.501 39s29.5 66 29.5 120v98c0 54 -9.83301 94 -29.5 120s-51.834 39 -96.501 39c-25.333 0 -49.166 -6 -71.499 -18s-45.166 -26.667 -68.499 -44
v-293z" />
    <glyph glyph-name="c" unicode="c" horiz-adv-x="480" 
d="M64 300c0 68 17.501 122.498 52.501 163.498s85.5 61.5 151.5 61.5c27.333 0 53.833 -2.33301 79.5 -7s51.834 -11 78.501 -19l-16 -58c-22 7.33301 -44.667 13 -68 17s-47.333 6 -72 6c-26 0 -47.667 -4.16699 -65 -12.5s-31.333 -20.166 -42 -35.499
s-18.334 -33.5 -23.001 -54.5s-7 -43.833 -7 -68.5v-71c0 -25.333 2.33301 -48.666 7 -69.999s12.334 -39.666 23.001 -54.999s24.667 -27.333 42 -36s39 -13 65 -13c25.333 0 49.166 2.16699 71.499 6.5s45.166 10.166 68.499 17.499l16 -59
c-26.667 -8 -52.834 -14.333 -78.501 -19s-52.167 -7 -79.5 -7c-33.333 0 -62.666 5.5 -87.999 16.5s-46.5 26.333 -63.5 46s-30 43.5 -39 71.5s-13.5 59 -13.5 93v86z" />
    <glyph glyph-name="d" unicode="d" horiz-adv-x="552" 
d="M64 321c0 64.667 16.334 114.834 49.001 150.501s78.334 53.5 137.001 53.5c26.667 0 51.667 -5.33301 75 -16s47.666 -25.667 72.999 -45v262h68v-726h-54l-7 53c-26 -20.667 -51.333 -36.834 -76 -48.501s-51 -17.5 -79 -17.5c-58.667 0 -104.334 18 -137.001 54
s-49 86 -49 150v130zM133.001 207c0 -53.333 9.83301 -93.166 29.5 -119.499s51.5 -39.5 95.5 -39.5c26 0 50.833 6.66699 74.5 20s45.5 27.666 65.5 42.999v288c-22 17.333 -44.5 32.5 -67.5 45.5s-47.167 19.5 -72.5 19.5c-44 0 -75.833 -13 -95.5 -39
s-29.5 -66 -29.5 -120v-98z" />
    <glyph glyph-name="e" unicode="e" horiz-adv-x="523" 
d="M64 320c0 26.667 4.49707 52.5 13.4971 77.5s22 46.833 39 65.5s38 33.667 63 45s53.167 17 84.5 17s59.5 -5.83301 84.5 -17.5s46 -27 63 -46s30 -40.833 39 -65.5s13.5 -50 13.5 -76v-56c0 -5.33301 -1.83301 -10 -5.5 -14s-8.16699 -6 -13.5 -6h-313v-53
c0 -16 2.33301 -32.333 7 -49s12.334 -32 23.001 -46s24.834 -25.5 42.501 -34.5s39.5 -13.5 65.5 -13.5c27.333 0 53.5 2.66699 78.5 8s50.833 11.666 77.5 18.999l15 -58c-29.333 -9.33301 -57.666 -16.666 -84.999 -21.999s-56 -8 -86 -8c-34 0 -63.833 5.66699 -89.5 17
s-47.167 26.5 -64.5 45.5s-30.333 40.833 -39 65.5s-13 50 -13 76v129zM395.997 298l0.00390625 25.001c0 16 -2.33301 32.5 -7 49.5s-12.334 32.167 -23.001 45.5s-24.334 24.333 -41.001 33s-37 13 -61 13s-44.333 -4.33301 -61 -13s-30.334 -19.667 -41.001 -33
s-18.334 -28.333 -23.001 -45s-7 -33.334 -7 -50.001v-25h264z" />
    <glyph glyph-name="f" unicode="f" horiz-adv-x="306" 
d="M98 458l-84.001 6v48h84v76c0 47.333 13.833 84.333 41.5 111s64.167 40 109.5 40c28 0 54.333 -3.33301 79 -10l-10 -59c-23.333 5.33301 -46 8 -68 8c-23.333 0 -43.166 -7 -59.499 -21s-24.5 -39.333 -24.5 -76v-69h121v-54h-121v-438c0 -13.333 -6.66699 -20 -20 -20
h-48v458z" />
    <glyph glyph-name="g" unicode="g" horiz-adv-x="553" 
d="M302 -141c32 0 55.998 9.16406 71.998 27.4971s24 42.5 24 72.5v98c-24.667 -19.333 -48.667 -33.666 -72 -42.999s-48.666 -14 -75.999 -14c-58 0 -103.5 17.833 -136.5 53.5s-49.5 85.834 -49.5 150.501v117c0 64.667 16.333 114.834 49 150.501
s78.334 53.5 137.001 53.5c28 0 54.333 -5.83301 79 -17.5s50 -28.167 76 -49.5l7 54h54v-552c0 -50 -13.833 -89.333 -41.5 -118s-68.5 -43 -122.5 -43h-132l-12 60h144zM132.998 219.997c0 -54 9.83301 -94 29.5 -120s51.5 -39 95.5 -39c26 0 50 5.5 72 16.5
s44.667 24.833 68 41.5v280c-20 16 -42 30.833 -66 44.5s-48.667 20.5 -74 20.5c-44 0 -75.833 -13 -95.5 -39s-29.5 -66 -29.5 -120v-85z" />
    <glyph glyph-name="h" unicode="h" horiz-adv-x="556" 
d="M86 726h68.002v-263c25.333 18.667 50.166 33.667 74.499 45s50.166 17 77.499 17c56.667 0 99 -15.667 127 -47s42 -73 42 -125v-333c0 -13.333 -6.66699 -20 -20 -20h-48v337c0 41.333 -7.83301 72.833 -23.5 94.5s-44.5 32.5 -86.5 32.5c-25.333 0 -49.5 -6 -72.5 -18
s-46.5 -27 -70.5 -45v-401h-68v726z" />
    <glyph glyph-name="i" unicode="i" horiz-adv-x="240" 
d="M120 610c-12.667 0 -23.167 4.5 -31.5 13.5s-12.5 19.833 -12.5 32.5s4.16699 23 12.5 31s18.833 12 31.5 12c13.333 0 24.333 -4 33 -12s13 -18.333 13 -31s-4.33301 -23.5 -13 -32.5s-19.667 -13.5 -33 -13.5zM86 512h68v-492c0 -13.333 -6.66699 -20 -20 -20h-48v512z
" />
    <glyph glyph-name="j" unicode="j" horiz-adv-x="241" 
d="M120 610c-12.667 0 -23.167 4.5 -31.5 13.5s-12.5 19.833 -12.5 32.5s4.16699 23 12.5 31s18.833 12 31.5 12c13.333 0 24.333 -4 33 -12s13 -18.333 13 -31s-4.33301 -23.5 -13 -32.5s-19.667 -13.5 -33 -13.5zM86 512l68.001 0.000976562v-575
c0 -46 -12.5 -82.667 -37.5 -110s-60.167 -41 -105.5 -41c-26.667 0 -52.334 3.33301 -77.001 10l10 59c11.333 -2.66699 22.333 -4.66699 33 -6s21.667 -2 33 -2c23.333 0 41.833 7.16699 55.5 21.5s20.5 40.166 20.5 77.499v566z" />
    <glyph glyph-name="k" unicode="k" horiz-adv-x="488" 
d="M86 726h68v-434l108 28c14 4 25 10.5 33 19.5s14 18.167 18 27.5l58 145h71l-69 -168c-6.66699 -15.333 -15.5 -29.5 -26.5 -42.5s-25.167 -23.167 -42.5 -30.5l155 -271h-77l-140 251l-88 -23v-208c0 -13.333 -6.66699 -20 -20 -20h-48v726z" />
    <glyph glyph-name="l" unicode="l" horiz-adv-x="242" 
d="M86 726l68.002 -0.000976562v-636c0 -16 2.66699 -26.667 8 -32s12.666 -9 21.999 -11l-14 -58c-11.333 0.666992 -22 2.5 -32 5.5s-18.833 8 -26.5 15s-13.834 16.333 -18.501 28s-7 26.834 -7 45.501v643z" />
    <glyph glyph-name="m" unicode="m" horiz-adv-x="855" 
d="M86 512l53.999 0.000976562l8 -54c20 17.333 42.5 32.833 67.5 46.5s51.5 20.5 79.5 20.5c36.667 0 67 -6.66699 91 -20s42.333 -31.666 55 -54.999c23.333 19.333 48.833 36.666 76.5 51.999s56.834 23 87.501 23c56.667 0 99 -15.667 127 -47s42 -73 42 -125v-333
c0 -13.333 -6.66699 -20 -20 -20h-48v336c0 41.333 -7.83301 73 -23.5 95s-44.5 33 -86.5 33c-24 0 -47.833 -6.5 -71.5 -19.5s-45.5 -28.167 -65.5 -45.5c1.33301 -7.33301 2.5 -14.833 3.5 -22.5s1.5 -15.834 1.5 -24.501v-352h-68v336c0 41.333 -7.83301 73 -23.5 95
s-44.5 33 -86.5 33c-25.333 0 -49 -6.83301 -71 -20.5s-42.333 -28.5 -61 -44.5v-399h-68v512z" />
    <glyph glyph-name="n" unicode="n" horiz-adv-x="556" 
d="M86 512h54l8 -54c25.333 20.667 51 37 77 49s53 18 81 18c56.667 0 99 -15.667 127 -47s42 -73 42 -125v-333c0 -13.333 -6.66699 -20 -20 -20h-48v336c0 41.333 -7.83301 73 -23.5 95s-44.5 33 -86.5 33c-26 0 -50.333 -6.16699 -73 -18.5s-46 -27.5 -70 -45.5v-400h-68
v512z" />
    <glyph glyph-name="o" unicode="o" horiz-adv-x="545" 
d="M64 302c0 69.333 18.333 123.833 55 163.5s88 59.5 154 59.5c65.333 0 116.333 -19.833 153 -59.5s55 -94.167 55 -163.5v-91c0 -70 -18.333 -124.833 -55 -164.5s-87.667 -59.5 -153 -59.5c-66 0 -117.333 19.833 -154 59.5s-55 94.5 -55 164.5v91zM133 219
c0 -26 2.5 -49.5 7.5 -70.5s13 -39 24 -54s25.5 -26.5 43.5 -34.5s39.667 -12 65 -12c50.667 0 86.5 15.5 107.5 46.5s31.5 72.5 31.5 124.5v76c0 51.333 -10.667 92.333 -32 123s-57 46 -107 46c-25.333 0 -46.833 -4 -64.5 -12s-32.167 -19.333 -43.5 -34
s-19.5 -32.5 -24.5 -53.5s-7.5 -44.167 -7.5 -69.5v-76z" />
    <glyph glyph-name="p" unicode="p" horiz-adv-x="553" 
d="M154 -201l-67.999 0.000976562v713h55l7 -54c25.333 21.333 50.5 37.833 75.5 49.5s51.5 17.5 79.5 17.5c58.667 0 104.334 -17.833 137.001 -53.5s49 -85.834 49 -150.501v-130c0 -64 -16.333 -114 -49 -150s-78.334 -54 -137.001 -54
c-26.667 0 -51.834 5.66699 -75.501 17s-48.167 26 -73.5 44v-249zM154.001 111.001c23.333 -17.333 46.001 -32.165 68.001 -44.498s46 -18.5 72 -18.5c44 0 76 13.167 96 39.5s30 66.166 30 119.499v98c0 53.333 -10 93.166 -30 119.499s-52 39.5 -96 39.5
c-25.333 0 -49.833 -6.83301 -73.5 -20.5s-45.834 -28.5 -66.501 -44.5v-288z" />
    <glyph glyph-name="q" unicode="q" horiz-adv-x="548" 
d="M64 321c0 64.667 16.335 114.833 49.002 150.5s78.334 53.5 137.001 53.5c28 0 54.333 -5.83301 79 -17.5s50 -28.167 76 -49.5l7 54h54v-713h-68v249c-24.667 -18.667 -48.834 -33.5 -72.501 -44.5s-48.834 -16.5 -75.501 -16.5c-58.667 0 -104.334 18 -137.001 54
s-49 86 -49 150v130zM133.002 206.999c0 -53.333 9.83301 -93.167 29.5 -119.5s51.5 -39.5 95.5 -39.5c26 0 50 6.16699 72 18.5s44.667 27.166 68 44.499v288c-20 15.333 -41.833 30 -65.5 44s-48.5 21 -74.5 21c-44 0 -75.833 -13.167 -95.5 -39.5
s-29.5 -66.166 -29.5 -119.499v-98z" />
    <glyph glyph-name="r" unicode="r" horiz-adv-x="363" 
d="M86 512l54.002 -0.000976562l9 -75c16 23.333 36.167 43.833 60.5 61.5s49.833 26.5 76.5 26.5c16 0 32 -2 48 -6l-10 -60c-11.333 2.66699 -24.333 4 -39 4c-11.333 0 -22.833 -2.66699 -34.5 -8s-23.334 -12.333 -35.001 -21s-22.834 -18.667 -33.501 -30
s-20 -22.666 -28 -33.999v-370h-68v512z" />
    <glyph glyph-name="s" unicode="s" horiz-adv-x="427" 
d="M65 75c22 -7.33301 43.999 -13.666 65.999 -18.999s44.667 -8 68 -8c36.667 0 63.167 7.83301 79.5 23.5s24.5 36.5 24.5 62.5c0 18 -6 33 -18 45s-27 22.667 -45 32s-37.333 18.5 -58 27.5s-40 19.667 -58 32s-33 27.5 -45 45.5s-18 40.667 -18 68
c0 22 4.16699 41.667 12.5 59s20 32.166 35 44.499s32.667 21.666 53 27.999s42.833 9.5 67.5 9.5c42 0 83 -7.33301 123 -22l-16 -57c-17.333 5.33301 -34.833 9.66602 -52.5 12.999s-35.5 5 -53.5 5c-32 0 -56.333 -7 -73 -21s-25 -33.667 -25 -59
c0 -17.333 6 -31.833 18 -43.5s27 -22.167 45 -31.5s37.333 -18.666 58 -27.999s40 -20.333 58 -33s33 -28.167 45 -46.5s18 -40.833 18 -67.5c0 -45.333 -15.667 -81.166 -47 -107.499s-74 -39.5 -128 -39.5c-25.333 0 -50.166 2.5 -74.499 7.5s-48.833 11.5 -73.5 19.5z
" />
    <glyph glyph-name="t" unicode="t" horiz-adv-x="349" 
d="M98 458l-84 6v48h84v168h68v-168h126v-54h-126v-312c0 -18.667 2.16699 -34.167 6.5 -46.5s10.333 -22.333 18 -30s16.5 -13.167 26.5 -16.5s21 -5 33 -5c22 0 44.667 2.66699 68 8l10 -59c-24.667 -6.66699 -51.334 -10 -80.001 -10c-45.333 0 -81.666 13 -108.999 39
s-41 63 -41 111v321z" />
    <glyph glyph-name="u" unicode="u" horiz-adv-x="556" 
d="M81 492c0 13.333 6.66602 20 19.999 20h48v-336c0 -42 7.83301 -73.833 23.5 -95.5s44.834 -32.5 87.501 -32.5c25.333 0 49.5 6 72.5 18s46.167 27.333 69.5 46v400h68v-512h-54l-7 54c-25.333 -20.667 -51 -37 -77 -49s-53 -18 -81 -18
c-56.667 0 -99.167 15.833 -127.5 47.5s-42.5 73.5 -42.5 125.5v332z" />
    <glyph glyph-name="v" unicode="v" horiz-adv-x="497" 
d="M30 512l70 -0.00195312l110 -319c6 -18 12.5 -39.5 19.5 -64.5l18.5 -68.5c5.33301 20.667 11.5 43.334 18.5 68.001s13.833 46.334 20.5 65.001l110 319h70l-178 -512h-81z" />
    <glyph glyph-name="w" unicode="w" horiz-adv-x="716" 
d="M34 512l70.001 0.000976562l77 -315c4 -16.667 8.33301 -36.5 13 -59.5s8.66699 -44.167 12 -63.5c5.33301 20 10.5 41.167 15.5 63.5s10.167 42.166 15.5 59.499l81 277h80l81 -277c4.66699 -16.667 9.66699 -36.5 15 -59.5s10.666 -44.5 15.999 -64.5l12.5 64
c4.33301 22.667 8.5 42.667 12.5 60l77 315h70l-130 -512h-79l-115 396l-115 -396h-79z" />
    <glyph glyph-name="x" unicode="x" horiz-adv-x="483" 
d="M201 263l-160 249h77l124 -192l125 192h75l-160 -247l171 -265h-77l-136 208l-135 -208h-75z" />
    <glyph glyph-name="y" unicode="y" horiz-adv-x="510" 
d="M45 512l67.001 0.00195312l44 -338c2 -15.333 5.16699 -29.833 9.5 -43.5s10.5 -25.5 18.5 -35.5s17.833 -18 29.5 -24s25.834 -9 42.501 -9c18.667 0 36.5 2.66699 53.5 8s34.167 12.666 51.5 21.999l23 420h66l-29 -554
c-2.66699 -49.333 -16.834 -88.166 -42.501 -116.499s-66.5 -42.5 -122.5 -42.5h-94l-5 61h100c36 0 60.667 9.16699 74 27.5s21 43.166 23 74.499l4 65c-17.333 -8.66699 -34.666 -15.334 -51.999 -20.001s-35 -7 -53 -7c-50.667 -0 -88.834 14.833 -114.501 44.5
s-41.834 70.167 -48.501 121.5z" />
    <glyph glyph-name="z" unicode="z" horiz-adv-x="474" 
d="M59 48l259 403h-249v61h333v-49l-259 -403h272v-60h-356v48z" />
    <glyph glyph-name="braceleft" unicode="{" horiz-adv-x="353" 
d="M128 143c0 15.333 -1.1709 29.5 -3.50391 42.5s-6.66602 24 -12.999 33s-15.333 16 -27 21s-26.834 7.5 -45.501 7.5v55c18.667 0 33.834 2.5 45.501 7.5s20.834 12.167 27.501 21.5s11.167 20.5 13.5 33.5s3.5 27.5 3.5 43.5v188c0 28 2.83301 53 8.5 75
s15.5 40.833 29.5 56.5s32.833 27.667 56.5 36s53.5 12.5 89.5 12.5v-62c-25.333 0 -45.666 -2.83301 -60.999 -8.5s-27.166 -13.834 -35.499 -24.501s-13.833 -23.167 -16.5 -37.5s-4 -30.166 -4 -47.499v-188c0 -36 -5.66699 -63.5 -17 -82.5s-30 -35.833 -56 -50.5
c12.667 -7.33301 23.667 -14.833 33 -22.5s17 -16.667 23 -27s10.333 -22.166 13 -35.499s4 -29 4 -47v-175c0 -17.333 1.33301 -33.333 4 -48s8 -27.334 16 -38.001s19.667 -19 35 -25s36 -9 62 -9v-61c-35.333 0 -64.833 4.33301 -88.5 13s-42.667 20.834 -57 36.501
s-24.5 34.667 -30.5 57s-9 47.166 -9 74.499v175z" />
    <glyph glyph-name="bar" unicode="|" horiz-adv-x="269" 
d="M101 739h67v-923h-67v923z" />
    <glyph glyph-name="braceright" unicode="}" horiz-adv-x="353" 
d="M39 -152c26 0 46.6689 3 62.002 9s27.166 14.333 35.499 25s13.666 23.334 15.999 38.001s3.5 30.667 3.5 48v175c0 18 1.5 33.667 4.5 47s7.5 25.166 13.5 35.499s13.667 19.333 23 27s20.333 15.167 33 22.5c-26 14.667 -44.833 31.5 -56.5 50.5s-17.5 46.5 -17.5 82.5
v188c0 17.333 -1.33301 33.166 -4 47.499s-8 26.833 -16 37.5s-19.667 18.834 -35 24.501s-36 8.5 -62 8.5v62c36 0 65.833 -4.16699 89.5 -12.5s42.667 -20.333 57 -36s24.333 -34.5 30 -56.5s8.5 -47 8.5 -75v-188c0 -16 1.16699 -30.5 3.5 -43.5
s6.66602 -24.167 12.999 -33.5s15.333 -16.5 27 -21.5s26.834 -7.5 45.501 -7.5v-55c-18.667 0 -33.834 -2.5 -45.501 -7.5s-20.667 -12 -27 -21s-10.666 -20 -12.999 -33s-3.5 -27.167 -3.5 -42.5v-175c0 -27.333 -3 -52.166 -9 -74.499s-16 -41.333 -30 -57
s-32.833 -27.834 -56.5 -36.501s-53.5 -13 -89.5 -13v61v0z" />
    <glyph glyph-name="asciitilde" unicode="~" horiz-adv-x="608" 
d="M101 271c5.33301 7.33301 11.999 15 19.999 23s17 15.333 27 22s21.167 12.167 33.5 16.5s25.5 6.5 39.5 6.5c18.667 0 35.334 -3.16699 50.001 -9.5s28.5 -13.166 41.5 -20.499l37.5 -20.5c12 -6.33301 24.333 -9.5 37 -9.5c16 0 31.167 5.16699 45.5 15.5
s25.5 20.166 33.5 29.499l40 -43c-5.33301 -7.33301 -11.833 -15 -19.5 -23s-16.5 -15.333 -26.5 -22s-21.167 -12.167 -33.5 -16.5s-25.5 -6.5 -39.5 -6.5c-18.667 0 -35.5 3.16699 -50.5 9.5s-28.833 13.333 -41.5 21s-25 14.667 -37 21s-24.333 9.5 -37 9.5
c-8 0 -15.833 -1.5 -23.5 -4.5s-15 -6.83301 -22 -11.5s-13.333 -9.66699 -19 -15s-10.5 -10.333 -14.5 -15z" />
    <glyph glyph-name="nonbreakingspace" unicode="&#xa0;" horiz-adv-x="250" 
 />
    <glyph glyph-name="exclamdown" unicode="&#xa1;" horiz-adv-x="343" 
d="M172 511c-13.333 0 -24.833 4.66699 -34.5 14s-14.5 20.666 -14.5 33.999s4.83301 24.666 14.5 33.999s21.167 14 34.5 14s24.666 -4.66699 33.999 -14s14 -20.666 14 -33.999s-4.66699 -24.666 -14 -33.999s-20.666 -14 -33.999 -14zM139 378l65 10l10 -488h-85z" />
    <glyph glyph-name="cent" unicode="&#xa2;" horiz-adv-x="486" 
d="M64 300c0 31.333 3.83398 60.165 11.501 86.498s19 49.166 34 68.499s33.5 34.833 55.5 46.5s47.333 18.834 76 21.501v113h58v-113c21.333 -1.33301 42.5 -4 63.5 -8s42.167 -9.33301 63.5 -16l-16 -58c-22 7.33301 -44.667 13 -68 17s-47.333 6 -72 6
c-26 0 -47.667 -4.16699 -65 -12.5s-31.333 -20.166 -42 -35.499s-18.334 -33.5 -23.001 -54.5s-7 -43.833 -7 -68.5v-71c0 -25.333 2.33301 -48.666 7 -69.999s12.334 -39.666 23.001 -54.999s24.667 -27.333 42 -36s39 -13 65 -13c25.333 0 49.166 2.16699 71.499 6.5
s45.166 10.166 68.499 17.499l16 -59c-21.333 -6 -42.5 -11.333 -63.5 -16s-42.167 -7.66699 -63.5 -9v-112h-58v113c-57.333 5.33301 -101.166 28.333 -131.499 69s-45.5 92.667 -45.5 156v86z" />
    <glyph glyph-name="sterling" unicode="&#xa3;" horiz-adv-x="512" 
d="M62 55c16 24.667 29.167 50.166 39.5 76.499s15.5 53.833 15.5 82.5v90h-62v52h62v151c0 34 5 63.667 15 89s23.833 46.5 41.5 63.5s39 29.833 64 38.5s52.5 13 82.5 13c24 0 47.333 -2.33301 70 -7s45.667 -11.667 69 -21l-17 -56c-20 7.33301 -39.833 13 -59.5 17
s-39.834 6 -60.501 6c-46 0 -80.167 -12 -102.5 -36s-33.5 -63 -33.5 -117v-141h221v-52h-221v-82c0 -36 -4.66699 -66.667 -14 -92s-21.666 -48.666 -36.999 -69.999h316v-40c0 -13.333 -6.66699 -20 -20 -20h-369v55z" />
    <glyph glyph-name="currency" unicode="&#xa4;" horiz-adv-x="521" 
d="M70 129l52.0039 51.999c-18.667 28 -28 59 -28 93c0 33.333 9.33301 64 28 92l-53 54l46 45l53 -53c26.667 19.333 57.334 29 92.001 29c17.333 0 33.666 -2.66699 48.999 -8s29.666 -12.666 42.999 -21.999l54 54l45 -44l-53 -55c9.33301 -14 16.5 -28.5 21.5 -43.5
s7.5 -31.167 7.5 -48.5c0 -34 -9.66699 -64.667 -29 -92c9.33301 -8.66699 18.166 -17.5 26.499 -26.5l25.5 -26.5l-44 -45l-54 53c-28.667 -19.333 -59.334 -29 -92.001 -29c-34.667 0 -65.334 9.33301 -92.001 28l-53 -52zM261.004 168.999
c14 0 27.3311 2.66602 39.998 7.99902s23.834 12.833 33.501 22.5s17.334 20.834 23.001 33.501s8.5 26.334 8.5 41.001c0 14 -2.66699 27.5 -8 40.5s-12.833 24.5 -22.5 34.5s-21 17.833 -34 23.5s-26.833 8.5 -41.5 8.5c-14 0 -27.5 -2.83301 -40.5 -8.5
s-24.167 -13.167 -33.5 -22.5s-16.833 -20.5 -22.5 -33.5s-8.5 -26.833 -8.5 -41.5c0 -14 2.83301 -27.5 8.5 -40.5s13.167 -24.333 22.5 -34s20.5 -17.334 33.5 -23.001s26.833 -8.5 41.5 -8.5z" />
    <glyph glyph-name="yen" unicode="&#xa5;" horiz-adv-x="505" 
d="M68 193h150v110h-150v53h123l-176 342h69l168 -329l169 329h69l-178 -342h126v-53h-151v-110h151v-53h-151v-140h-69v140h-150v53z" />
    <glyph glyph-name="brokenbar" unicode="&#xa6;" horiz-adv-x="265" 
d="M99 739h67v-315h-67v315zM166 132v-317h-67v317h67z" />
    <glyph glyph-name="section" unicode="&#xa7;" horiz-adv-x="502" 
d="M77 -7c25.333 -7.33301 50.332 -13.665 74.999 -18.998s50 -8 76 -8c41.333 0 71.833 9.66699 91.5 29s29.5 45 29.5 77c0 23.333 -6.83301 42.5 -20.5 57.5s-30.5 28.167 -50.5 39.5s-42 22.166 -66 32.499s-46 22.5 -66 36.5s-36.833 31.167 -50.5 51.5
s-20.5 46.166 -20.5 77.499c0 52 17.667 92 53 120c-6 10.667 -10.833 22.334 -14.5 35.001s-5.5 26.667 -5.5 42c0 25.333 4.5 48 13.5 68s21.5 36.833 37.5 50.5s35.167 24.167 57.5 31.5s46.833 11 73.5 11c24 0 47.833 -2.66699 71.5 -8s47.167 -12.333 70.5 -21
l-16 -57c-20.667 7.33301 -41.167 13.166 -61.5 17.499s-41.166 6.5 -62.499 6.5c-36 0 -63.5 -8.5 -82.5 -25.5s-28.5 -41.5 -28.5 -73.5c0 -22 6.83301 -40 20.5 -54s30.5 -26.5 50.5 -37.5s42 -21.833 66 -32.5s46 -23.167 66 -37.5s36.833 -32 50.5 -53
s20.5 -47.5 20.5 -79.5c0 -52 -17.333 -92.667 -52 -122c5.33301 -10.667 9.83301 -22.167 13.5 -34.5s5.5 -26.166 5.5 -41.499c0 -25.333 -4.66699 -48.333 -14 -69s-22.333 -38.334 -39 -53.001s-37 -26 -61 -34s-50.333 -12 -79 -12c-28 0 -55.333 2.66699 -82 8
s-54 12.333 -82 21zM146.999 367.001c0 -22.667 7.33496 -41.167 22.002 -55.5s32.667 -27.333 54 -39s44.166 -23 68.499 -34s46.166 -24.5 65.499 -40.5c17.333 17.333 26 41.333 26 72c0 24 -7.16699 43.5 -21.5 58.5s-32 28.333 -53 40s-43.5 22.667 -67.5 33
s-45.667 22.833 -65 37.5c-19.333 -17.333 -29 -41.333 -29 -72z" />
    <glyph glyph-name="dieresis" unicode="&#xa8;" horiz-adv-x="407" 
d="M287 602c-12.667 0 -23.334 4.5 -32.001 13.5s-13 19.5 -13 31.5c0 12.667 4.33301 23.5 13 32.5s19.334 13.5 32.001 13.5c12 0 22.5 -4.5 31.5 -13.5s13.5 -19.833 13.5 -32.5c0 -12 -4.5 -22.5 -13.5 -31.5s-19.5 -13.5 -31.5 -13.5zM120 602
c-12 0 -22.5 4.5 -31.5 13.5s-13.5 19.5 -13.5 31.5c0 12.667 4.5 23.5 13.5 32.5s19.5 13.5 31.5 13.5c12.667 0 23.334 -4.5 32.001 -13.5s13 -19.833 13 -32.5c0 -12 -4.33301 -22.5 -13 -31.5s-19.334 -13.5 -32.001 -13.5z" />
    <glyph glyph-name="copyright" unicode="&#xa9;" horiz-adv-x="805" 
d="M69 343c0 47.333 7.5 91.833 22.5 133.5s36.667 78 65 109s63.166 55.333 104.499 73s88.333 26.5 141 26.5s99.667 -8.83301 141 -26.5s76.333 -42 105 -73s50.5 -67.333 65.5 -109s22.5 -86.167 22.5 -133.5c0 -48 -7.5 -92.833 -22.5 -134.5s-36.833 -78 -65.5 -109
s-63.667 -55.333 -105 -73s-88.333 -26.5 -141 -26.5s-99.667 8.83301 -141 26.5s-76.166 42 -104.499 73s-50 67.333 -65 109s-22.5 86.5 -22.5 134.5zM122 343c0 -40.667 6 -78.834 18 -114.501s29.833 -66.667 53.5 -93s52.834 -47.166 87.501 -62.499s75 -23 121 -23
s86.5 7.66699 121.5 23s64.333 36.166 88 62.499s41.5 57.333 53.5 93s18 73.834 18 114.501s-6 78.834 -18 114.501s-29.833 66.667 -53.5 93s-53 47 -88 62s-75.5 22.5 -121.5 22.5s-86.333 -7.5 -121 -22.5s-63.834 -35.667 -87.501 -62s-41.5 -57.333 -53.5 -93
s-18 -73.834 -18 -114.501zM263 400c0 40.667 12.832 72.167 38.499 94.5s58.5 33.5 98.5 33.5c18 0 35.333 -1.66699 52 -5s33.334 -8.33301 50.001 -15l-13 -48c-29.333 10 -58.333 15 -87 15c-26.667 0 -46.834 -6.66699 -60.501 -20s-20.5 -35.333 -20.5 -66v-93
c0 -30.667 6.83301 -52.667 20.5 -66s33.834 -20 60.501 -20c30 0 59 5.33301 87 16l13 -49c-32 -12.667 -66 -19 -102 -19c-40.667 0 -73.667 11 -99 33s-38 53.667 -38 95v114z" />
    <glyph glyph-name="ordfeminine" unicode="&#xaa;" horiz-adv-x="367" 
d="M163 327c-36 0 -64.332 9.83301 -84.999 29.5s-31 46.167 -31 79.5c0 38.667 14.5 66 43.5 82s66.5 24 112.5 24h60v33c0 28.667 -6 50.167 -18 64.5s-33 21.5 -63 21.5c-17.333 0 -33.666 -1.5 -48.999 -4.5s-31.333 -7.16699 -48 -12.5l-13 47
c19.333 6.66699 37.666 11.667 54.999 15s35.666 5 54.999 5c46.667 0 81.167 -12 103.5 -36s33.5 -55 33.5 -93v-246h-44l-6 35c-14 -13.333 -30 -24 -48 -32s-37.333 -12 -58 -12zM170.001 376c17.333 0 34 3.83203 50 11.499s30.333 17.167 43 28.5v82h-56
c-30 0 -54.333 -4.33301 -73 -13s-28 -25 -28 -49c0 -17.333 5.16699 -31.666 15.5 -42.999s26.5 -17 48.5 -17z" />
    <glyph glyph-name="guillemotleft" unicode="&#xab;" horiz-adv-x="542" 
d="M399 457l52 -40l-120 -147l120 -147l-52 -39l-149 186zM76 270l149 187l52 -40l-120 -147l120 -147l-52 -39z" />
    <glyph glyph-name="logicalnot" unicode="&#xac;" horiz-adv-x="582" 
d="M101 305h380v-235h-63v173h-317v62z" />
    <glyph glyph-name="sfthyphen" unicode="&#xad;" horiz-adv-x="390" 
d="M44 313h301v-60h-301v60z" />
    <glyph glyph-name="registered" unicode="&#xae;" horiz-adv-x="805" 
d="M69 343c0 47.333 7.5 91.833 22.5 133.5s36.667 78 65 109s63.166 55.333 104.499 73s88.333 26.5 141 26.5s99.667 -8.83301 141 -26.5s76.333 -42 105 -73s50.5 -67.333 65.5 -109s22.5 -86.167 22.5 -133.5c0 -48 -7.5 -92.833 -22.5 -134.5s-36.833 -78 -65.5 -109
s-63.667 -55.333 -105 -73s-88.333 -26.5 -141 -26.5s-99.667 8.83301 -141 26.5s-76.166 42 -104.499 73s-50 67.333 -65 109s-22.5 86.5 -22.5 134.5zM122 343c0 -40.667 6 -78.834 18 -114.501s29.833 -66.667 53.5 -93s52.834 -47.166 87.501 -62.499s75 -23 121 -23
s86.5 7.66699 121.5 23s64.333 36.166 88 62.499s41.5 57.333 53.5 93s18 73.834 18 114.501s-6 78.834 -18 114.501s-29.833 66.667 -53.5 93s-53 47 -88 62s-75.5 22.5 -121.5 22.5s-86.333 -7.5 -121 -22.5s-63.834 -35.667 -87.501 -62s-41.5 -57.333 -53.5 -93
s-18 -73.834 -18 -114.501zM283 503c19.333 6 39.668 11.668 61.001 17.001s42 8 62 8s37.5 -3 52.5 -9s27.667 -14.333 38 -25s18.166 -22.834 23.499 -36.501s8 -28.167 8 -43.5c0 -23.333 -6 -44.5 -18 -63.5s-29.667 -32.5 -53 -40.5l66 -147h-62l-60 137h-60v-137h-58
v340zM406.002 350.001c22.667 0 38.832 6.5 48.499 19.5s14.5 27.833 14.5 44.5c0 14.667 -4.83301 28.5 -14.5 41.5s-25.834 19.5 -48.501 19.5c-9.33301 0 -19.666 -1 -30.999 -3s-22.666 -4.66699 -33.999 -8v-114h65z" />
    <glyph glyph-name="macron" unicode="&#xaf;" horiz-adv-x="370" 
d="M74 677h221v-57h-221v57z" />
    <glyph glyph-name="degree" unicode="&#xb0;" horiz-adv-x="404" 
d="M202 480c-16.667 0 -32.167 3.16699 -46.5 9.5s-27 14.833 -38 25.5s-19.667 23.334 -26 38.001s-9.5 30 -9.5 46c0 16.667 3.16699 32.167 9.5 46.5s15 27 26 38s23.667 19.667 38 26s29.833 9.5 46.5 9.5c16 0 31.333 -3.16699 46 -9.5s27.334 -15 38.001 -26
s19.167 -23.667 25.5 -38s9.5 -29.833 9.5 -46.5c0 -16 -3.16699 -31.333 -9.5 -46s-14.833 -27.334 -25.5 -38.001s-23.334 -19.167 -38.001 -25.5s-30 -9.5 -46 -9.5zM202 530c18.667 0 34.667 6.66699 48 20s20 29.666 20 48.999c0 20 -6.66699 36.667 -20 50
s-29.333 20 -48 20c-19.333 0 -35.5 -6.66699 -48.5 -20s-19.5 -30 -19.5 -50c0 -19.333 6.5 -35.666 19.5 -48.999s29.167 -20 48.5 -20z" />
    <glyph glyph-name="plusminus" unicode="&#xb1;" horiz-adv-x="629" 
d="M94 346h189v178h63v-178h188v-63h-188v-179h-63v179h-189v63zM94 44h440v-63h-440v63z" />
    <glyph glyph-name="acute" unicode="&#xb4;" horiz-adv-x="344" 
d="M74 633l169 77l27 -59l-175 -64z" />
    <glyph glyph-name="mu" unicode="&#xb5;" horiz-adv-x="558" 
d="M149 -201h-68.001v693c0 13.333 6.66699 20 20 20h48v-336c0 -42 7.83301 -73.833 23.5 -95.5s44.834 -32.5 87.501 -32.5c25.333 0 49.5 6 72.5 18s46.167 27.333 69.5 46v400h68v-512h-54l-7 54c-25.333 -20.667 -51 -37 -77 -49s-53 -18 -81 -18
c-22.667 0 -42.5 3 -59.5 9s-31.167 14.667 -42.5 26v-223z" />
    <glyph glyph-name="paragraph" unicode="&#xb6;" horiz-adv-x="586" 
d="M243 291c-30.667 1.33301 -58.832 7.66699 -84.499 19s-47.834 26 -66.501 44s-33.167 39.167 -43.5 63.5s-15.5 50.166 -15.5 77.499c0 28 5.5 54.167 16.5 78.5s26 45.833 45 64.5s41.5 33.334 67.5 44.001s53.667 16 83 16h255v-807h-66v741h-125v-741h-66v400z" />
    <glyph glyph-name="periodcentered" unicode="&#xb7;" horiz-adv-x="237" 
d="M118 259c-12 0 -22.333 4.16699 -31 12.5s-13 18.833 -13 31.5s4.33301 23.334 13 32.001s19 13 31 13s22.333 -4.33301 31 -13s13 -19.334 13 -32.001s-4.33301 -23.167 -13 -31.5s-19 -12.5 -31 -12.5z" />
    <glyph glyph-name="cedilla" unicode="&#xb8;" horiz-adv-x="245" 
d="M201 0l0.000976562 -105c0 -20.667 -3.16699 -38 -9.5 -52s-14.666 -25.167 -24.999 -33.5s-21.833 -14.166 -34.5 -17.499s-25.334 -5 -38.001 -5c-16.667 0 -33.334 2 -50.001 6l7 51c11.333 -2.66699 24 -4 38 -4c19.333 0 33 5.66699 41 17s12 27.666 12 48.999v94
h59z" />
    <glyph glyph-name="ordmasculine" unicode="&#xba;" horiz-adv-x="392" 
d="M196 327c-46.667 0 -83.167 14.333 -109.5 43s-39.5 68 -39.5 118v62c0 50 13.167 89.333 39.5 118s62.833 43 109.5 43c46 0 82.167 -14.333 108.5 -43s39.5 -68 39.5 -118v-62c0 -50 -13 -89.333 -39 -118s-62.333 -43 -109 -43zM196 376
c33.333 0 56.833 10.667 70.5 32s20.5 49.666 20.5 84.999v51c0 36.667 -6.83301 65.334 -20.5 86.001s-37.167 31 -70.5 31c-34 0 -57.667 -10.333 -71 -31s-20 -49.334 -20 -86.001v-51c0 -35.333 6.83301 -63.666 20.5 -84.999s37.167 -32 70.5 -32z" />
    <glyph glyph-name="guillemotright" unicode="&#xbb;" horiz-adv-x="540" 
d="M383 270l-120 147l52 40l149 -187l-149 -186l-52 39zM211 270l-120 147l52 40l149 -187l-149 -186l-52 39z" />
    <glyph glyph-name="questiondown" unicode="&#xbf;" horiz-adv-x="455" 
d="M245 511c-13.333 0 -24.666 4.66699 -33.999 14s-14 20.666 -14 33.999s4.66699 24.666 14 33.999s20.666 14 33.999 14s24.666 -4.66699 33.999 -14s14 -20.666 14 -33.999s-4.66699 -24.666 -14 -33.999s-20.666 -14 -33.999 -14zM70 44
c0 21.333 3.50195 39.998 10.502 55.998s15.833 30.833 26.5 44.5l34 41.5c12 14 23.333 30 34 48s19.5 39 26.5 63s10.5 53.333 10.5 88l68 7c0 -38.667 -3.5 -71.5 -10.5 -98.5s-15.833 -50.333 -26.5 -70s-22.167 -36.5 -34.5 -50.5l-34.5 -40.5
c-10.667 -13 -19.5 -26.333 -26.5 -40s-10.5 -29.5 -10.5 -47.5c0 -24.667 8.66699 -46.5 26 -65.5s42.333 -28.5 75 -28.5c21.333 0 41.666 3.33301 60.999 10s38.666 15.667 57.999 27l28 -56c-48 -29.333 -97 -44 -147 -44c-27.333 0 -51.5 4.33301 -72.5 13
s-38.5 20.334 -52.5 35.001s-24.667 31.334 -32 50.001s-11 38 -11 58z" />
    <glyph glyph-name="Agrave" unicode="&#xc0;" horiz-adv-x="649" 
d="M253 881l169 -77l-21 -46l-175 64zM202 601c8.66699 34 23.668 60.833 45.001 80.5s47 29.5 77 29.5s55.667 -10 77 -30s36.666 -47 45.999 -81l157 -600h-69l-54 207h-314l-53 -207h-69zM465.001 267l-82.999 321.999c-4.66699 17.333 -11.167 31.333 -19.5 42
s-21.166 16 -38.499 16c-16.667 0 -29.334 -5.16699 -38.001 -15.5s-15.334 -24.166 -20.001 -41.499l-83 -323h282z" />
    <glyph glyph-name="Aacute" unicode="&#xc1;" horiz-adv-x="649" 
d="M226 804l169 77l27 -59l-175 -64zM202 601c8.66699 34 23.668 60.833 45.001 80.5s47 29.5 77 29.5s55.667 -10 77 -30s36.666 -47 45.999 -81l157 -600h-69l-54 207h-314l-53 -207h-69zM465.001 267l-82.999 321.999c-4.66699 17.333 -11.167 31.333 -19.5 42
s-21.166 16 -38.499 16c-16.667 0 -29.334 -5.16699 -38.001 -15.5s-15.334 -24.166 -20.001 -41.499l-83 -323h282z" />
    <glyph glyph-name="Acircumflex" unicode="&#xc2;" horiz-adv-x="649" 
d="M195 802l129 80l129 -80l-34 -45l-95 61l-95 -61zM202 601c8.66699 34 23.668 60.833 45.001 80.5s47 29.5 77 29.5s55.667 -10 77 -30s36.666 -47 45.999 -81l157 -600h-69l-54 207h-314l-53 -207h-69zM465.001 267l-82.999 321.999
c-4.66699 17.333 -11.167 31.333 -19.5 42s-21.166 16 -38.499 16c-16.667 0 -29.334 -5.16699 -38.001 -15.5s-15.334 -24.166 -20.001 -41.499l-83 -323h282z" />
    <glyph glyph-name="Atilde" unicode="&#xc3;" horiz-adv-x="649" 
d="M194 814c13.333 19.333 26.167 32.666 38.5 39.999s26.833 11 43.5 11c10.667 0 20.5 -2 29.5 -6s17.333 -8.5 25 -13.5s15 -9.5 22 -13.5s13.833 -6 20.5 -6c10 0 19 2.5 27 7.5s16.667 13.167 26 24.5l29 -35c-14 -19.333 -27.167 -32.666 -39.5 -39.999
s-26.5 -11 -42.5 -11c-10.667 0 -20.5 2 -29.5 6s-17.333 8.5 -25 13.5s-15 9.5 -22 13.5s-13.833 6 -20.5 6c-10 0 -19 -2.33301 -27 -7s-16.667 -12.667 -26 -24zM202.001 601c8.66699 34 23.668 60.833 45.001 80.5s47 29.5 77 29.5s55.667 -10 77 -30
s36.666 -47 45.999 -81l157 -600h-69l-54 207h-314l-53 -207h-69zM465.002 267l-82.999 321.999c-4.66699 17.333 -11.167 31.333 -19.5 42s-21.166 16 -38.499 16c-16.667 0 -29.334 -5.16699 -38.001 -15.5s-15.334 -24.166 -20.001 -41.499l-83 -323h282z" />
    <glyph glyph-name="Adieresis" unicode="&#xc4;" horiz-adv-x="649" 
d="M408 773c-12.667 0 -23.5 4.5 -32.5 13.5s-13.5 19.5 -13.5 31.5c0 12.667 4.5 23.5 13.5 32.5s19.833 13.5 32.5 13.5c11.333 0 21.5 -4.5 30.5 -13.5s13.5 -19.833 13.5 -32.5c0 -12 -4.5 -22.5 -13.5 -31.5s-19.167 -13.5 -30.5 -13.5zM241 773
c-12.667 0 -23.334 4.5 -32.001 13.5s-13 19.5 -13 31.5c0 12.667 4.33301 23.5 13 32.5s19.334 13.5 32.001 13.5c12 0 22.333 -4.5 31 -13.5s13 -19.833 13 -32.5c0 -12 -4.33301 -22.5 -13 -31.5s-19 -13.5 -31 -13.5zM202 601c8.66699 34 23.668 60.833 45.001 80.5
s47 29.5 77 29.5s55.667 -10 77 -30s36.666 -47 45.999 -81l157 -600h-69l-54 207h-314l-53 -207h-69zM465.001 267l-82.999 321.999c-4.66699 17.333 -11.167 31.333 -19.5 42s-21.166 16 -38.499 16c-16.667 0 -29.334 -5.16699 -38.001 -15.5
s-15.334 -24.166 -20.001 -41.499l-83 -323h282z" />
    <glyph glyph-name="Aring" unicode="&#xc5;" horiz-adv-x="649" 
d="M324 734c-22.667 0 -42 7.16699 -58 21.5s-24 32.166 -24 53.499c0 22.667 8 41.167 24 55.5s35.333 21.5 58 21.5c23.333 0 43 -7.16699 59 -21.5s24 -32.833 24 -55.5c0 -21.333 -8 -39.166 -24 -53.499s-35.667 -21.5 -59 -21.5zM323 781
c9.33301 0 17.001 2.83398 23.001 8.50098s9 12.167 9 19.5c0 9.33301 -2.83301 16.666 -8.5 21.999s-12.834 8 -21.501 8c-9.33301 0 -17 -3 -23 -9s-9 -13 -9 -21c0 -7.33301 3 -13.833 9 -19.5s13 -8.5 21 -8.5zM202.001 601.001c8.66699 34 23.668 60.833 45.001 80.5
s47 29.5 77 29.5s55.667 -10 77 -30s36.666 -47 45.999 -81l157 -600h-69l-54 207h-314l-53 -207h-69zM465.002 267.001l-82.999 321.999c-4.66699 17.333 -11.167 31.333 -19.5 42s-21.166 16 -38.499 16c-16.667 0 -29.334 -5.16699 -38.001 -15.5
s-15.334 -24.166 -20.001 -41.499l-83 -323h282z" />
    <glyph glyph-name="AE" unicode="&#xc6;" horiz-adv-x="928" 
d="M311 593c14.667 32.667 33.998 58.335 57.998 77.002s53 28 87 28h406v-62h-303v-247h273v-62h-273v-145c0 -16.667 1.83301 -32.334 5.5 -47.001s10.334 -27.334 20.001 -38.001s22.834 -19.167 39.501 -25.5s38 -9.5 64 -9.5h179v-49c0 -3.33301 -1.5 -6.33301 -4.5 -9
s-6.16699 -4 -9.5 -4h-166c-33.333 -0 -62.333 4.33301 -87 13s-45 21 -61 37s-28 35 -36 57s-12 46.333 -12 73v27h-279l-92 -207h-75zM490.998 267.001l-0.00195312 368h-32c-21.333 0 -38.666 -6 -51.999 -18s-24.666 -28 -33.999 -48l-135 -302h253z" />
    <glyph glyph-name="Ccedilla" unicode="&#xc7;" horiz-adv-x="570" 
d="M69 451c0 83.333 21.335 147.5 64.002 192.5s104 67.5 184 67.5c34 0 66.333 -2.66699 97 -8s63 -12.666 97 -21.999l-14 -60c-28.667 8 -57.334 14.667 -86.001 20s-58.667 8 -90 8c-35.333 0 -64.666 -5.5 -87.999 -16.5s-41.833 -26 -55.5 -45
s-23.167 -41.167 -28.5 -66.5s-8 -52.333 -8 -81v-183c0 -28.667 2.66699 -55.5 8 -80.5s14.833 -47 28.5 -66s32.167 -34 55.5 -45s52.666 -16.5 87.999 -16.5c32 0 62 2.66699 90 8s56.667 11.666 86 18.999l14 -59c-25.333 -7.33301 -49.833 -13.333 -73.5 -18
s-48.5 -8 -74.5 -10v-94c0 -20.667 -3.16699 -38 -9.5 -52s-14.5 -25.167 -24.5 -33.5s-21.333 -14.166 -34 -17.499s-25.334 -5 -38.001 -5c-17.333 0 -34 2 -50 6l6 51c11.333 -2.66699 24 -4 38 -4c19.333 0 33 5.66699 41 17s12 27.666 12 48.999v81
c-76 2.66699 -134.167 26 -174.5 70s-60.5 107 -60.5 189v205z" />
    <glyph glyph-name="Egrave" unicode="&#xc8;" horiz-adv-x="517" 
d="M192 822l26 59l169 -77l-21 -46zM78 525c0 52 15.833 93.833 47.5 125.5s80.5 47.5 146.5 47.5h180v-62h-180c-24 0 -44.167 -2.66699 -60.5 -8s-29.166 -13 -38.499 -23s-16 -22 -20 -36s-6 -29.333 -6 -46v-134h275v-62h-275v-152c0 -17.333 2 -32.833 6 -46.5
s10.667 -25.5 20 -35.5s22.166 -17.667 38.499 -23s36.5 -8 60.5 -8h184v-42c0 -13.333 -6.66699 -20 -20 -20h-164c-65.333 -0 -114 15.833 -146 47.5s-48 73.167 -48 124.5v353z" />
    <glyph glyph-name="Eacute" unicode="&#xc9;" horiz-adv-x="517" 
d="M187 804l169 77l26 -59l-174 -64zM78 525c0 52 15.833 93.833 47.5 125.5s80.5 47.5 146.5 47.5h180v-62h-180c-24 0 -44.167 -2.66699 -60.5 -8s-29.166 -13 -38.499 -23s-16 -22 -20 -36s-6 -29.333 -6 -46v-134h275v-62h-275v-152c0 -17.333 2 -32.833 6 -46.5
s10.667 -25.5 20 -35.5s22.166 -17.667 38.499 -23s36.5 -8 60.5 -8h184v-42c0 -13.333 -6.66699 -20 -20 -20h-164c-65.333 -0 -114 15.833 -146 47.5s-48 73.167 -48 124.5v353z" />
    <glyph glyph-name="Ecircumflex" unicode="&#xca;" horiz-adv-x="517" 
d="M159 802l129 80l129 -80l-35 -45l-94 61l-95 -61zM78 525c0 52 15.833 93.833 47.5 125.5s80.5 47.5 146.5 47.5h180v-62h-180c-24 0 -44.167 -2.66699 -60.5 -8s-29.166 -13 -38.499 -23s-16 -22 -20 -36s-6 -29.333 -6 -46v-134h275v-62h-275v-152
c0 -17.333 2 -32.833 6 -46.5s10.667 -25.5 20 -35.5s22.166 -17.667 38.499 -23s36.5 -8 60.5 -8h184v-42c0 -13.333 -6.66699 -20 -20 -20h-164c-65.333 -0 -114 15.833 -146 47.5s-48 73.167 -48 124.5v353z" />
    <glyph glyph-name="Edieresis" unicode="&#xcb;" horiz-adv-x="517" 
d="M363 773c-13.333 0 -24.333 4.5 -33 13.5s-13 19.5 -13 31.5c0 12.667 4.33301 23.5 13 32.5s19.667 13.5 33 13.5c11.333 0 21.5 -4.5 30.5 -13.5s13.5 -19.833 13.5 -32.5c0 -12 -4.5 -22.5 -13.5 -31.5s-19.167 -13.5 -30.5 -13.5zM195 773
c-12 0 -22.5 4.5 -31.5 13.5s-13.5 19.5 -13.5 31.5c0 12.667 4.5 23.5 13.5 32.5s19.5 13.5 31.5 13.5c12.667 0 23.334 -4.5 32.001 -13.5s13 -19.833 13 -32.5c0 -12 -4.33301 -22.5 -13 -31.5s-19.334 -13.5 -32.001 -13.5zM78 525c0 52 15.833 93.833 47.5 125.5
s80.5 47.5 146.5 47.5h180v-62h-180c-24 0 -44.167 -2.66699 -60.5 -8s-29.166 -13 -38.499 -23s-16 -22 -20 -36s-6 -29.333 -6 -46v-134h275v-62h-275v-152c0 -17.333 2 -32.833 6 -46.5s10.667 -25.5 20 -35.5s22.166 -17.667 38.499 -23s36.5 -8 60.5 -8h184v-42
c0 -13.333 -6.66699 -20 -20 -20h-164c-65.333 -0 -114 15.833 -146 47.5s-48 73.167 -48 124.5v353z" />
    <glyph glyph-name="Igrave" unicode="&#xcc;" horiz-adv-x="265" 
d="M35 822l27 59l169 -77l-21 -46zM98 698h69v-678c0 -13.333 -6.66699 -20 -20 -20h-49v698z" />
    <glyph glyph-name="Iacute" unicode="&#xcd;" horiz-adv-x="265" 
d="M35 804l169 77l27 -59l-175 -64zM98 698h69v-678c0 -13.333 -6.66699 -20 -20 -20h-49v698z" />
    <glyph glyph-name="Icircumflex" unicode="&#xce;" horiz-adv-x="265" 
d="M4 802l129 80l129 -80l-34 -45l-95 61l-95 -61zM98 698h69v-678c0 -13.333 -6.66699 -20 -20 -20h-49v698z" />
    <glyph glyph-name="Idieresis" unicode="&#xcf;" horiz-adv-x="265" 
d="M217 773c-12.667 0 -23.5 4.5 -32.5 13.5s-13.5 19.5 -13.5 31.5c0 12.667 4.5 23.5 13.5 32.5s19.833 13.5 32.5 13.5c11.333 0 21.5 -4.5 30.5 -13.5s13.5 -19.833 13.5 -32.5c0 -12 -4.5 -22.5 -13.5 -31.5s-19.167 -13.5 -30.5 -13.5zM50 773
c-12.667 0 -23.334 4.5 -32.001 13.5s-13 19.5 -13 31.5c0 12.667 4.33301 23.5 13 32.5s19.334 13.5 32.001 13.5c12 0 22.333 -4.5 31 -13.5s13 -19.833 13 -32.5c0 -12 -4.33301 -22.5 -13 -31.5s-19 -13.5 -31 -13.5zM98 698h69v-678c0 -13.333 -6.66699 -20 -20 -20
h-49v698z" />
    <glyph glyph-name="Eth" unicode="&#xd0;" horiz-adv-x="653" 
d="M98 322l-64 0.000976562v54h64v322h235c85.333 0 148.333 -19.833 189 -59.5s61 -102.167 61 -187.5v-205c0 -84.667 -20.333 -146.834 -61 -186.501s-103.667 -59.5 -189 -59.5h-235v322zM332 62.001c36.667 0 66.667 4.66699 90 14s41.666 22.5 54.999 39.5
s22.5 37.667 27.5 62s7.5 51.5 7.5 81.5v181c0 30 -2.5 57 -7.5 81s-14.167 44.5 -27.5 61.5s-31.666 30.167 -54.999 39.5s-53.333 14 -90 14h-165v-260h160v-54h-160v-260h165z" />
    <glyph glyph-name="Ntilde" unicode="&#xd1;" horiz-adv-x="664" 
d="M201 814c13.333 19.333 26.333 32.666 39 39.999s27 11 43 11c10.667 0 20.5 -2 29.5 -6s17.5 -8.5 25.5 -13.5l22.5 -13.5c7 -4 13.833 -6 20.5 -6c9.33301 0 18 2.5 26 7.5s16.667 13.167 26 24.5l29 -35c-13.333 -19.333 -26.333 -32.666 -39 -39.999
s-26.667 -11 -42 -11c-10.667 0 -20.5 2 -29.5 6s-17.5 8.5 -25.5 13.5l-22.5 13.5c-7 4 -13.833 6 -20.5 6c-10 0 -19 -2.33301 -27 -7s-16.667 -12.667 -26 -24zM98 698l66 0.000976562l337 -575c-1.33301 21.333 -2.33301 42.666 -3 63.999s-1 40.666 -1 57.999v453h69
v-698h-66l-337 574c1.33301 -21.333 2.33301 -42.666 3 -63.999s1 -40.333 1 -57v-453h-69v698z" />
    <glyph glyph-name="Ograve" unicode="&#xd2;" 
d="M259 881l168 -77l-20 -46l-175 64zM69 429c0 42 6 80.333 18 115s29.167 64.334 51.5 89.001s49.666 43.834 81.999 57.501s68.833 20.5 109.5 20.5s77.167 -6.83301 109.5 -20.5s59.666 -32.834 81.999 -57.501s39.5 -54.334 51.5 -89.001s18 -73 18 -115v-159
c0 -43.333 -6 -82.5 -18 -117.5s-29.167 -64.667 -51.5 -89s-49.666 -43.166 -81.999 -56.499s-68.833 -20 -109.5 -20s-77.167 6.66699 -109.5 20s-59.666 32.166 -81.999 56.499s-39.5 54 -51.5 89s-18 74.167 -18 117.5v159zM141 280c0 -30.667 3.16699 -60 9.5 -88
s16.666 -52.5 30.999 -73.5s33.666 -37.833 57.999 -50.5s54.5 -19 90.5 -19s66.167 6.33301 90.5 19s43.666 29.5 57.999 50.5s24.666 45.5 30.999 73.5s9.5 57.333 9.5 88v138c0 30.667 -3.16699 59.834 -9.5 87.501s-16.666 52.167 -30.999 73.5
s-33.666 38.333 -57.999 51s-54.5 19 -90.5 19s-66.167 -6.33301 -90.5 -19s-43.666 -29.667 -57.999 -51s-24.666 -45.833 -30.999 -73.5s-9.5 -56.834 -9.5 -87.501v-138z" />
    <glyph glyph-name="Oacute" unicode="&#xd3;" 
d="M232 804l169 77l26 -59l-174 -64zM69 429c0 42 6 80.333 18 115s29.167 64.334 51.5 89.001s49.666 43.834 81.999 57.501s68.833 20.5 109.5 20.5s77.167 -6.83301 109.5 -20.5s59.666 -32.834 81.999 -57.501s39.5 -54.334 51.5 -89.001s18 -73 18 -115v-159
c0 -43.333 -6 -82.5 -18 -117.5s-29.167 -64.667 -51.5 -89s-49.666 -43.166 -81.999 -56.499s-68.833 -20 -109.5 -20s-77.167 6.66699 -109.5 20s-59.666 32.166 -81.999 56.499s-39.5 54 -51.5 89s-18 74.167 -18 117.5v159zM141 280c0 -30.667 3.16699 -60 9.5 -88
s16.666 -52.5 30.999 -73.5s33.666 -37.833 57.999 -50.5s54.5 -19 90.5 -19s66.167 6.33301 90.5 19s43.666 29.5 57.999 50.5s24.666 45.5 30.999 73.5s9.5 57.333 9.5 88v138c0 30.667 -3.16699 59.834 -9.5 87.501s-16.666 52.167 -30.999 73.5
s-33.666 38.333 -57.999 51s-54.5 19 -90.5 19s-66.167 -6.33301 -90.5 -19s-43.666 -29.667 -57.999 -51s-24.666 -45.833 -30.999 -73.5s-9.5 -56.834 -9.5 -87.501v-138z" />
    <glyph glyph-name="Ocircumflex" unicode="&#xd4;" 
d="M201 802l129 80l129 -80l-34 -45l-95 61l-95 -61zM69 429c0 42 6 80.333 18 115s29.167 64.334 51.5 89.001s49.666 43.834 81.999 57.501s68.833 20.5 109.5 20.5s77.167 -6.83301 109.5 -20.5s59.666 -32.834 81.999 -57.501s39.5 -54.334 51.5 -89.001s18 -73 18 -115
v-159c0 -43.333 -6 -82.5 -18 -117.5s-29.167 -64.667 -51.5 -89s-49.666 -43.166 -81.999 -56.499s-68.833 -20 -109.5 -20s-77.167 6.66699 -109.5 20s-59.666 32.166 -81.999 56.499s-39.5 54 -51.5 89s-18 74.167 -18 117.5v159zM141 280c0 -30.667 3.16699 -60 9.5 -88
s16.666 -52.5 30.999 -73.5s33.666 -37.833 57.999 -50.5s54.5 -19 90.5 -19s66.167 6.33301 90.5 19s43.666 29.5 57.999 50.5s24.666 45.5 30.999 73.5s9.5 57.333 9.5 88v138c0 30.667 -3.16699 59.834 -9.5 87.501s-16.666 52.167 -30.999 73.5
s-33.666 38.333 -57.999 51s-54.5 19 -90.5 19s-66.167 -6.33301 -90.5 -19s-43.666 -29.667 -57.999 -51s-24.666 -45.833 -30.999 -73.5s-9.5 -56.834 -9.5 -87.501v-138z" />
    <glyph glyph-name="Otilde" unicode="&#xd5;" 
d="M199 814c13.333 19.333 26.167 32.666 38.5 39.999s26.833 11 43.5 11c10.667 0 20.5 -2 29.5 -6s17.333 -8.5 25 -13.5s15 -9.5 22 -13.5s13.833 -6 20.5 -6c10 0 19 2.5 27 7.5s16.667 13.167 26 24.5l29 -35c-14 -19.333 -27.167 -32.666 -39.5 -39.999
s-26.5 -11 -42.5 -11c-10.667 0 -20.5 2 -29.5 6s-17.333 8.5 -25 13.5s-15 9.5 -22 13.5s-13.833 6 -20.5 6c-10 0 -19 -2.33301 -27 -7s-16.667 -12.667 -26 -24zM69.001 429c0 42 6 80.333 18 115s29.167 64.334 51.5 89.001s49.666 43.834 81.999 57.501
s68.833 20.5 109.5 20.5s77.167 -6.83301 109.5 -20.5s59.666 -32.834 81.999 -57.501s39.5 -54.334 51.5 -89.001s18 -73 18 -115v-159c0 -43.333 -6 -82.5 -18 -117.5s-29.167 -64.667 -51.5 -89s-49.666 -43.166 -81.999 -56.499s-68.833 -20 -109.5 -20
s-77.167 6.66699 -109.5 20s-59.666 32.166 -81.999 56.499s-39.5 54 -51.5 89s-18 74.167 -18 117.5v159zM141.001 280c0 -30.667 3.16699 -60 9.5 -88s16.666 -52.5 30.999 -73.5s33.666 -37.833 57.999 -50.5s54.5 -19 90.5 -19s66.167 6.33301 90.5 19
s43.666 29.5 57.999 50.5s24.666 45.5 30.999 73.5s9.5 57.333 9.5 88v138c0 30.667 -3.16699 59.834 -9.5 87.501s-16.666 52.167 -30.999 73.5s-33.666 38.333 -57.999 51s-54.5 19 -90.5 19s-66.167 -6.33301 -90.5 -19s-43.666 -29.667 -57.999 -51
s-24.666 -45.833 -30.999 -73.5s-9.5 -56.834 -9.5 -87.501v-138z" />
    <glyph glyph-name="Odieresis" unicode="&#xd6;" 
d="M414 773c-12.667 0 -23.5 4.5 -32.5 13.5s-13.5 19.5 -13.5 31.5c0 12.667 4.5 23.5 13.5 32.5s19.833 13.5 32.5 13.5c11.333 0 21.5 -4.5 30.5 -13.5s13.5 -19.833 13.5 -32.5c0 -12 -4.5 -22.5 -13.5 -31.5s-19.167 -13.5 -30.5 -13.5zM247 773
c-12.667 0 -23.334 4.5 -32.001 13.5s-13 19.5 -13 31.5c0 12.667 4.33301 23.5 13 32.5s19.334 13.5 32.001 13.5c12 0 22.333 -4.5 31 -13.5s13 -19.833 13 -32.5c0 -12 -4.33301 -22.5 -13 -31.5s-19 -13.5 -31 -13.5zM69 429c0 42 6 80.333 18 115
s29.167 64.334 51.5 89.001s49.666 43.834 81.999 57.501s68.833 20.5 109.5 20.5s77.167 -6.83301 109.5 -20.5s59.666 -32.834 81.999 -57.501s39.5 -54.334 51.5 -89.001s18 -73 18 -115v-159c0 -43.333 -6 -82.5 -18 -117.5s-29.167 -64.667 -51.5 -89
s-49.666 -43.166 -81.999 -56.499s-68.833 -20 -109.5 -20s-77.167 6.66699 -109.5 20s-59.666 32.166 -81.999 56.499s-39.5 54 -51.5 89s-18 74.167 -18 117.5v159zM141 280c0 -30.667 3.16699 -60 9.5 -88s16.666 -52.5 30.999 -73.5s33.666 -37.833 57.999 -50.5
s54.5 -19 90.5 -19s66.167 6.33301 90.5 19s43.666 29.5 57.999 50.5s24.666 45.5 30.999 73.5s9.5 57.333 9.5 88v138c0 30.667 -3.16699 59.834 -9.5 87.501s-16.666 52.167 -30.999 73.5s-33.666 38.333 -57.999 51s-54.5 19 -90.5 19s-66.167 -6.33301 -90.5 -19
s-43.666 -29.667 -57.999 -51s-24.666 -45.833 -30.999 -73.5s-9.5 -56.834 -9.5 -87.501v-138z" />
    <glyph glyph-name="multiply" unicode="&#xd7;" horiz-adv-x="555" 
d="M99 171l133 133l-133 133l45 45l133 -133l134 134l45 -45l-135 -134l135 -134l-45 -44l-134 133l-133 -133z" />
    <glyph glyph-name="Oslash" unicode="&#xd8;" 
d="M160 42c-29.333 25.333 -51.8311 57.1631 -67.498 95.4961s-23.5 82.5 -23.5 132.5v159c0 42 6 80.333 18 115s29.167 64.334 51.5 89.001s49.666 43.834 81.999 57.501s68.833 20.5 109.5 20.5c22 0 42.667 -2.16699 62 -6.5s37.666 -10.166 54.999 -17.499l41 91
l51 -22l-44 -98c31.333 -25.333 55.166 -57.333 71.499 -96s24.5 -83 24.5 -133v-159c0 -43.333 -6 -82.5 -18 -117.5s-29.167 -64.667 -51.5 -89s-49.666 -43.166 -81.999 -56.499s-68.833 -20 -109.5 -20c-45.333 0 -86 8.66699 -122 26l-41 -94l-52 23zM421.002 627.997
c-12 6.66699 -25.6689 11.834 -41.002 15.501s-32 5.5 -50 5.5c-36 0 -66.167 -6.33301 -90.5 -19s-43.666 -29.667 -57.999 -51s-24.666 -45.833 -30.999 -73.5s-9.5 -56.834 -9.5 -87.501v-138c0 -33.333 3.66699 -64.5 11 -93.5s20 -54.167 38 -75.5zM234 70.9971
c13.333 -7.33301 27.834 -12.833 43.501 -16.5s33.167 -5.5 52.5 -5.5c36 0 66.167 6.33301 90.5 19s43.666 29.5 57.999 50.5s24.666 45.5 30.999 73.5s9.5 57.333 9.5 88v138c0 34 -4.16699 66 -12.5 96s-22.166 55.667 -41.499 77z" />
    <glyph glyph-name="Ugrave" unicode="&#xd9;" horiz-adv-x="662" 
d="M259 881l169 -77l-21 -46l-174 64zM83 698h69v-463c0 -24 3.5 -47.167 10.5 -69.5s17.667 -42.166 32 -59.499s32.833 -31.166 55.5 -41.499s49.667 -15.5 81 -15.5c30.667 0 57.167 5.16699 79.5 15.5s40.833 24.166 55.5 41.499s25.5 37.166 32.5 59.499
s10.5 45.5 10.5 69.5v463h70v-445c0 -85.333 -21.333 -151 -64 -197s-104 -69 -184 -69c-78.667 0 -139.667 23 -183 69s-65 111.667 -65 197v445z" />
    <glyph glyph-name="Uacute" unicode="&#xda;" horiz-adv-x="662" 
d="M233 804l169 77l26 -59l-174 -64zM83 698h69v-463c0 -24 3.5 -47.167 10.5 -69.5s17.667 -42.166 32 -59.499s32.833 -31.166 55.5 -41.499s49.667 -15.5 81 -15.5c30.667 0 57.167 5.16699 79.5 15.5s40.833 24.166 55.5 41.499s25.5 37.166 32.5 59.499
s10.5 45.5 10.5 69.5v463h70v-445c0 -85.333 -21.333 -151 -64 -197s-104 -69 -184 -69c-78.667 0 -139.667 23 -183 69s-65 111.667 -65 197v445z" />
    <glyph glyph-name="Ucircumflex" unicode="&#xdb;" horiz-adv-x="662" 
d="M201 802l129 80l129 -80l-34 -45l-95 61l-94 -61zM83 698h69v-463c0 -24 3.5 -47.167 10.5 -69.5s17.667 -42.166 32 -59.499s32.833 -31.166 55.5 -41.499s49.667 -15.5 81 -15.5c30.667 0 57.167 5.16699 79.5 15.5s40.833 24.166 55.5 41.499s25.5 37.166 32.5 59.499
s10.5 45.5 10.5 69.5v463h70v-445c0 -85.333 -21.333 -151 -64 -197s-104 -69 -184 -69c-78.667 0 -139.667 23 -183 69s-65 111.667 -65 197v445z" />
    <glyph glyph-name="Udieresis" unicode="&#xdc;" horiz-adv-x="662" 
d="M414 773c-12.667 0 -23.334 4.5 -32.001 13.5s-13 19.5 -13 31.5c0 12.667 4.33301 23.5 13 32.5s19.334 13.5 32.001 13.5c12 0 22.5 -4.5 31.5 -13.5s13.5 -19.833 13.5 -32.5c0 -12 -4.5 -22.5 -13.5 -31.5s-19.5 -13.5 -31.5 -13.5zM247 773
c-12 0 -22.5 4.5 -31.5 13.5s-13.5 19.5 -13.5 31.5c0 12.667 4.5 23.5 13.5 32.5s19.5 13.5 31.5 13.5c12.667 0 23.334 -4.5 32.001 -13.5s13 -19.833 13 -32.5c0 -12 -4.33301 -22.5 -13 -31.5s-19.334 -13.5 -32.001 -13.5zM83 698h69v-463
c0 -24 3.5 -47.167 10.5 -69.5s17.667 -42.166 32 -59.499s32.833 -31.166 55.5 -41.499s49.667 -15.5 81 -15.5c30.667 0 57.167 5.16699 79.5 15.5s40.833 24.166 55.5 41.499s25.5 37.166 32.5 59.499s10.5 45.5 10.5 69.5v463h70v-445c0 -85.333 -21.333 -151 -64 -197
s-104 -69 -184 -69c-78.667 0 -139.667 23 -183 69s-65 111.667 -65 197v445z" />
    <glyph glyph-name="Yacute" unicode="&#xdd;" horiz-adv-x="574" 
d="M189 804l169 77l26 -59l-174 -64zM252 292c-28 3.33301 -51.668 10.998 -71.001 22.998s-35.333 26.833 -48 44.5s-22.667 37.5 -30 59.5s-13.333 44.667 -18 68l-40 211h68l39 -200c4 -18 8.5 -35.833 13.5 -53.5s12.333 -33.5 22 -47.5s22.334 -25.167 38.001 -33.5
s36.167 -12.5 61.5 -12.5s46 4.16699 62 12.5s28.833 19.333 38.5 33s17 29.334 22 47.001s9.16699 35.834 12.5 54.501l38 200h69l-40 -211c-4.66699 -23.333 -10.667 -46 -18 -68s-17.5 -41.833 -30.5 -59.5s-29.167 -32.5 -48.5 -44.5s-43 -19.667 -71 -23v-292h-69v292z
" />
    <glyph glyph-name="Thorn" unicode="&#xde;" horiz-adv-x="566" 
d="M98 698l69 -0.00292969v-122h119c36.667 0 69.167 -5.66699 97.5 -17s52.166 -26.833 71.499 -46.5s33.833 -42.5 43.5 -68.5s14.5 -53.667 14.5 -83s-4.83301 -57.166 -14.5 -83.499s-24.167 -49.166 -43.5 -68.499s-43.166 -34.666 -71.499 -45.999
s-60.833 -17 -97.5 -17h-119v-146h-69v698zM284 208.997c28.667 0 52.834 4.50195 72.501 13.502s35.834 20.667 48.501 35s21.834 30.666 27.501 48.999s8.5 36.5 8.5 54.5c0 18.667 -2.83301 37.167 -8.5 55.5s-14.834 34.666 -27.501 48.999s-28.834 25.833 -48.501 34.5
s-43.834 13 -72.501 13h-117v-304h117z" />
    <glyph glyph-name="germandbls" unicode="&#xdf;" horiz-adv-x="575" 
d="M98 458l-83.9971 5.99902v48h84v67c0 50.667 15 90 45 118s70 42 120 42c22.667 0 44.167 -3.5 64.5 -10.5s37.833 -17 52.5 -30s26.334 -28.667 35.001 -47s13 -38.833 13 -61.5c0 -19.333 -2.83301 -36.166 -8.5 -50.499s-12.834 -27.333 -21.501 -39
s-17.834 -22.167 -27.501 -31.5s-18.834 -18.666 -27.501 -27.999s-15.834 -19.333 -21.501 -30s-8.5 -23 -8.5 -37c0 -18 5.16699 -32.667 15.5 -44s23.333 -21.5 39 -30.5s32.5 -17.5 50.5 -25.5s34.833 -17.833 50.5 -29.5s28.667 -26 39 -43s15.5 -38.833 15.5 -65.5
c0 -45.333 -15.5 -81.5 -46.5 -108.5s-72.833 -40.5 -125.5 -40.5c-25.333 0 -49.166 2.16699 -71.499 6.5s-46.166 10.833 -71.499 19.5l13 61c23.333 -7.33301 44.833 -13.5 64.5 -18.5s41.5 -7.5 65.5 -7.5c36.667 0 63 8.16699 79 24.5s24 37.5 24 63.5
c0 18.667 -5.16699 33.834 -15.5 45.501s-23.333 21.667 -39 30s-32.5 16.333 -50.5 24s-34.833 17.167 -50.5 28.5s-28.667 25.666 -39 42.999s-15.5 39.666 -15.5 66.999c0 28 6.16699 50.5 18.5 67.5s25.666 32.5 39.999 46.5s27.666 28.5 39.999 43.5
s18.5 34.5 18.5 58.5c0 22 -8 42.167 -24 60.5s-40.333 27.5 -73 27.5c-34 0 -58.833 -9 -74.5 -27s-23.5 -44.333 -23.5 -79v-552c0 -5.33301 -1.83301 -10 -5.5 -14s-8.16699 -6 -13.5 -6h-49v458z" />
    <glyph glyph-name="agrave" unicode="&#xe0;" horiz-adv-x="513" 
d="M186 710l169 -77l-21 -46l-174 64zM50 136c0 26.667 5.33008 49.332 15.9971 67.999s25.667 34 45 46s42.333 20.667 69 26s56.334 8 89.001 8h94v49c0 43.333 -9.16699 76 -27.5 98s-50.166 33 -95.499 33c-24.667 0 -48 -2.16699 -70 -6.5s-45 -10.166 -69 -17.499
l-15 59c26 8 51.333 14.333 76 19s50.667 7 78 7c64.667 0 112.667 -16.667 144 -50s47 -76.333 47 -129v-346h-53l-8 52c-21.333 -19.333 -45.166 -35 -71.499 -47s-54.833 -18 -85.5 -18c-51.333 0 -91.333 13.833 -120 41.5s-43 63.5 -43 107.5zM119.997 135.998
c0 -26 8.16699 -47.167 24.5 -63.5s41.5 -24.5 75.5 -24.5c26 0 51.5 5.5 76.5 16.5s47.167 25.833 66.5 44.5v119h-90c-46 0 -83 -6.5 -111 -19.5s-42 -37.167 -42 -72.5z" />
    <glyph glyph-name="aacute" unicode="&#xe1;" horiz-adv-x="513" 
d="M158 633l169 77l26 -59l-174 -64zM50 136c0 26.667 5.33008 49.332 15.9971 67.999s25.667 34 45 46s42.333 20.667 69 26s56.334 8 89.001 8h94v49c0 43.333 -9.16699 76 -27.5 98s-50.166 33 -95.499 33c-24.667 0 -48 -2.16699 -70 -6.5s-45 -10.166 -69 -17.499
l-15 59c26 8 51.333 14.333 76 19s50.667 7 78 7c64.667 0 112.667 -16.667 144 -50s47 -76.333 47 -129v-346h-53l-8 52c-21.333 -19.333 -45.166 -35 -71.499 -47s-54.833 -18 -85.5 -18c-51.333 0 -91.333 13.833 -120 41.5s-43 63.5 -43 107.5zM119.997 135.998
c0 -26 8.16699 -47.167 24.5 -63.5s41.5 -24.5 75.5 -24.5c26 0 51.5 5.5 76.5 16.5s47.167 25.833 66.5 44.5v119h-90c-46 0 -83 -6.5 -111 -19.5s-42 -37.167 -42 -72.5z" />
    <glyph glyph-name="acircumflex" unicode="&#xe2;" horiz-adv-x="513" 
d="M126 631l129 80l129 -80l-34 -45l-95 61l-94 -61zM50 136c0 26.667 5.33008 49.332 15.9971 67.999s25.667 34 45 46s42.333 20.667 69 26s56.334 8 89.001 8h94v49c0 43.333 -9.16699 76 -27.5 98s-50.166 33 -95.499 33c-24.667 0 -48 -2.16699 -70 -6.5
s-45 -10.166 -69 -17.499l-15 59c26 8 51.333 14.333 76 19s50.667 7 78 7c64.667 0 112.667 -16.667 144 -50s47 -76.333 47 -129v-346h-53l-8 52c-21.333 -19.333 -45.166 -35 -71.499 -47s-54.833 -18 -85.5 -18c-51.333 0 -91.333 13.833 -120 41.5s-43 63.5 -43 107.5z
M119.997 135.998c0 -26 8.16699 -47.167 24.5 -63.5s41.5 -24.5 75.5 -24.5c26 0 51.5 5.5 76.5 16.5s47.167 25.833 66.5 44.5v119h-90c-46 0 -83 -6.5 -111 -19.5s-42 -37.167 -42 -72.5z" />
    <glyph glyph-name="atilde" unicode="&#xe3;" horiz-adv-x="513" 
d="M124 643c13.333 19.333 26.333 32.666 39 39.999s27 11 43 11c10.667 0 20.5 -2 29.5 -6s17.5 -8.5 25.5 -13.5l22.5 -13.5c7 -4 13.833 -6 20.5 -6c9.33301 0 18 2.5 26 7.5s16.667 13.167 26 24.5l29 -35c-13.333 -19.333 -26.333 -32.666 -39 -39.999
s-26.667 -11 -42 -11c-10.667 0 -20.5 2 -29.5 6s-17.5 8.5 -25.5 13.5l-22.5 13.5c-7 4 -13.833 6 -20.5 6c-10 0 -19 -2.33301 -27 -7s-16.667 -12.667 -26 -24zM50 136c0 26.667 5.33008 49.332 15.9971 67.999s25.667 34 45 46s42.333 20.667 69 26s56.334 8 89.001 8
h94v49c0 43.333 -9.16699 76 -27.5 98s-50.166 33 -95.499 33c-24.667 0 -48 -2.16699 -70 -6.5s-45 -10.166 -69 -17.499l-15 59c26 8 51.333 14.333 76 19s50.667 7 78 7c64.667 0 112.667 -16.667 144 -50s47 -76.333 47 -129v-346h-53l-8 52
c-21.333 -19.333 -45.166 -35 -71.499 -47s-54.833 -18 -85.5 -18c-51.333 0 -91.333 13.833 -120 41.5s-43 63.5 -43 107.5zM119.997 135.998c0 -26 8.16699 -47.167 24.5 -63.5s41.5 -24.5 75.5 -24.5c26 0 51.5 5.5 76.5 16.5s47.167 25.833 66.5 44.5v119h-90
c-46 0 -83 -6.5 -111 -19.5s-42 -37.167 -42 -72.5z" />
    <glyph glyph-name="adieresis" unicode="&#xe4;" horiz-adv-x="513" 
d="M338 602c-12.667 0 -23.334 4.5 -32.001 13.5s-13 19.5 -13 31.5c0 12.667 4.33301 23.5 13 32.5s19.334 13.5 32.001 13.5c12 0 22.5 -4.5 31.5 -13.5s13.5 -19.833 13.5 -32.5c0 -12 -4.5 -22.5 -13.5 -31.5s-19.5 -13.5 -31.5 -13.5zM171 602
c-12 0 -22.5 4.5 -31.5 13.5s-13.5 19.5 -13.5 31.5c0 12.667 4.5 23.5 13.5 32.5s19.5 13.5 31.5 13.5c12.667 0 23.334 -4.5 32.001 -13.5s13 -19.833 13 -32.5c0 -12 -4.33301 -22.5 -13 -31.5s-19.334 -13.5 -32.001 -13.5zM50 136
c0 26.667 5.33008 49.332 15.9971 67.999s25.667 34 45 46s42.333 20.667 69 26s56.334 8 89.001 8h94v49c0 43.333 -9.16699 76 -27.5 98s-50.166 33 -95.499 33c-24.667 0 -48 -2.16699 -70 -6.5s-45 -10.166 -69 -17.499l-15 59c26 8 51.333 14.333 76 19s50.667 7 78 7
c64.667 0 112.667 -16.667 144 -50s47 -76.333 47 -129v-346h-53l-8 52c-21.333 -19.333 -45.166 -35 -71.499 -47s-54.833 -18 -85.5 -18c-51.333 0 -91.333 13.833 -120 41.5s-43 63.5 -43 107.5zM119.997 135.998c0 -26 8.16699 -47.167 24.5 -63.5
s41.5 -24.5 75.5 -24.5c26 0 51.5 5.5 76.5 16.5s47.167 25.833 66.5 44.5v119h-90c-46 0 -83 -6.5 -111 -19.5s-42 -37.167 -42 -72.5z" />
    <glyph glyph-name="aring" unicode="&#xe5;" horiz-adv-x="513" 
d="M254 573c-22 0 -41.167 7.33301 -57.5 22s-24.5 32.667 -24.5 54c0 22.667 8.16699 41.167 24.5 55.5s35.5 21.5 57.5 21.5c23.333 0 43 -7.16699 59 -21.5s24 -32.833 24 -55.5c0 -21.333 -8 -39.333 -24 -54s-35.667 -22 -59 -22zM255 620c9.33301 0 16.833 3 22.5 9
s8.5 12.667 8.5 20c0 9.33301 -3.16699 16.5 -9.5 21.5s-13.5 7.5 -21.5 7.5c-8.66699 0 -16.167 -2.66699 -22.5 -8s-9.5 -12.333 -9.5 -21c0 -8 3.16699 -14.833 9.5 -20.5s13.833 -8.5 22.5 -8.5zM50 136c0 26.667 5.33008 49.332 15.9971 67.999s25.667 34 45 46
s42.333 20.667 69 26s56.334 8 89.001 8h94v49c0 43.333 -9.16699 76 -27.5 98s-50.166 33 -95.499 33c-24.667 0 -48 -2.16699 -70 -6.5s-45 -10.166 -69 -17.499l-15 59c26 8 51.333 14.333 76 19s50.667 7 78 7c64.667 0 112.667 -16.667 144 -50s47 -76.333 47 -129
v-346h-53l-8 52c-21.333 -19.333 -45.166 -35 -71.499 -47s-54.833 -18 -85.5 -18c-51.333 0 -91.333 13.833 -120 41.5s-43 63.5 -43 107.5zM119.997 135.998c0 -26 8.16699 -47.167 24.5 -63.5s41.5 -24.5 75.5 -24.5c26 0 51.5 5.5 76.5 16.5s47.167 25.833 66.5 44.5
v119h-90c-46 0 -83 -6.5 -111 -19.5s-42 -37.167 -42 -72.5z" />
    <glyph glyph-name="ae" unicode="&#xe6;" horiz-adv-x="823" 
d="M50 138c0 26.667 5.49609 49.333 16.4961 68s26.333 33.667 46 45s42.834 19.666 69.501 24.999s55.667 8 87 8h94v47c0 44.667 -9 78 -27 100s-50 33 -96 33c-24.667 0 -48 -2.16699 -70 -6.5s-45 -10.166 -69 -17.499l-15 59c26 8 51.333 14.333 76 19s50.667 7 78 7
c42 0 76.333 -7.33301 103 -22s46.667 -34.667 60 -60c16.667 24.667 38.5 44.5 65.5 59.5s58.833 22.5 95.5 22.5c31.333 0 59.5 -5.83301 84.5 -17.5s46 -27 63 -46s30 -40.833 39 -65.5s13.5 -50 13.5 -76v-56c0 -5.33301 -1.83301 -10 -5.5 -14s-8.16699 -6 -13.5 -6
h-313v-53c0 -16 2.33301 -32.333 7 -49s12.334 -32 23.001 -46s24.834 -25.5 42.501 -34.5s39.5 -13.5 65.5 -13.5c27.333 0 53.5 2.66699 78.5 8s50.833 11.666 77.5 18.999l15 -58c-29.333 -9.33301 -57.666 -16.666 -84.999 -21.999s-56 -8 -86 -8
c-37.333 0 -69.5 6.83301 -96.5 20.5s-49.167 31.5 -66.5 53.5c-21.333 -18.667 -48.833 -35.667 -82.5 -51s-70.5 -23 -110.5 -23c-52 0 -92.333 14 -121 42s-43 64.333 -43 109zM695.996 297.999l0.00195312 25c0 16 -2.33301 32.5 -7 49.5s-12.334 32.167 -23.001 45.5
s-24.334 24.333 -41.001 33s-37 13 -61 13s-44.333 -4.16699 -61 -12.5s-30.167 -19.166 -40.5 -32.499s-18 -28.333 -23 -45s-7.5 -33.334 -7.5 -50.001v-26h264zM119.998 136.999c0 -26.667 8.16895 -48.167 24.502 -64.5s41.5 -24.5 75.5 -24.5
c28 0 56.333 5.83301 85 17.5s53.667 25.167 75 40.5c-5.33301 13.333 -9.33301 27 -12 41s-4 28.667 -4 44v37h-91c-22.667 0 -43.334 -1.33301 -62.001 -4s-34.834 -7.5 -48.501 -14.5s-24.167 -16.333 -31.5 -28s-11 -26.5 -11 -44.5z" />
    <glyph glyph-name="ccedilla" unicode="&#xe7;" horiz-adv-x="480" 
d="M154 -156c11.333 -2.66699 24.002 -4.00098 38.002 -4.00098c19.333 0 33 5.66699 41 17s12 27.666 12 48.999v82c-59.333 5.33301 -104.333 28.166 -135 68.499s-46 92.833 -46 157.5v86c0 68 17.5 122.5 52.5 163.5s85.5 61.5 151.5 61.5
c27.333 0 53.833 -2.33301 79.5 -7s51.834 -11 78.501 -19l-16 -58c-22 7.33301 -44.667 13 -68 17s-47.333 6 -72 6c-26 0 -47.667 -4.16699 -65 -12.5s-31.333 -20.166 -42 -35.499s-18.334 -33.5 -23.001 -54.5s-7 -43.833 -7 -68.5v-71
c0 -25.333 2.33301 -48.666 7 -69.999s12.334 -39.666 23.001 -54.999s24.667 -27.333 42 -36s39 -13 65 -13c25.333 0 49.166 2.16699 71.499 6.5s45.166 10.166 68.499 17.499l16 -59c-40.667 -12.667 -81.667 -21 -123 -25v-93c0 -20.667 -3.16699 -38 -9.5 -52
s-14.5 -25.167 -24.5 -33.5s-21.333 -14.166 -34 -17.499s-25.334 -5 -38.001 -5c-17.333 0 -34 2 -50 6l7 51v0z" />
    <glyph glyph-name="egrave" unicode="&#xe8;" horiz-adv-x="523" 
d="M190 710l169 -77l-21 -46l-175 64zM64 320c0 26.667 4.49707 52.5 13.4971 77.5s22 46.833 39 65.5s38 33.667 63 45s53.167 17 84.5 17s59.5 -5.83301 84.5 -17.5s46 -27 63 -46s30 -40.833 39 -65.5s13.5 -50 13.5 -76v-56c0 -5.33301 -1.83301 -10 -5.5 -14
s-8.16699 -6 -13.5 -6h-313v-53c0 -16 2.33301 -32.333 7 -49s12.334 -32 23.001 -46s24.834 -25.5 42.501 -34.5s39.5 -13.5 65.5 -13.5c27.333 0 53.5 2.66699 78.5 8s50.833 11.666 77.5 18.999l15 -58c-29.333 -9.33301 -57.666 -16.666 -84.999 -21.999s-56 -8 -86 -8
c-34 0 -63.833 5.66699 -89.5 17s-47.167 26.5 -64.5 45.5s-30.333 40.833 -39 65.5s-13 50 -13 76v129zM395.997 298l0.00390625 25.001c0 16 -2.33301 32.5 -7 49.5s-12.334 32.167 -23.001 45.5s-24.334 24.333 -41.001 33s-37 13 -61 13s-44.333 -4.33301 -61 -13
s-30.334 -19.667 -41.001 -33s-18.334 -28.333 -23.001 -45s-7 -33.334 -7 -50.001v-25h264z" />
    <glyph glyph-name="eacute" unicode="&#xe9;" horiz-adv-x="523" 
d="M160 633l168 77l27 -59l-175 -64zM64 320c0 26.667 4.49707 52.5 13.4971 77.5s22 46.833 39 65.5s38 33.667 63 45s53.167 17 84.5 17s59.5 -5.83301 84.5 -17.5s46 -27 63 -46s30 -40.833 39 -65.5s13.5 -50 13.5 -76v-56c0 -5.33301 -1.83301 -10 -5.5 -14
s-8.16699 -6 -13.5 -6h-313v-53c0 -16 2.33301 -32.333 7 -49s12.334 -32 23.001 -46s24.834 -25.5 42.501 -34.5s39.5 -13.5 65.5 -13.5c27.333 0 53.5 2.66699 78.5 8s50.833 11.666 77.5 18.999l15 -58c-29.333 -9.33301 -57.666 -16.666 -84.999 -21.999s-56 -8 -86 -8
c-34 0 -63.833 5.66699 -89.5 17s-47.167 26.5 -64.5 45.5s-30.333 40.833 -39 65.5s-13 50 -13 76v129zM395.997 298l0.00390625 25.001c0 16 -2.33301 32.5 -7 49.5s-12.334 32.167 -23.001 45.5s-24.334 24.333 -41.001 33s-37 13 -61 13s-44.333 -4.33301 -61 -13
s-30.334 -19.667 -41.001 -33s-18.334 -28.333 -23.001 -45s-7 -33.334 -7 -50.001v-25h264z" />
    <glyph glyph-name="ecircumflex" unicode="&#xea;" horiz-adv-x="523" 
d="M133 631l129 80l129 -80l-35 -45l-94 61l-95 -61zM64 320c0 26.667 4.49707 52.5 13.4971 77.5s22 46.833 39 65.5s38 33.667 63 45s53.167 17 84.5 17s59.5 -5.83301 84.5 -17.5s46 -27 63 -46s30 -40.833 39 -65.5s13.5 -50 13.5 -76v-56
c0 -5.33301 -1.83301 -10 -5.5 -14s-8.16699 -6 -13.5 -6h-313v-53c0 -16 2.33301 -32.333 7 -49s12.334 -32 23.001 -46s24.834 -25.5 42.501 -34.5s39.5 -13.5 65.5 -13.5c27.333 0 53.5 2.66699 78.5 8s50.833 11.666 77.5 18.999l15 -58
c-29.333 -9.33301 -57.666 -16.666 -84.999 -21.999s-56 -8 -86 -8c-34 0 -63.833 5.66699 -89.5 17s-47.167 26.5 -64.5 45.5s-30.333 40.833 -39 65.5s-13 50 -13 76v129zM395.997 298l0.00390625 25.001c0 16 -2.33301 32.5 -7 49.5s-12.334 32.167 -23.001 45.5
s-24.334 24.333 -41.001 33s-37 13 -61 13s-44.333 -4.33301 -61 -13s-30.334 -19.667 -41.001 -33s-18.334 -28.333 -23.001 -45s-7 -33.334 -7 -50.001v-25h264z" />
    <glyph glyph-name="edieresis" unicode="&#xeb;" horiz-adv-x="523" 
d="M346 602c-13.333 0 -24.333 4.5 -33 13.5s-13 19.5 -13 31.5c0 12.667 4.33301 23.5 13 32.5s19.667 13.5 33 13.5c11.333 0 21.5 -4.5 30.5 -13.5s13.5 -19.833 13.5 -32.5c0 -12 -4.5 -22.5 -13.5 -31.5s-19.167 -13.5 -30.5 -13.5zM178 602
c-12 0 -22.5 4.5 -31.5 13.5s-13.5 19.5 -13.5 31.5c0 12.667 4.5 23.5 13.5 32.5s19.5 13.5 31.5 13.5c12.667 0 23.334 -4.5 32.001 -13.5s13 -19.833 13 -32.5c0 -12 -4.33301 -22.5 -13 -31.5s-19.334 -13.5 -32.001 -13.5zM64 320c0 26.667 4.49707 52.5 13.4971 77.5
s22 46.833 39 65.5s38 33.667 63 45s53.167 17 84.5 17s59.5 -5.83301 84.5 -17.5s46 -27 63 -46s30 -40.833 39 -65.5s13.5 -50 13.5 -76v-56c0 -5.33301 -1.83301 -10 -5.5 -14s-8.16699 -6 -13.5 -6h-313v-53c0 -16 2.33301 -32.333 7 -49s12.334 -32 23.001 -46
s24.834 -25.5 42.501 -34.5s39.5 -13.5 65.5 -13.5c27.333 0 53.5 2.66699 78.5 8s50.833 11.666 77.5 18.999l15 -58c-29.333 -9.33301 -57.666 -16.666 -84.999 -21.999s-56 -8 -86 -8c-34 0 -63.833 5.66699 -89.5 17s-47.167 26.5 -64.5 45.5s-30.333 40.833 -39 65.5
s-13 50 -13 76v129zM395.997 298l0.00390625 25.001c0 16 -2.33301 32.5 -7 49.5s-12.334 32.167 -23.001 45.5s-24.334 24.333 -41.001 33s-37 13 -61 13s-44.333 -4.33301 -61 -13s-30.334 -19.667 -41.001 -33s-18.334 -28.333 -23.001 -45s-7 -33.334 -7 -50.001v-25
h264z" />
    <glyph glyph-name="igrave" unicode="&#xec;" horiz-adv-x="240" 
d="M23 651l26 59l169 -77l-21 -46zM86 512h68v-492c0 -13.333 -6.66699 -20 -20 -20h-48v512z" />
    <glyph glyph-name="iacute" unicode="&#xed;" horiz-adv-x="240" 
d="M23 633l169 77l26 -59l-174 -64zM86 512h68v-492c0 -13.333 -6.66699 -20 -20 -20h-48v512z" />
    <glyph glyph-name="icircumflex" unicode="&#xee;" horiz-adv-x="240" 
d="M-9 631l129 80l129 -80l-34 -45l-95 61l-94 -61zM86 512h68v-492c0 -13.333 -6.66699 -20 -20 -20h-48v512z" />
    <glyph glyph-name="idieresis" unicode="&#xef;" horiz-adv-x="240" 
d="M204 602c-12.667 0 -23.334 4.5 -32.001 13.5s-13 19.5 -13 31.5c0 12.667 4.33301 23.5 13 32.5s19.334 13.5 32.001 13.5c12 0 22.5 -4.5 31.5 -13.5s13.5 -19.833 13.5 -32.5c0 -12 -4.5 -22.5 -13.5 -31.5s-19.5 -13.5 -31.5 -13.5zM37 602
c-12 0 -22.5 4.5 -31.5 13.5s-13.5 19.5 -13.5 31.5c0 12.667 4.5 23.5 13.5 32.5s19.5 13.5 31.5 13.5c12.667 0 23.334 -4.5 32.001 -13.5s13 -19.833 13 -32.5c0 -12 -4.33301 -22.5 -13 -31.5s-19.334 -13.5 -32.001 -13.5zM86 512h68v-492
c0 -13.333 -6.66699 -20 -20 -20h-48v512z" />
    <glyph glyph-name="eth" unicode="&#xf0;" horiz-adv-x="544" 
d="M64 268c0 30.667 4.99609 58.667 14.9961 84s24.167 47.166 42.5 65.499s40.333 32.5 66 42.5s53.834 15 84.501 15s57.834 -5.16699 81.501 -15.5s44.167 -24.5 61.5 -42.5c-2 69.333 -13.5 122.5 -34.5 159.5s-52.5 59.167 -94.5 66.5l-42 -90l-43 20l35 74
c-26 -0.666992 -50.167 -2.66699 -72.5 -6s-43.166 -7.66602 -62.499 -12.999l-14 57c22.667 6 46.834 11 72.501 15s54.167 6 85.5 6h9c2.66699 0 5.66699 -0.333008 9 -1l38 82l43 -20l-32 -70c24.667 -6 47.334 -16 68.001 -30s38.334 -32.5 53.001 -55.5
s26.167 -50.5 34.5 -82.5s12.5 -69.333 12.5 -112v-222c0 -29.333 -4.66699 -56.666 -14 -81.999s-23 -47.333 -41 -66s-39.833 -33.334 -65.5 -44.001s-54.834 -16 -87.501 -16s-61.834 5.33301 -87.501 16s-47.5 25.334 -65.5 44.001s-31.667 40.667 -41 66
s-14 52.666 -14 81.999v73zM132.996 203c0 -21.333 2.49805 -41.333 7.49805 -60s13 -35 24 -49s25.333 -25.167 43 -33.5s39.167 -12.5 64.5 -12.5s46.833 4.16699 64.5 12.5s32 19.5 43 33.5s19 30.333 24 49s7.5 38.667 7.5 60v57c0 20.667 -2.5 40.334 -7.5 59.001
s-13 35 -24 49s-25.333 25 -43 33s-39.167 12 -64.5 12s-46.666 -4 -63.999 -12s-31.666 -19 -42.999 -33s-19.5 -30.333 -24.5 -49s-7.5 -38.334 -7.5 -59.001v-57z" />
    <glyph glyph-name="ntilde" unicode="&#xf1;" horiz-adv-x="556" 
d="M147 643c13.333 19.333 26.333 32.666 39 39.999s27 11 43 11c10.667 0 20.5 -2 29.5 -6s17.5 -8.5 25.5 -13.5l22.5 -13.5c7 -4 13.833 -6 20.5 -6c9.33301 0 18 2.5 26 7.5s16.667 13.167 26 24.5l29 -35c-13.333 -19.333 -26.333 -32.666 -39 -39.999
s-26.667 -11 -42 -11c-10.667 0 -20.5 2 -29.5 6s-17.5 8.5 -25.5 13.5l-22.5 13.5c-7 4 -13.833 6 -20.5 6c-10 0 -19 -2.33301 -27 -7s-16.667 -12.667 -26 -24zM86 512h54l8 -54c25.333 20.667 51 37 77 49s53 18 81 18c56.667 0 99 -15.667 127 -47s42 -73 42 -125v-333
c0 -13.333 -6.66699 -20 -20 -20h-48v336c0 41.333 -7.83301 73 -23.5 95s-44.5 33 -86.5 33c-26 0 -50.333 -6.16699 -73 -18.5s-46 -27.5 -70 -45.5v-400h-68v512z" />
    <glyph glyph-name="ograve" unicode="&#xf2;" horiz-adv-x="545" 
d="M198 710l169 -77l-21 -46l-175 64zM64 302c0 69.333 18.333 123.833 55 163.5s88 59.5 154 59.5c65.333 0 116.333 -19.833 153 -59.5s55 -94.167 55 -163.5v-91c0 -70 -18.333 -124.833 -55 -164.5s-87.667 -59.5 -153 -59.5c-66 0 -117.333 19.833 -154 59.5
s-55 94.5 -55 164.5v91zM133 219c0 -26 2.5 -49.5 7.5 -70.5s13 -39 24 -54s25.5 -26.5 43.5 -34.5s39.667 -12 65 -12c50.667 0 86.5 15.5 107.5 46.5s31.5 72.5 31.5 124.5v76c0 51.333 -10.667 92.333 -32 123s-57 46 -107 46c-25.333 0 -46.833 -4 -64.5 -12
s-32.167 -19.333 -43.5 -34s-19.5 -32.5 -24.5 -53.5s-7.5 -44.167 -7.5 -69.5v-76z" />
    <glyph glyph-name="oacute" unicode="&#xf3;" horiz-adv-x="545" 
d="M171 633l169 77l27 -59l-175 -64zM64 302c0 69.333 18.333 123.833 55 163.5s88 59.5 154 59.5c65.333 0 116.333 -19.833 153 -59.5s55 -94.167 55 -163.5v-91c0 -70 -18.333 -124.833 -55 -164.5s-87.667 -59.5 -153 -59.5c-66 0 -117.333 19.833 -154 59.5
s-55 94.5 -55 164.5v91zM133 219c0 -26 2.5 -49.5 7.5 -70.5s13 -39 24 -54s25.5 -26.5 43.5 -34.5s39.667 -12 65 -12c50.667 0 86.5 15.5 107.5 46.5s31.5 72.5 31.5 124.5v76c0 51.333 -10.667 92.333 -32 123s-57 46 -107 46c-25.333 0 -46.833 -4 -64.5 -12
s-32.167 -19.333 -43.5 -34s-19.5 -32.5 -24.5 -53.5s-7.5 -44.167 -7.5 -69.5v-76z" />
    <glyph glyph-name="ocircumflex" unicode="&#xf4;" horiz-adv-x="545" 
d="M144 631l129 80l129 -80l-35 -45l-94 61l-95 -61zM64 302c0 69.333 18.333 123.833 55 163.5s88 59.5 154 59.5c65.333 0 116.333 -19.833 153 -59.5s55 -94.167 55 -163.5v-91c0 -70 -18.333 -124.833 -55 -164.5s-87.667 -59.5 -153 -59.5
c-66 0 -117.333 19.833 -154 59.5s-55 94.5 -55 164.5v91zM133 219c0 -26 2.5 -49.5 7.5 -70.5s13 -39 24 -54s25.5 -26.5 43.5 -34.5s39.667 -12 65 -12c50.667 0 86.5 15.5 107.5 46.5s31.5 72.5 31.5 124.5v76c0 51.333 -10.667 92.333 -32 123s-57 46 -107 46
c-25.333 0 -46.833 -4 -64.5 -12s-32.167 -19.333 -43.5 -34s-19.5 -32.5 -24.5 -53.5s-7.5 -44.167 -7.5 -69.5v-76z" />
    <glyph glyph-name="otilde" unicode="&#xf5;" horiz-adv-x="545" 
d="M143 643c13.333 19.333 26.1689 32.666 38.502 39.999s26.5 11 42.5 11c10.667 0 20.5 -2 29.5 -6s17.5 -8.5 25.5 -13.5l22.5 -13.5c7 -4 13.833 -6 20.5 -6c9.33301 0 18.166 2.5 26.499 7.5s17.166 13.167 26.499 24.5l29 -35
c-14 -19.333 -27.333 -32.666 -40 -39.999s-26.667 -11 -42 -11c-10.667 0 -20.5 2 -29.5 6s-17.5 8.5 -25.5 13.5l-22.5 13.5c-7 4 -13.833 6 -20.5 6c-10 0 -19 -2.33301 -27 -7s-16.667 -12.667 -26 -24zM64.0029 302c0 69.333 18.333 123.833 55 163.5s88 59.5 154 59.5
c65.333 0 116.333 -19.833 153 -59.5s55 -94.167 55 -163.5v-91c0 -70 -18.333 -124.833 -55 -164.5s-87.667 -59.5 -153 -59.5c-66 0 -117.333 19.833 -154 59.5s-55 94.5 -55 164.5v91zM133.003 219c0 -26 2.5 -49.5 7.5 -70.5s13 -39 24 -54s25.5 -26.5 43.5 -34.5
s39.667 -12 65 -12c50.667 0 86.5 15.5 107.5 46.5s31.5 72.5 31.5 124.5v76c0 51.333 -10.667 92.333 -32 123s-57 46 -107 46c-25.333 0 -46.833 -4 -64.5 -12s-32.167 -19.333 -43.5 -34s-19.5 -32.5 -24.5 -53.5s-7.5 -44.167 -7.5 -69.5v-76z" />
    <glyph glyph-name="odieresis" unicode="&#xf6;" horiz-adv-x="545" 
d="M357 602c-13.333 0 -24.333 4.5 -33 13.5s-13 19.5 -13 31.5c0 12.667 4.33301 23.5 13 32.5s19.667 13.5 33 13.5c11.333 0 21.5 -4.5 30.5 -13.5s13.5 -19.833 13.5 -32.5c0 -12 -4.5 -22.5 -13.5 -31.5s-19.167 -13.5 -30.5 -13.5zM189 602
c-12 0 -22.5 4.5 -31.5 13.5s-13.5 19.5 -13.5 31.5c0 12.667 4.5 23.5 13.5 32.5s19.5 13.5 31.5 13.5c12.667 0 23.334 -4.5 32.001 -13.5s13 -19.833 13 -32.5c0 -12 -4.33301 -22.5 -13 -31.5s-19.334 -13.5 -32.001 -13.5zM64 302c0 69.333 18.333 123.833 55 163.5
s88 59.5 154 59.5c65.333 0 116.333 -19.833 153 -59.5s55 -94.167 55 -163.5v-91c0 -70 -18.333 -124.833 -55 -164.5s-87.667 -59.5 -153 -59.5c-66 0 -117.333 19.833 -154 59.5s-55 94.5 -55 164.5v91zM133 219c0 -26 2.5 -49.5 7.5 -70.5s13 -39 24 -54
s25.5 -26.5 43.5 -34.5s39.667 -12 65 -12c50.667 0 86.5 15.5 107.5 46.5s31.5 72.5 31.5 124.5v76c0 51.333 -10.667 92.333 -32 123s-57 46 -107 46c-25.333 0 -46.833 -4 -64.5 -12s-32.167 -19.333 -43.5 -34s-19.5 -32.5 -24.5 -53.5s-7.5 -44.167 -7.5 -69.5v-76z
" />
    <glyph glyph-name="oslash" unicode="&#xf8;" horiz-adv-x="545" 
d="M139 29c-50 38.667 -74.998 99.333 -74.998 182v91c0 69.333 18.333 123.833 55 163.5s88 59.5 154 59.5c28.667 0 56 -4.66699 82 -14l37 84l51 -22l-40 -88c25.333 -19.333 44.666 -44.333 57.999 -75s20 -66.667 20 -108v-91c0 -70 -18.333 -124.833 -55 -164.5
s-87.667 -59.5 -153 -59.5c-32.667 0 -61.334 5 -86.001 15l-38 -86l-50 22zM329.002 453.999c-8 3.33301 -16.668 5.83301 -26.001 7.5s-19.333 2.5 -30 2.5c-25.333 0 -46.833 -4 -64.5 -12s-32.167 -19.333 -43.5 -34s-19.5 -32.5 -24.5 -53.5s-7.5 -44.167 -7.5 -69.5
v-76c0 -26 2.83301 -49.5 8.5 -70.5s14.834 -38.167 27.501 -51.5zM213.001 58.999c8.66699 -3.33301 17.832 -6 27.499 -8s20.5 -3 32.5 -3c50.667 0 86.5 15.5 107.5 46.5s31.5 72.5 31.5 124.5v76c0 25.333 -3.16699 48.5 -9.5 69.5s-16.166 38.5 -29.499 52.5z" />
    <glyph glyph-name="ugrave" unicode="&#xf9;" horiz-adv-x="556" 
d="M207 710l169 -77l-21 -46l-174 64zM81 492c0 13.333 6.66602 20 19.999 20h48v-336c0 -42 7.83301 -73.833 23.5 -95.5s44.834 -32.5 87.501 -32.5c25.333 0 49.5 6 72.5 18s46.167 27.333 69.5 46v400h68v-512h-54l-7 54c-25.333 -20.667 -51 -37 -77 -49
s-53 -18 -81 -18c-56.667 0 -99.167 15.833 -127.5 47.5s-42.5 73.5 -42.5 125.5v332z" />
    <glyph glyph-name="uacute" unicode="&#xfa;" horiz-adv-x="556" 
d="M181 633l168 77l27 -59l-175 -64zM81 492c0 13.333 6.66602 20 19.999 20h48v-336c0 -42 7.83301 -73.833 23.5 -95.5s44.834 -32.5 87.501 -32.5c25.333 0 49.5 6 72.5 18s46.167 27.333 69.5 46v400h68v-512h-54l-7 54c-25.333 -20.667 -51 -37 -77 -49
s-53 -18 -81 -18c-56.667 0 -99.167 15.833 -127.5 47.5s-42.5 73.5 -42.5 125.5v332z" />
    <glyph glyph-name="ucircumflex" unicode="&#xfb;" horiz-adv-x="556" 
d="M149 631l129 80l129 -80l-34 -45l-95 61l-95 -61zM81 492c0 13.333 6.66602 20 19.999 20h48v-336c0 -42 7.83301 -73.833 23.5 -95.5s44.834 -32.5 87.501 -32.5c25.333 0 49.5 6 72.5 18s46.167 27.333 69.5 46v400h68v-512h-54l-7 54c-25.333 -20.667 -51 -37 -77 -49
s-53 -18 -81 -18c-56.667 0 -99.167 15.833 -127.5 47.5s-42.5 73.5 -42.5 125.5v332z" />
    <glyph glyph-name="udieresis" unicode="&#xfc;" horiz-adv-x="556" 
d="M362 602c-12.667 0 -23.5 4.5 -32.5 13.5s-13.5 19.5 -13.5 31.5c0 12.667 4.5 23.5 13.5 32.5s19.833 13.5 32.5 13.5c12 0 22.333 -4.5 31 -13.5s13 -19.833 13 -32.5c0 -12 -4.33301 -22.5 -13 -31.5s-19 -13.5 -31 -13.5zM195 602
c-12.667 0 -23.334 4.5 -32.001 13.5s-13 19.5 -13 31.5c0 12.667 4.33301 23.5 13 32.5s19.334 13.5 32.001 13.5c12 0 22.5 -4.5 31.5 -13.5s13.5 -19.833 13.5 -32.5c0 -12 -4.5 -22.5 -13.5 -31.5s-19.5 -13.5 -31.5 -13.5zM81 492c0 13.333 6.66602 20 19.999 20h48
v-336c0 -42 7.83301 -73.833 23.5 -95.5s44.834 -32.5 87.501 -32.5c25.333 0 49.5 6 72.5 18s46.167 27.333 69.5 46v400h68v-512h-54l-7 54c-25.333 -20.667 -51 -37 -77 -49s-53 -18 -81 -18c-56.667 0 -99.167 15.833 -127.5 47.5s-42.5 73.5 -42.5 125.5v332z" />
    <glyph glyph-name="yacute" unicode="&#xfd;" horiz-adv-x="510" 
d="M153 633l169 77l26 -59l-174 -64zM45 512l67.001 0.00195312l44 -338c2 -15.333 5.16699 -29.833 9.5 -43.5s10.5 -25.5 18.5 -35.5s17.833 -18 29.5 -24s25.834 -9 42.501 -9c18.667 0 36.5 2.66699 53.5 8s34.167 12.666 51.5 21.999l23 420h66l-29 -554
c-2.66699 -49.333 -16.834 -88.166 -42.501 -116.499s-66.5 -42.5 -122.5 -42.5h-94l-5 61h100c36 0 60.667 9.16699 74 27.5s21 43.166 23 74.499l4 65c-17.333 -8.66699 -34.666 -15.334 -51.999 -20.001s-35 -7 -53 -7c-50.667 -0 -88.834 14.833 -114.501 44.5
s-41.834 70.167 -48.501 121.5z" />
    <glyph glyph-name="thorn" unicode="&#xfe;" horiz-adv-x="553" 
d="M154 -201l-68 0.000976562v927h68v-262c24.667 18.667 48.834 33.5 72.501 44.5s49.167 16.5 76.5 16.5c58.667 0 104.334 -17.833 137.001 -53.5s49 -85.834 49 -150.501v-130c0 -64 -16.333 -114 -49 -150s-78.334 -54 -137.001 -54
c-26.667 0 -51.834 5.66699 -75.501 17s-48.167 26 -73.5 44v-249zM154 111.001c23.333 -17.333 46.001 -32.165 68.001 -44.498s46 -18.5 72 -18.5c44 0 76 13.167 96 39.5s30 66.166 30 119.499v98c0 53.333 -10 93.166 -30 119.499s-52 39.5 -96 39.5
c-25.333 0 -49.833 -6.83301 -73.5 -20.5s-45.834 -28.5 -66.501 -44.5v-288z" />
    <glyph glyph-name="ydieresis" unicode="&#xff;" horiz-adv-x="510" 
d="M334 602c-12.667 0 -23.334 4.5 -32.001 13.5s-13 19.5 -13 31.5c0 12.667 4.33301 23.5 13 32.5s19.334 13.5 32.001 13.5c12 0 22.5 -4.5 31.5 -13.5s13.5 -19.833 13.5 -32.5c0 -12 -4.5 -22.5 -13.5 -31.5s-19.5 -13.5 -31.5 -13.5zM167 602
c-12 0 -22.5 4.5 -31.5 13.5s-13.5 19.5 -13.5 31.5c0 12.667 4.5 23.5 13.5 32.5s19.5 13.5 31.5 13.5c12.667 0 23.334 -4.5 32.001 -13.5s13 -19.833 13 -32.5c0 -12 -4.33301 -22.5 -13 -31.5s-19.334 -13.5 -32.001 -13.5zM45 512l67.001 0.00195312l44 -338
c2 -15.333 5.16699 -29.833 9.5 -43.5s10.5 -25.5 18.5 -35.5s17.833 -18 29.5 -24s25.834 -9 42.501 -9c18.667 0 36.5 2.66699 53.5 8s34.167 12.666 51.5 21.999l23 420h66l-29 -554c-2.66699 -49.333 -16.834 -88.166 -42.501 -116.499s-66.5 -42.5 -122.5 -42.5h-94
l-5 61h100c36 0 60.667 9.16699 74 27.5s21 43.166 23 74.499l4 65c-17.333 -8.66699 -34.666 -15.334 -51.999 -20.001s-35 -7 -53 -7c-50.667 -0 -88.834 14.833 -114.501 44.5s-41.834 70.167 -48.501 121.5z" />
    <glyph glyph-name="OE" unicode="&#x152;" horiz-adv-x="924" 
d="M69 429c0 42 6 80.3301 18 114.997s29.167 64.334 51.5 89.001s49.666 43.834 81.999 57.501s68.833 20.5 109.5 20.5c16 0 31.333 -1.16699 46 -3.5s29 -5.5 43 -9.5h440v-62h-344c24 -24 42.667 -53.167 56 -87.5s20 -73.166 20 -116.499v-43h238v-62h-238v-57
c0 -44.667 -6.5 -84.667 -19.5 -120s-31.5 -64.666 -55.5 -87.999h347v-42c0 -13.333 -6.66699 -20 -20 -20h-424c-13.333 -4 -27.5 -7.16699 -42.5 -9.5s-30.5 -3.5 -46.5 -3.5c-40.667 0 -77.167 6.66699 -109.5 20s-59.666 32.166 -81.999 56.499s-39.5 54 -51.5 89
s-18 74.167 -18 117.5v159zM141 279.997c0 -30.667 3.16699 -60 9.5 -88s16.666 -52.5 30.999 -73.5s33.666 -37.833 57.999 -50.5s54.5 -19 90.5 -19s66.167 6.33301 90.5 19s43.666 29.5 57.999 50.5s24.666 45.5 30.999 73.5s9.5 57.333 9.5 88v138
c0 30.667 -3.16699 59.834 -9.5 87.501s-16.666 52.167 -30.999 73.5s-33.666 38.333 -57.999 51s-54.5 19 -90.5 19s-66.167 -6.33301 -90.5 -19s-43.666 -29.667 -57.999 -51s-24.666 -45.833 -30.999 -73.5s-9.5 -56.834 -9.5 -87.501v-138z" />
    <glyph glyph-name="oe" unicode="&#x153;" horiz-adv-x="873" 
d="M64 302c0 69.333 18.3301 123.833 54.9971 163.5s88 59.5 154 59.5c40.667 0 75.5 -8.16699 104.5 -24.5s51.5 -39.833 67.5 -70.5c15.333 28 37.166 50.833 65.499 68.5s62.5 26.5 102.5 26.5c31.333 0 59.5 -5.83301 84.5 -17.5s46.167 -27 63.5 -46
s30.5 -40.833 39.5 -65.5s13.5 -50 13.5 -76v-56c0 -5.33301 -2 -10 -6 -14s-8.66699 -6 -14 -6h-313v-53c0 -16 2.33301 -32.333 7 -49s12.334 -32 23.001 -46s24.834 -25.5 42.501 -34.5s39.5 -13.5 65.5 -13.5c27.333 0 53.5 2.66699 78.5 8s50.833 11.666 77.5 18.999
l15 -58c-29.333 -9.33301 -57.666 -16.666 -84.999 -21.999s-55.666 -8 -84.999 -8c-42 0 -77.667 8.83301 -107 26.5s-52 40.5 -68 68.5c-16 -30.667 -38.5 -54.167 -67.5 -70.5s-63.833 -24.5 -104.5 -24.5c-66 0 -117.333 19.833 -154 59.5s-55 94.5 -55 164.5v91z
M745.997 298l0.00292969 25.001c0 16 -2.33301 32.5 -7 49.5s-12.334 32.167 -23.001 45.5s-24.5 24.333 -41.5 33s-37.5 13 -61.5 13s-44.333 -4.33301 -61 -13s-30.334 -19.667 -41.001 -33s-18.334 -28.333 -23.001 -45s-7 -33.334 -7 -50.001v-25h265zM133 219.001
c0 -26 2.5 -49.5 7.5 -70.5s13 -39 24 -54s25.5 -26.5 43.5 -34.5s39.667 -12 65 -12c50.667 0 86.5 15.5 107.5 46.5s31.5 72.5 31.5 124.5v76c0 51.333 -10.667 92.333 -32 123s-57 46 -107 46c-25.333 0 -46.833 -4 -64.5 -12s-32.167 -19.333 -43.5 -34
s-19.5 -32.5 -24.5 -53.5s-7.5 -44.167 -7.5 -69.5v-76z" />
    <glyph glyph-name="Ydieresis" unicode="&#x178;" horiz-adv-x="574" 
d="M371 773c-12.667 0 -23.5 4.5 -32.5 13.5s-13.5 19.5 -13.5 31.5c0 12.667 4.5 23.5 13.5 32.5s19.833 13.5 32.5 13.5c11.333 0 21.5 -4.5 30.5 -13.5s13.5 -19.833 13.5 -32.5c0 -12 -4.5 -22.5 -13.5 -31.5s-19.167 -13.5 -30.5 -13.5zM204 773
c-12.667 0 -23.334 4.5 -32.001 13.5s-13 19.5 -13 31.5c0 12.667 4.33301 23.5 13 32.5s19.334 13.5 32.001 13.5c12 0 22.333 -4.5 31 -13.5s13 -19.833 13 -32.5c0 -12 -4.33301 -22.5 -13 -31.5s-19 -13.5 -31 -13.5zM252 292
c-28 3.33301 -51.668 10.998 -71.001 22.998s-35.333 26.833 -48 44.5s-22.667 37.5 -30 59.5s-13.333 44.667 -18 68l-40 211h68l39 -200c4 -18 8.5 -35.833 13.5 -53.5s12.333 -33.5 22 -47.5s22.334 -25.167 38.001 -33.5s36.167 -12.5 61.5 -12.5s46 4.16699 62 12.5
s28.833 19.333 38.5 33s17 29.334 22 47.001s9.16699 35.834 12.5 54.501l38 200h69l-40 -211c-4.66699 -23.333 -10.667 -46 -18 -68s-17.5 -41.833 -30.5 -59.5s-29.167 -32.5 -48.5 -44.5s-43 -19.667 -71 -23v-292h-69v292z" />
    <glyph glyph-name="tilde" unicode="&#x2dc;" horiz-adv-x="410" 
d="M74 643c13.333 19.333 26.333 32.666 39 39.999s27 11 43 11c10.667 0 20.5 -2 29.5 -6s17.5 -8.5 25.5 -13.5l22.5 -13.5c7 -4 13.833 -6 20.5 -6c9.33301 0 18 2.5 26 7.5s16.667 13.167 26 24.5l29 -35c-13.333 -19.333 -26.333 -32.666 -39 -39.999
s-26.667 -11 -42 -11c-10.667 0 -20.5 2 -29.5 6s-17.5 8.5 -25.5 13.5l-22.5 13.5c-7 4 -13.833 6 -20.5 6c-10 0 -19 -2.33301 -27 -7s-16.667 -12.667 -26 -24z" />
    <glyph glyph-name="endash" unicode="&#x2013;" horiz-adv-x="500" 
d="M0 314h500v-60h-500v60z" />
    <glyph glyph-name="emdash" unicode="&#x2014;" horiz-adv-x="1000" 
d="M-1 314h1000v-60h-1000v60z" />
    <glyph glyph-name="quoteleft" unicode="&#x2018;" horiz-adv-x="235" 
d="M133 698h51l-50 -212h-69z" />
    <glyph glyph-name="quoteright" unicode="&#x2019;" horiz-adv-x="236" 
d="M115 698h69l-68 -212h-51z" />
    <glyph glyph-name="quotedblleft" unicode="&#x201c;" horiz-adv-x="369" 
d="M268 698h51l-51 -212h-68zM135 698h51l-51 -212h-68z" />
    <glyph glyph-name="quotedblright" unicode="&#x201d;" horiz-adv-x="369" 
d="M247 698h68l-68 -212h-51zM114 698h69l-69 -212h-51z" />
    <glyph glyph-name="quotedblbase" unicode="&#x201e;" horiz-adv-x="373" 
d="M251 80h68l-68 -212h-51zM183 80l-69 -212h-51l51 212h69z" />
    <glyph glyph-name="bullet" unicode="&#x2022;" horiz-adv-x="525" 
d="M262 153c-20.667 0 -40.334 4 -59.001 12s-35 18.833 -49 32.5s-25 29.667 -33 48s-12 38.166 -12 59.499s4 41.333 12 60s19 34.834 33 48.501s30.333 24.5 49 32.5s38.334 12 59.001 12s40.334 -4 59.001 -12s35 -18.833 49 -32.5s25.167 -29.834 33.5 -48.501
s12.5 -38.667 12.5 -60s-4.16699 -41.166 -12.5 -59.499s-19.5 -34.333 -33.5 -48s-30.333 -24.5 -49 -32.5s-38.334 -12 -59.001 -12z" />
    <glyph glyph-name="ellipsis" unicode="&#x2026;" horiz-adv-x="843" 
d="M687 37c0 13.333 4.66699 24.666 14 33.999s20.666 14 33.999 14s24.5 -4.66699 33.5 -14s13.5 -20.666 13.5 -33.999s-4.5 -24.666 -13.5 -33.999s-20.167 -14 -33.5 -14s-24.666 4.66699 -33.999 14s-14 20.666 -14 33.999zM374 37c0 13.333 4.5 24.666 13.5 33.999
s20.167 14 33.5 14s24.666 -4.66699 33.999 -14s14 -20.666 14 -33.999s-4.66699 -24.666 -14 -33.999s-20.666 -14 -33.999 -14s-24.5 4.66699 -33.5 14s-13.5 20.666 -13.5 33.999zM60 37c0 13.333 4.66699 24.666 14 33.999s20.666 14 33.999 14
s24.666 -4.66699 33.999 -14s14 -20.666 14 -33.999s-4.66699 -24.666 -14 -33.999s-20.666 -14 -33.999 -14s-24.666 4.66699 -33.999 14s-14 20.666 -14 33.999z" />
    <glyph glyph-name="guilsinglleft" unicode="&#x2039;" horiz-adv-x="370" 
d="M74 270l149 187l52 -40l-119 -147l119 -147l-52 -39z" />
    <glyph glyph-name="guilsinglright" unicode="&#x203a;" horiz-adv-x="370" 
d="M214 270l-119 147l52 40l148 -187l-148 -186l-53 39z" />
    <glyph glyph-name="Euro" unicode="&#x20ac;" horiz-adv-x="548" 
d="M48 296l59.999 0.00195312v105h-60v52h60c1.33301 83.333 21.333 147.166 60 191.499s97.334 66.5 176.001 66.5c26.667 0 53.167 -1.83301 79.5 -5.5s52.833 -9.16699 79.5 -16.5l-14 -60c-24 6 -48.167 10.833 -72.5 14.5s-48.5 5.5 -72.5 5.5
c-30.667 0 -56.5 -4.33301 -77.5 -13s-38 -21.5 -51 -38.5s-22.333 -37.667 -28 -62s-8.83398 -51.833 -9.50098 -82.5h232l-9 -52h-223v-105h232l-9 -51h-223c0.666992 -30 3.83398 -57.167 9.50098 -81.5s14.834 -45 27.501 -62s29.5 -30 50.5 -39
s47.167 -13.5 78.5 -13.5c24 0 48.167 1.83301 72.5 5.5s48.5 8.16699 72.5 13.5l14 -59c-26.667 -7.33301 -53.167 -12.833 -79.5 -16.5s-52.833 -5.5 -79.5 -5.5c-78.667 0 -137.334 22.167 -176.001 66.5s-58.667 108.166 -60 191.499h-60v51z" />
    <glyph glyph-name="trademark" unicode="&#x2122;" horiz-adv-x="737" 
d="M355 698h61l89 -236l90 236h60l38 -340h-55l-25 247l-77 -207h-61l-77 207l-25 -247h-55zM144 650h-97v48h248v-48h-97v-292h-54v292z" />
    <glyph glyph-name=".null" horiz-adv-x="0" 
 />
    <glyph glyph-name="nonmarkingreturn" horiz-adv-x="333" 
 />
    <glyph glyph-name="cdotaccent.smcp" horiz-adv-x="492" 
d="M260 653c-12.667 0 -23.5 4.33301 -32.5 13s-13.5 19.334 -13.5 32.001c0 12 4.5 22.667 13.5 32s19.833 14 32.5 14c11.333 0 21.5 -4.66699 30.5 -14s13.5 -20 13.5 -32c0 -12.667 -4.5 -23.334 -13.5 -32.001s-19.167 -13 -30.5 -13zM64 365
c0 68 18.165 119.996 54.498 155.996s87.833 54 154.5 54c28.667 0 56.167 -2.16699 82.5 -6.5s53.5 -10.166 81.5 -17.499l-13 -59c-24 6.66699 -48 12 -72 16s-48.667 6 -74 6c-29.333 0 -53.333 -4.16699 -72 -12.5s-33.5 -19.666 -44.5 -33.999
s-18.5 -31.166 -22.5 -50.499s-6 -39.666 -6 -60.999v-149c0 -22 2 -42.5 6 -61.5s11.5 -35.833 22.5 -50.5s25.833 -26.167 44.5 -34.5s42.667 -12.5 72 -12.5c26.667 0 51.5 2 74.5 6s46.833 9 71.5 15l13 -57c-27.333 -7.33301 -53.666 -13.333 -78.999 -18
s-53.666 -7 -84.999 -7c-66.667 0 -118.167 18 -154.5 54s-54.5 88 -54.5 156v168z" />
    </font>
</defs>
</svg>
