<?xml version="1.0" standalone="no"?>
<!DOCTYPE svg PUBLIC "-//W3C//DTD SVG 1.1//EN" "http://www.w3.org/Graphics/SVG/1.1/DTD/svg11.dtd" >
<svg>
<metadata>
Created by FontForge 20090914 at Tue Jun 24 23:08:28 2014
 By www-data
Copyright (c) 2008 by Moretype. All rights reserved.
</metadata>
<defs>
<font id="AlwynNew-Regular" horiz-adv-x="553" >
  <font-face 
    font-family="Alwyn New Rg"
    font-weight="400"
    font-stretch="normal"
    units-per-em="1000"
    panose-1="2 11 5 3 0 0 0 2 0 4"
    ascent="795"
    descent="-205"
    x-height="515"
    cap-height="698"
    bbox="-69.999 -221.999 999 899"
    underline-thickness="20"
    underline-position="-113"
    unicode-range="U+0020-U+2122"
  />
<missing-glyph horiz-adv-x="500" 
d="M50 768h400v-768h-400v768zM405 46v675h-310v-675h310z" />
    <glyph glyph-name=".notdef" horiz-adv-x="500" 
d="M50 768h400v-768h-400v768zM405 46v675h-310v-675h310z" />
    <glyph glyph-name="space" unicode=" " horiz-adv-x="240" 
 />
    <glyph glyph-name="exclam" unicode="!" horiz-adv-x="357" 
d="M124 698h110l-13 -469l-84 -13zM119 47c0 16.667 5.83301 30.667 17.5 42s25.5 17 41.5 17c16.667 0 30.834 -5.66699 42.501 -17s17.5 -25.333 17.5 -42s-5.83301 -30.667 -17.5 -42s-25.834 -17 -42.501 -17c-16 0 -29.833 5.66699 -41.5 17s-17.5 25.333 -17.5 42z
" />
    <glyph glyph-name="quotedbl" unicode="&#x22;" horiz-adv-x="341" 
d="M203 698h89l-7 -235h-75zM49 698h88l-7 -235h-74z" />
    <glyph glyph-name="numbersign" unicode="#" horiz-adv-x="541" 
d="M138 293h-75v82h75v105h-75v82h75v136h82v-136h101v136h82v-136h75v-82h-75v-105h75v-82h-75v-136h-82v136h-101v-136h-82v136zM321 375v105h-101v-105h101z" />
    <glyph glyph-name="dollar" unicode="$" horiz-adv-x="530" 
d="M66 103c31.333 -9.33301 60.667 -17.5 88 -24.5s57 -10.5 89 -10.5c46 0 79.333 10.833 100 32.5s31 49.5 31 83.5c0 26.667 -7.83301 47.667 -23.5 63s-35 28.5 -58 39.5s-48.167 21.333 -75.5 31s-52.5 22 -75.5 37s-42.333 33.833 -58 56.5s-23.5 53 -23.5 91
c0 52 15.667 94 47 126s73.333 51.667 126 59v115h74v-112c24 -1.33301 47.333 -5.16602 70 -11.499s46.667 -14.166 72 -23.499l-24 -75c-26 9.33301 -50 16.666 -72 21.999s-45.667 8 -71 8c-40.667 0 -71.334 -9.5 -92.001 -28.5s-31 -45.5 -31 -79.5
c0 -24 7.83301 -43 23.5 -57s35 -26.333 58 -37s48.167 -21.167 75.5 -31.5s52.5 -23.333 75.5 -39s42.333 -35.5 58 -59.5s23.5 -55.333 23.5 -94c0 -52 -15.5 -94.833 -46.5 -128.5s-73.833 -54.834 -128.5 -63.501v-116h-74v111c-30.667 1.33301 -59.667 5.33301 -87 12
s-56.666 14.667 -87.999 24z" />
    <glyph glyph-name="percent" unicode="%" horiz-adv-x="860" 
d="M222 326c-23.333 0 -44.3359 4.16504 -63.0029 12.498s-34.5 19.666 -47.5 33.999s-22.833 30.833 -29.5 49.5s-10 38 -10 58v63c0 20 3.33301 39.167 10 57.5s16.334 34.5 29.001 48.5s28.334 25.333 47.001 34s39.667 13 63 13s44.333 -4.16699 63 -12.5
s34.5 -19.666 47.5 -33.999s22.833 -30.666 29.5 -48.999s10 -37.5 10 -57.5v-63c0 -20 -3.33301 -39.333 -10 -58s-16.5 -35.167 -29.5 -49.5s-28.667 -25.666 -47 -33.999s-39.166 -12.5 -62.499 -12.5zM532.997 688.998h71l-275 -689h-70zM221.997 387.998
c28 0 48.5 9.66699 61.5 29s19.5 42 19.5 68v52c0 26 -6.66699 48.667 -20 68s-34 29 -62 29s-48.5 -9.5 -61.5 -28.5s-19.5 -41.833 -19.5 -68.5v-52c0 -26 6.66699 -48.667 20 -68s34 -29 62 -29zM488.997 205.998c0 20 3.33008 39.165 9.99707 57.498
s16.334 34.5 29.001 48.5s28.334 25.333 47.001 34s39.667 13 63 13s44.333 -4.16699 63 -12.5s34.5 -19.666 47.5 -33.999s22.833 -30.666 29.5 -48.999s10 -37.5 10 -57.5v-63c0 -20 -3.33301 -39.333 -10 -58s-16.5 -35.167 -29.5 -49.5s-28.667 -25.666 -47 -33.999
s-39.166 -12.5 -62.499 -12.5s-44.333 4.16699 -63 12.5s-34.5 19.666 -47.5 33.999s-22.833 30.833 -29.5 49.5s-10 38 -10 58v63zM556.994 147.996c0 -26 6.66699 -48.667 20 -68s34 -29 62 -29s48.5 9.66699 61.5 29s19.5 42 19.5 68v52c0 26 -6.66699 48.667 -20 68
s-34 29 -62 29s-48.5 -9.5 -61.5 -28.5s-19.5 -41.833 -19.5 -68.5v-52z" />
    <glyph glyph-name="ampersand" unicode="&#x26;" horiz-adv-x="598" 
d="M63 199c0 44 10.835 80.667 32.502 110s51.5 51.333 89.5 66c-29.333 15.333 -52.5 36 -69.5 62s-25.5 58 -25.5 96c0 30.667 6 58.667 18 84s28.5 46.833 49.5 64.5s45.5 31.334 73.5 41.001s58.333 14.5 91 14.5c44.667 0 90 -6.33301 136 -19l-16 -80
c-38.667 10.667 -78.334 16 -119.001 16s-73.334 -10.167 -98.001 -30.5s-37 -50.5 -37 -90.5c0 -41.333 12.333 -72.333 37 -93s57.334 -31 98.001 -31h244v-76h-53v-303c-32 -13.333 -64.5 -23.833 -97.5 -31.5s-67.5 -11.5 -103.5 -11.5c-38 0 -72.333 4.83301 -103 14.5
s-56.834 23.667 -78.501 42s-38.5 40.666 -50.5 66.999s-18 55.833 -18 88.5zM162.002 200c0 -44 13.166 -76.833 39.499 -98.5s63.833 -32.5 112.5 -32.5c20 0 40.833 2 62.5 6s40.834 9 57.501 15v243h-119c-48 0 -85.5 -11.167 -112.5 -33.5s-40.5 -55.5 -40.5 -99.5z
" />
    <glyph glyph-name="quotesingle" unicode="'" horiz-adv-x="186" 
d="M49 698h88l-7 -235h-74z" />
    <glyph glyph-name="parenleft" unicode="(" horiz-adv-x="309" 
d="M80 586c0 38.667 5.00098 71 15.001 97s23.667 46.667 41 62s37.833 26.333 61.5 33s49.5 10 77.5 10v-81c-35.333 0 -61.5 -8.83301 -78.5 -26.5s-25.5 -49.167 -25.5 -94.5v-606c0 -45.333 8.33301 -77 25 -95s43 -27 79 -27v-79c-28.667 0 -54.834 3.33301 -78.501 10
s-44.167 17.667 -61.5 33s-30.833 36 -40.5 62s-14.5 58 -14.5 96v606z" />
    <glyph glyph-name="parenright" unicode=")" horiz-adv-x="309" 
d="M137 586c0 45.333 -8.33301 76.8389 -25 94.5059s-42.667 26.5 -78 26.5v81c28 0 53.833 -3.33301 77.5 -10s44.167 -17.834 61.5 -33.501s31 -36.334 41 -62.001s15 -57.834 15 -96.501v-606c0 -38.667 -5 -70.834 -15 -96.501s-23.667 -46.334 -41 -62.001
s-37.833 -26.667 -61.5 -33s-49.5 -9.5 -77.5 -9.5v81c35.333 0 61.333 8.66699 78 26s25 48.666 25 93.999v606z" />
    <glyph glyph-name="asterisk" unicode="*" horiz-adv-x="477" 
d="M204 444l-112 -71l-41 70l117 61l-117 61l41 71l111 -71l-6 133h82l-6 -133l112 71l41 -71l-118 -61l118 -61l-41 -70l-112 71l6 -133h-82z" />
    <glyph glyph-name="plus" unicode="+" horiz-adv-x="632" 
d="M89 355h185v186h83v-186h186v-83h-186v-186h-83v186h-185v83z" />
    <glyph glyph-name="comma" unicode="," horiz-adv-x="246" 
d="M188 102l-81 -250h-70l58 250h93z" />
    <glyph glyph-name="hyphen" unicode="-" horiz-adv-x="488" 
d="M85 318h318v-77h-318v77z" />
    <glyph glyph-name="period" unicode="." horiz-adv-x="228" 
d="M55 48c0 16.667 5.83301 30.667 17.5 42s25.5 17 41.5 17c16.667 0 30.667 -5.66699 42 -17s17 -25.333 17 -42s-5.66699 -30.667 -17 -42s-25.333 -17 -42 -17c-16 0 -29.833 5.66699 -41.5 17s-17.5 25.333 -17.5 42z" />
    <glyph glyph-name="slash" unicode="/" horiz-adv-x="443" 
d="M288 741h87l-220 -778h-87z" />
    <glyph glyph-name="zero" unicode="0" horiz-adv-x="590" 
d="M59 433c0 87.333 20.667 155.5 62 204.5s99.333 73.5 174 73.5c37.333 0 70.666 -6.5 99.999 -19.5s54 -31.667 74 -56s35.167 -53.666 45.5 -87.999s15.5 -72.5 15.5 -114.5v-167c0 -88 -20.333 -156.5 -61 -205.5s-98.667 -73.5 -174 -73.5
c-37.333 0 -70.666 6.5 -99.999 19.5s-54 31.667 -74 56s-35.333 53.666 -46 87.999s-16 72.833 -16 115.5v167zM295 67c27.333 0 50 5.5 68 16.5s32.5 26 43.5 45s18.833 41.167 23.5 66.5s7 52.333 7 81v147c0 28.667 -2.33301 55.5 -7 80.5s-12.5 47 -23.5 66
s-25.5 34 -43.5 45s-40.667 16.5 -68 16.5c-28 0 -51 -5.5 -69 -16.5s-32.5 -25.833 -43.5 -44.5s-18.667 -40.667 -23 -66s-6.5 -52.333 -6.5 -81v-147c0 -28.667 2.16699 -55.667 6.5 -81s12 -47.5 23 -66.5s25.5 -34 43.5 -45s41 -16.5 69 -16.5z" />
    <glyph glyph-name="one" unicode="1" horiz-adv-x="462" 
d="M68 78h148v526l-146 -61l-33 74l197 81h74v-620h126v-78h-366v78z" />
    <glyph glyph-name="two" unicode="2" horiz-adv-x="521" 
d="M48 72c0 45.333 7.8252 83.999 23.4922 115.999s35.334 60 59.001 84s49.334 45.167 77.001 63.5s53.334 36.5 77.001 54.5s43.334 37 59.001 57s23.5 43.667 23.5 71c0 14 -2.16699 27.833 -6.5 41.5s-11.166 25.667 -20.499 36s-21.833 18.833 -37.5 25.5
s-34.5 10 -56.5 10c-25.333 0 -50.666 -3.5 -75.999 -10.5s-50.666 -16.167 -75.999 -27.5l-30 73c30 14 60.333 25 91 33s61.334 12 92.001 12c33.333 0 63.166 -5 89.499 -15s48.833 -23.833 67.5 -41.5s32.834 -38.167 42.501 -61.5s14.5 -48.333 14.5 -75
c0 -36 -7.83301 -67 -23.5 -93s-35.5 -49.333 -59.5 -70s-49.667 -40 -77 -58s-53 -37.333 -77 -58s-43.833 -43.667 -59.5 -69s-23.5 -55.666 -23.5 -90.999h325v-57c0 -14.667 -7.33301 -22 -22 -22h-396v72z" />
    <glyph glyph-name="three" unicode="3" horiz-adv-x="468" 
d="M46 92c22 -9.33301 43.833 -15.833 65.5 -19.5s43.834 -5.5 66.501 -5.5c48 0 84 12 108 36s36 54.667 36 92c0 24 -4 44.333 -12 61s-18.833 30.167 -32.5 40.5s-29.667 18 -48 23s-37.833 7.5 -58.5 7.5h-46v77h40c46 0 80.5 11.667 103.5 35s34.5 51.333 34.5 84
c0 14.667 -2.5 28.5 -7.5 41.5s-12.667 24.5 -23 34.5s-23.166 17.833 -38.499 23.5s-33.333 8.5 -54 8.5s-40.834 -2.33301 -60.501 -7s-40.167 -11 -61.5 -19l-26 72c25.333 11.333 50 19.833 74 25.5s48.667 8.5 74 8.5c30.667 0 59.167 -4.16699 85.5 -12.5
s49.333 -20.333 69 -36s35 -35 46 -58s16.5 -49.5 16.5 -79.5c0 -13.333 -2.16699 -27.333 -6.5 -42s-10.833 -29 -19.5 -43s-19.834 -27.167 -33.501 -39.5s-29.5 -22.833 -47.5 -31.5c42.667 -15.333 74.334 -38.5 95.001 -69.5s31 -65.833 31 -104.5
c0 -28 -5 -54.667 -15 -80s-24.833 -47.5 -44.5 -66.5s-44.334 -34 -74.001 -45s-64.5 -16.5 -104.5 -16.5c-26.667 0 -52.5 2.16699 -77.5 6.5s-50.5 11.833 -76.5 22.5z" />
    <glyph glyph-name="four" unicode="4" horiz-adv-x="565" 
d="M141 154c-38 0 -65.167 9.16699 -81.5 27.5s-19.833 47.833 -10.5 88.5l98 428h87l-96 -431c-2.66699 -11.333 -2.5 -19.833 0.5 -25.5s10.167 -8.5 21.5 -8.5h143v261l90 19v-280h129v-79h-129v-154h-90v154h-162v0z" />
    <glyph glyph-name="five" unicode="5" horiz-adv-x="520" 
d="M57 104c28 -10.667 55.0029 -19.499 81.0029 -26.499s53.667 -10.5 83 -10.5c25.333 0 47.666 4.33301 66.999 13s35.5 20.167 48.5 34.5s22.833 30.833 29.5 49.5s10 38.334 10 59.001c0 19.333 -2.5 37.666 -7.5 54.999s-13.167 32.666 -24.5 45.999
s-25.833 24 -43.5 32s-38.834 12 -63.501 12c-23.333 0 -46.5 -2.66699 -69.5 -8s-45.833 -12.666 -68.5 -21.999l-36 57v303h374l-7 -79h-281v-184c30.667 8 61.334 12 92.001 12c36.667 0 69.167 -5.5 97.5 -16.5s52.166 -26.333 71.499 -46
s34.166 -43.334 44.499 -71.001s15.5 -57.834 15.5 -90.501c0 -36.667 -6.5 -69.5 -19.5 -98.5s-30.833 -53.667 -53.5 -74s-49.334 -36 -80.001 -47s-63.667 -16.5 -99 -16.5c-32 0 -62.167 3.33301 -90.5 10s-58.166 16.334 -89.499 29.001z" />
    <glyph glyph-name="six" unicode="6" horiz-adv-x="556" 
d="M58 479c0 30.667 4.66699 60.166 14 88.499s23.5 53 42.5 74s43.167 37.833 72.5 50.5s64 19 104 19c54.667 0 108.667 -10 162 -30l-22 -77c-23.333 8.66699 -46.166 15.334 -68.499 20.001s-45.5 7 -69.5 7c-28 0 -51.333 -4.66699 -70 -14
s-33.334 -21.333 -44.001 -36s-18.167 -31 -22.5 -49s-6.5 -35.667 -6.5 -53v-62c22.667 13.333 44.667 23.333 66 30s44 10 68 10c30.667 0 59.667 -5.16699 87 -15.5s51 -25.666 71 -45.999s35.833 -45.333 47.5 -75s17.5 -63.834 17.5 -102.501
c0 -37.333 -5.83301 -70.333 -17.5 -99s-27.834 -52.834 -48.501 -72.501s-44.667 -34.5 -72 -44.5s-56.333 -15 -87 -15s-59.667 5 -87 15s-51.166 24.833 -71.499 44.5s-36.333 43.834 -48 72.501s-17.5 61.667 -17.5 99v261zM150 216.999
c0 -20.667 2.66309 -40.001 7.99609 -58.001s13.333 -33.833 24 -47.5s24.334 -24.5 41.001 -32.5s36.334 -12 59.001 -12s42.334 4 59.001 12s30.334 18.833 41.001 32.5s18.5 29.667 23.5 48s7.5 37.833 7.5 58.5c0 22 -2.66699 42.833 -8 62.5s-13.5 36.667 -24.5 51
s-24.833 25.833 -41.5 34.5s-36.667 13 -60 13s-45.333 -3.16699 -66 -9.5s-41.667 -16.166 -63 -29.499v-123z" />
    <glyph glyph-name="seven" unicode="7" horiz-adv-x="492" 
d="M167 0c0.666992 64.667 7.17383 123.329 19.5068 175.996s27.666 102.834 45.999 150.501s38.666 94.834 60.999 141.501s44.166 96.667 65.499 150h-333v80h435v-66c-20.667 -57.333 -42.334 -109.333 -65.001 -156s-43.834 -93.667 -63.501 -141
s-35.834 -97.666 -48.501 -150.999s-19.334 -114.666 -20.001 -183.999h-97v0z" />
    <glyph glyph-name="eight" unicode="8" 
d="M48 175c0 25.333 3.50098 47.5 10.501 66.5s16.5 35.833 28.5 50.5s26 27.334 42 38.001s32.667 20.667 50 30c-15.333 8.66699 -29.833 18.167 -43.5 28.5s-25.5 22.166 -35.5 35.499s-18 28.666 -24 45.999s-9 37.333 -9 60c0 27.333 5.66699 52.166 17 74.499
s26.5 41.333 45.5 57s41.167 27.834 66.5 36.501s52 13 80 13c27.333 0 53.666 -4.33301 78.999 -13s47.666 -20.834 66.999 -36.501s34.833 -34.667 46.5 -57s17.5 -47.166 17.5 -74.499c0 -21.333 -3 -40.333 -9 -57s-14.167 -31.334 -24.5 -44.001s-22.5 -24 -36.5 -34
s-28.667 -19 -44 -27c18 -9.33301 35 -19.666 51 -30.999s30 -24.666 42 -39.999s21.5 -33 28.5 -53s10.5 -43 10.5 -69c0 -28 -5.66699 -53.5 -17 -76.5s-27 -42.667 -47 -59s-44 -29.166 -72 -38.499s-58.667 -14 -92 -14s-63.833 4.66699 -91.5 14
s-51.667 22.166 -72 38.499s-36.166 36 -47.499 59s-17 48.5 -17 76.5zM283.001 408c14.667 6.66699 28.666 13.834 41.999 21.501s25 16.167 35 25.5s17.833 20.166 23.5 32.499s8.5 26.5 8.5 42.5c0 28.667 -10.833 52.667 -32.5 72s-49.5 29 -83.5 29
c-34.667 0 -62.5 -9.83301 -83.5 -29.5s-31.5 -43.5 -31.5 -71.5c0 -16 3.33301 -30.167 10 -42.5s15.5 -23.166 26.5 -32.499s23.833 -17.833 38.5 -25.5s30.334 -14.834 47.001 -21.501zM142 175c0 -14.667 2.99902 -28.502 8.99902 -41.502s14.667 -24.5 26 -34.5
s25.333 -17.833 42 -23.5s35.667 -8.5 57 -8.5c22 0 41.5 3 58.5 9s31 14 42 24s19.333 21.5 25 34.5s8.5 26.5 8.5 40.5c0 20 -3.83301 37.333 -11.5 52s-18 27.5 -31 38.5s-28.167 20.667 -45.5 29s-35.333 16.5 -54 24.5c-16.667 -8 -32.667 -16.167 -48 -24.5
s-28.666 -18.166 -39.999 -29.499s-20.5 -24.166 -27.5 -38.499s-10.5 -31.5 -10.5 -51.5z" />
    <glyph glyph-name="nine" unicode="9" horiz-adv-x="560" 
d="M127 96c23.333 -8 46.334 -14.834 69.001 -20.501s46 -8.5 70 -8.5c28 0 51.333 4.66699 70 14s33.5 21.333 44.5 36s18.667 31 23 49s6.5 35.667 6.5 53v63c-23.333 -14 -45.833 -24 -67.5 -30s-44.167 -9 -67.5 -9c-31.333 0 -60.5 5 -87.5 15s-50.5 25 -70.5 45
s-35.833 44.667 -47.5 74s-17.5 63.333 -17.5 102c0 37.333 5.83301 70.333 17.5 99s27.834 52.834 48.501 72.501s44.5 34.667 71.5 45s56.167 15.5 87.5 15.5c30.667 0 59.667 -5.16699 87 -15.5s51.166 -25.333 71.499 -45s36.5 -43.834 48.5 -72.501s18 -61.667 18 -99
v-260c0 -31.333 -4.66699 -61 -14 -89s-23.5 -52.667 -42.5 -74s-43.333 -38.166 -73 -50.499s-64.5 -18.5 -104.5 -18.5c-28 0 -55.333 2.83301 -82 8.5s-53.334 13.5 -80.001 23.5zM280.001 319.999c23.333 0 45.333 3.33105 66 9.99805s42 16.667 64 30v120
c0 20.667 -2.66699 40.167 -8 58.5s-13.5 34.333 -24.5 48s-24.833 24.5 -41.5 32.5s-36.334 12 -59.001 12c-23.333 0 -43.166 -4 -59.499 -12s-29.833 -19 -40.5 -33s-18.5 -30.167 -23.5 -48.5s-7.5 -37.833 -7.5 -58.5c0 -22 2.66699 -42.667 8 -62
s13.5 -36.166 24.5 -50.499s24.833 -25.666 41.5 -33.999s36.667 -12.5 60 -12.5z" />
    <glyph glyph-name="colon" unicode=":" horiz-adv-x="228" 
d="M114 367c-16.667 0 -30.667 5.66699 -42 17s-17 25.333 -17 42c0 16 5.66699 29.833 17 41.5s25.333 17.5 42 17.5s30.667 -5.83301 42 -17.5s17 -25.5 17 -41.5c0 -16.667 -5.66699 -30.667 -17 -42s-25.333 -17 -42 -17zM55 48c0 16.667 5.66699 30.667 17 42
s25.333 17 42 17s30.667 -5.66699 42 -17s17 -25.333 17 -42s-5.66699 -30.667 -17 -42s-25.333 -17 -42 -17s-30.667 5.66699 -42 17s-17 25.333 -17 42z" />
    <glyph glyph-name="semicolon" unicode=";" horiz-adv-x="259" 
d="M146 367c-16 0 -29.667 5.83301 -41 17.5s-17 25.5 -17 41.5s5.66699 29.667 17 41s25 17 41 17c16.667 0 30.667 -5.66699 42 -17s17 -25 17 -41s-5.66699 -29.833 -17 -41.5s-25.333 -17.5 -42 -17.5zM187 102l-81 -250h-70l58 250h93z" />
    <glyph glyph-name="less" unicode="&#x3c;" horiz-adv-x="578" 
d="M69 306l380 226l40 -79l-306 -178l306 -179l-40 -78l-380 226v62z" />
    <glyph glyph-name="equal" unicode="=" horiz-adv-x="633" 
d="M89 465h455v-83h-455v83zM89 244h455v-83h-455v83z" />
    <glyph glyph-name="greater" unicode="&#x3e;" horiz-adv-x="579" 
d="M89 97l303 178l-303 177l40 80l381 -226v-63l-381 -226z" />
    <glyph glyph-name="question" unicode="?" horiz-adv-x="463" 
d="M170 208c0 39.333 3.33398 72.834 10.001 100.501s15.167 51.167 25.5 70.5s21.333 35.833 33 49.5l33 38.5c10.333 12 18.833 24.167 25.5 36.5s10 27.166 10 44.499c0 21.333 -7.16699 40.166 -21.5 56.499s-35.5 24.5 -63.5 24.5
c-21.333 0 -41.833 -3.83301 -61.5 -11.5s-39.5 -17.167 -59.5 -28.5l-36 73c51.333 32.667 103.666 49 156.999 49c28 0 52.833 -4.33301 74.5 -13s40 -20.5 55 -35.5s26.5 -32.167 34.5 -51.5s12 -39.333 12 -60c0 -21.333 -3.33301 -39.666 -10 -54.999
s-15.167 -29.666 -25.5 -42.999s-21.5 -26.833 -33.5 -40.5s-23.167 -29.334 -33.5 -47.001s-18.833 -38.5 -25.5 -62.5s-10 -52.667 -10 -86zM156.001 48.001c0 16.667 5.83301 30.667 17.5 42s25.5 17 41.5 17c16.667 0 30.667 -5.66699 42 -17s17 -25.333 17 -42
c0 -16 -5.66699 -29.833 -17 -41.5s-25.333 -17.5 -42 -17.5c-16 0 -29.833 5.83301 -41.5 17.5s-17.5 25.5 -17.5 41.5z" />
    <glyph glyph-name="at" unicode="@" horiz-adv-x="959" 
d="M66 243c0 65.333 10.6699 123.995 32.0029 175.995s51 96 89 132s82.667 63.667 134 83s107 29 167 29s115 -10 165 -30s93.333 -48.5 130 -85.5s65.167 -81.5 85.5 -133.5s30.5 -110.333 30.5 -175c0 -26 -3.16699 -53 -9.5 -81s-16.666 -53.667 -30.999 -77
s-33 -42.666 -56 -57.999s-51.167 -23 -84.5 -23c-60.667 0 -102.334 20 -125.001 60c-16 -15.333 -35.167 -29.166 -57.5 -41.499s-50.166 -18.5 -83.499 -18.5c-46.667 0 -83 12.833 -109 38.5s-39 59.834 -39 102.501c0 24.667 5 45.834 15 63.501s23.833 32 41.5 43
s38.667 19 63 24s51.166 7.5 80.499 7.5h67v33c0 35.333 -6.83301 61.666 -20.5 78.999s-38.5 26 -74.5 26c-23.333 0 -44.333 -1.66699 -63 -5s-39 -8.33301 -61 -15l-18 67c24.667 7.33301 48.167 13.333 70.5 18s46.166 7 71.499 7c59.333 0 103.666 -15.667 132.999 -47
s44 -71.333 44 -120v-167c0 -28 5.66699 -49.333 17 -64s27.333 -22 48 -22c18 0 33.833 5 47.5 15s25 23 34 39s15.833 34.167 20.5 54.5s7 40.833 7 61.5c0 54 -8.33301 103 -25 147s-40 81.333 -70 112s-65.833 54.334 -107.5 71.001s-87.167 25 -136.5 25
c-50 0 -96.5 -8 -139.5 -24s-80 -39 -111 -69s-55.333 -66.667 -73 -110s-26.5 -92.666 -26.5 -147.999c0 -57.333 8.83301 -107.5 26.5 -150.5s41.667 -78.833 72 -107.5s66 -50.167 107 -64.5s84.833 -21.5 131.5 -21.5c25.333 0 50.666 2 75.999 6s50.333 9.33301 75 16
l14 -66c-26 -8 -53.5 -14 -82.5 -18s-56.5 -6 -82.5 -6c-54.667 0 -106.667 8.66699 -156 26s-92.833 43.333 -130.5 78s-67.5 77.667 -89.5 129s-33 111 -33 179zM386.003 140.995c0 -21.333 6.33301 -38.332 19 -50.999s31.667 -19 57 -19c22 0 42.333 4.33301 61 13
s35.667 19.334 51 32.001c-2 10.667 -3 23 -3 37v62h-63c-17.333 0 -33.5 -1 -48.5 -3s-28 -5.83301 -39 -11.5s-19.5 -13.334 -25.5 -23.001s-9 -21.834 -9 -36.501z" />
    <glyph glyph-name="A" unicode="A" horiz-adv-x="655" 
d="M195 596c9.33301 34 25.167 61.667 47.5 83s50.5 32 84.5 32s62.167 -10.833 84.5 -32.5s37.833 -49.167 46.5 -82.5l157 -596h-95l-51 197h-285l-50 -197h-94zM449.001 277l-77.998 306c-3.33301 13.333 -8.33301 24 -15 32s-16.334 12 -29.001 12
s-22.334 -4 -29.001 -12s-11.667 -18.667 -15 -32l-79 -306h245z" />
    <glyph glyph-name="B" unicode="B" horiz-adv-x="591" 
d="M90 667c34 12.667 67.666 23 100.999 31s67.333 12 102 12c34 0 64.5 -5 91.5 -15s49.833 -23.833 68.5 -41.5s32.834 -38.167 42.501 -61.5s14.5 -48 14.5 -74c0 -32 -7.16699 -60.5 -21.5 -85.5s-35.166 -45.167 -62.499 -60.5c39.333 -14.667 69.166 -37 89.499 -67
s30.5 -64.333 30.5 -103c0 -27.333 -5 -53.166 -15 -77.499s-25 -45.833 -45 -64.5s-44.5 -33.334 -73.5 -44.001s-62.5 -16 -100.5 -16h-222v667zM290.999 403c21.333 0 39.667 3 55 9s27.833 14.167 37.5 24.5s16.834 22.333 21.501 36s7 28.167 7 43.5
s-2.33301 29.833 -7 43.5s-11.834 25.667 -21.501 36s-22 18.5 -37 24.5s-33.167 9 -54.5 9c-37.333 0 -73 -6.33301 -107 -19v-207h106zM310 81c24 0 44.5 3.33203 61.5 9.99902s31.167 15.5 42.5 26.5s19.666 23.833 24.999 38.5s8 30 8 46s-2.5 31.5 -7.5 46.5
s-13 28.333 -24 40s-25.167 20.834 -42.5 27.501s-38.666 10 -63.999 10h-124v-245h125z" />
    <glyph glyph-name="C" unicode="C" horiz-adv-x="567" 
d="M63 452c0 83.333 22 147.329 66 191.996s106 67 186 67c34 0 66.833 -2.66699 98.5 -8s64.5 -12.666 98.5 -21.999l-18 -79c-28 8.66699 -55.833 15.334 -83.5 20.001s-56.167 7 -85.5 7c-30.667 0 -56.5 -4.5 -77.5 -13.5s-38 -21.667 -51 -38s-22.333 -36 -28 -59
s-8.5 -48.833 -8.5 -77.5v-184c0 -28.667 2.83301 -54.667 8.5 -78s15 -43.166 28 -59.499s30 -29 51 -38s46.833 -13.5 77.5 -13.5c32 0 61 2.5 87 7.5s53.333 11.167 82 18.5l18 -77c-32 -9.33301 -63.333 -16.666 -94 -21.999s-65 -8 -103 -8
c-80 0 -142 22.167 -186 66.5s-66 108.5 -66 192.5v206z" />
    <glyph glyph-name="D" unicode="D" horiz-adv-x="653" 
d="M90 698h245c86.667 0 150.834 -20.333 192.501 -61s62.5 -104 62.5 -190v-196c0 -86.667 -20.833 -150.167 -62.5 -190.5s-105.834 -60.5 -192.501 -60.5h-245v698zM333 81c33.333 0 60.333 4.33301 81 13s36.834 20.834 48.501 36.501s19.667 34.667 24 57
s6.5 47.166 6.5 74.499v173c0 27.333 -2.16699 52.166 -6.5 74.499s-12.333 41.333 -24 57s-27.834 27.834 -48.501 36.501s-47.667 13 -81 13h-148v-535h148z" />
    <glyph glyph-name="E" unicode="E" horiz-adv-x="519" 
d="M70 519c0 54 16.667 97.333 50 130s84.333 49 153 49h185v-82h-184c-42.667 0 -71.5 -9.16699 -86.5 -27.5s-22.5 -43.5 -22.5 -75.5v-115h263v-81h-263v-133c0 -32 7.5 -57.167 22.5 -75.5s43.833 -27.5 86.5 -27.5h188v-59c0 -14.667 -7.33301 -22 -22 -22h-167
c-68 -0 -118.833 16.333 -152.5 49s-50.5 75.667 -50.5 129v341z" />
    <glyph glyph-name="F" unicode="F" horiz-adv-x="522" 
d="M90 698h387v-82h-292v-229h261v-81h-261v-306h-95v698z" />
    <glyph glyph-name="G" unicode="G" horiz-adv-x="632" 
d="M63 452c0 83.333 22 147.331 66 191.998s106 67 186 67c38 0 72.333 -2.66699 103 -8s62 -12.666 94 -21.999l-18 -78c-28.667 7.33301 -56 13.5 -82 18.5s-55 7.5 -87 7.5c-30.667 0 -56.5 -4.5 -77.5 -13.5s-38 -21.667 -51 -38s-22.333 -36 -28 -59
s-8.5 -48.833 -8.5 -77.5v-185c0 -28.667 2.83301 -54.667 8.5 -78s15 -43.166 28 -59.499s30 -28.833 51 -37.5s46.833 -13 77.5 -13c26 0 50 2.16699 72 6.5s44.667 9.5 68 15.5v240l91 9v-311c-40 -11.333 -79.333 -21 -118 -29s-79.667 -12 -123 -12
c-80 0 -142 22 -186 66s-66 108 -66 192v207z" />
    <glyph glyph-name="H" unicode="H" horiz-adv-x="674" 
d="M90 698h95v-299h305v299h94v-676c0 -14.667 -7.33301 -22 -22 -22h-72v318h-305v-318h-95v698z" />
    <glyph glyph-name="I" unicode="I" horiz-adv-x="275" 
d="M90 698h95v-676c0 -14.667 -7.33301 -22 -22 -22h-73v698z" />
    <glyph glyph-name="J" unicode="J" horiz-adv-x="484" 
d="M55 89c21.333 -7.33301 41.499 -12.666 60.499 -15.999s39.167 -5 60.5 -5c26.667 0 48.334 4 65.001 12s29.667 19.167 39 33.5s15.666 31.166 18.999 50.499s5 40.333 5 63v471h94v-481c0 -32.667 -4 -63 -12 -91s-21 -52.333 -39 -73s-41.167 -36.834 -69.5 -48.501
s-62.833 -17.5 -103.5 -17.5c-25.333 0 -48.666 1.83301 -69.999 5.5s-44.333 9.83398 -69 18.501z" />
    <glyph glyph-name="K" unicode="K" horiz-adv-x="601" 
d="M90 698h95v-305l98 6l136 299h105l-145 -307c22.667 -6.66699 40.667 -18 54 -34s24.333 -36.333 33 -61l100 -296h-100l-91 270c-5.33301 16 -12.833 28.5 -22.5 37.5s-24.167 12.833 -43.5 11.5l-124 -8v-289c0 -14.667 -7.33301 -22 -22 -22h-73v698z" />
    <glyph glyph-name="L" unicode="L" horiz-adv-x="548" 
d="M90 698h95v-617h317v-59c0 -14.667 -7.33301 -22 -22 -22h-390v698z" />
    <glyph glyph-name="M" unicode="M" horiz-adv-x="867" 
d="M143 698h108.001l151 -525c4 -14.667 8.33301 -25.334 13 -32.001s11 -10 19 -10s14.167 3.33301 18.5 10s8.5 17.334 12.5 32.001l151 525h108l92 -698h-93l-56 429c-2 16.667 -4 35.667 -6 57s-3.66699 42 -5 62c-4 -20.667 -8.5 -41.834 -13.5 -63.501
s-9.83301 -40.5 -14.5 -56.5l-75 -268c-9.33301 -34 -22.833 -61.333 -40.5 -82s-43.834 -31 -78.501 -31s-61 10.333 -79 31s-31.667 48 -41 82l-74 271c-4.66699 16.667 -9.66699 36 -15 58l-15 64l-4 -67c-1.33301 -23.333 -3.33301 -43.666 -6 -60.999l-56 -425h-93z
" />
    <glyph glyph-name="N" unicode="N" horiz-adv-x="663" 
d="M90 698l88 0.000976562l307 -529c-2 22.667 -3.5 45.167 -4.5 67.5s-1.5 42.166 -1.5 59.499v402h94v-698h-88l-307 527l4 -67c1.33301 -22 2 -41.667 2 -59v-401h-94v698z" />
    <glyph glyph-name="O" unicode="O" horiz-adv-x="661" 
d="M63 423c0 42.667 6 81.667 18 117s29.5 65.666 52.5 90.999s51.167 45 84.5 59s71 21 113 21s79.5 -7 112.5 -21s61 -33.667 84 -59s40.5 -55.666 52.5 -90.999s18 -74.333 18 -117v-148c0 -43.333 -6 -82.666 -18 -117.999s-29.5 -65.666 -52.5 -90.999
s-51 -44.833 -84 -58.5s-70.5 -20.5 -112.5 -20.5s-79.667 6.83301 -113 20.5s-61.5 33.167 -84.5 58.5s-40.5 55.666 -52.5 90.999s-18 74.666 -18 117.999v148zM160 285c0 -29.333 2.83301 -57 8.5 -83s15 -49 28 -69s30.5 -35.833 52.5 -47.5s49.333 -17.5 82 -17.5
s60 5.83301 82 17.5s39.5 27.5 52.5 47.5s22.167 43 27.5 69s8 53.667 8 83v128c0 28.667 -2.66699 56 -8 82s-14.5 49 -27.5 69s-30.5 35.833 -52.5 47.5s-49.333 17.5 -82 17.5s-60 -5.83301 -82 -17.5s-39.5 -27.5 -52.5 -47.5s-22.333 -43 -28 -69
s-8.5 -53.333 -8.5 -82v-128z" />
    <glyph glyph-name="P" unicode="P" horiz-adv-x="565" 
d="M90 698h193c38 0 71.667 -5.83301 101 -17.5s54 -27.5 74 -47.5s35.167 -43.333 45.5 -70s15.5 -55 15.5 -85s-5.16699 -58.333 -15.5 -85s-25.5 -50 -45.5 -70s-44.667 -35.833 -74 -47.5s-63 -17.5 -101 -17.5h-98v-258h-95v698zM281 340
c24.667 0 45.999 4.00098 63.999 12.001s32.5 18.5 43.5 31.5s19.167 27.667 24.5 44s8 33.166 8 50.499s-2.66699 34.333 -8 51s-13.666 31.5 -24.999 44.5s-25.833 23.333 -43.5 31s-39.167 11.5 -64.5 11.5h-95v-276h96z" />
    <glyph glyph-name="Q" unicode="Q" horiz-adv-x="661" 
d="M63 423c0 42.667 6 81.6689 18 117.002s29.5 65.666 52.5 90.999s51.167 45 84.5 59s71 21 113 21s79.5 -7 112.5 -21s61 -33.667 84 -59s40.5 -55.666 52.5 -90.999s18 -74.333 18 -117v-148c0 -65.333 -13.333 -120.833 -40 -166.5s-64.667 -78.5 -114 -98.5l60 -163
l-80 -27l-63 169c-5.33301 -1.33301 -10.333 -2 -15 -2h-15c-42 0 -79.667 6.83301 -113 20.5s-61.5 33.167 -84.5 58.5s-40.5 55.666 -52.5 90.999s-18 74.666 -18 117.999v148zM160 285.002c0 -29.333 2.83301 -57 8.5 -83s15 -49 28 -69s30.5 -35.833 52.5 -47.5
s49.333 -17.5 82 -17.5s60 5.83301 82 17.5s39.5 27.5 52.5 47.5s22.167 43 27.5 69s8 53.667 8 83v128c0 28.667 -2.66699 56 -8 82s-14.5 49 -27.5 69s-30.5 35.833 -52.5 47.5s-49.333 17.5 -82 17.5s-60 -5.83301 -82 -17.5s-39.5 -27.5 -52.5 -47.5
s-22.333 -43 -28 -69s-8.5 -53.333 -8.5 -82v-128z" />
    <glyph glyph-name="R" unicode="R" horiz-adv-x="581" 
d="M90 672c36.667 11.333 72.8291 20.667 108.496 28s71.834 11 108.501 11s68.834 -6.16699 96.501 -18.5s50.834 -28.833 69.501 -49.5s32.834 -44.334 42.501 -71.001s14.5 -54.334 14.5 -83.001c0 -18 -2.66699 -37.167 -8 -57.5s-14 -40.166 -26 -59.499
s-27.833 -36.666 -47.5 -51.999s-43.5 -27 -71.5 -35l140 -285h-103l-131 273h-98v-273h-95v672zM294.995 351.001c22.667 0 42.499 3.66504 59.499 10.998s31.333 17.333 43 30s20.334 27.334 26.001 44.001s8.5 34.334 8.5 53.001c0 18 -2.33301 35.333 -7 52
s-12 31.5 -22 44.5s-23 23.5 -39 31.5s-35.333 12 -58 12c-40.667 0 -81 -6 -121 -18v-260h110z" />
    <glyph glyph-name="S" unicode="S" horiz-adv-x="524" 
d="M66 103c30 -9.33301 59.501 -17.499 88.501 -24.499s58.833 -10.5 89.5 -10.5c46 0 79.167 10.833 99.5 32.5s30.5 49.5 30.5 83.5c0 26.667 -7.83301 48.167 -23.5 64.5s-35 30.833 -58 43.5s-48.167 24.667 -75.5 36s-52.5 25.166 -75.5 41.499s-42.333 36.333 -58 60
s-23.5 54.5 -23.5 92.5c0 30 5.5 56.667 16.5 80s26.333 43.166 46 59.499s43 28.666 70 36.999s56.833 12.5 89.5 12.5c30 0 57.833 -3.16699 83.5 -9.5s53.5 -15.166 83.5 -26.499l-24 -76c-25.333 9.33301 -49 16.666 -71 21.999s-46 8 -72 8
c-40.667 0 -71.334 -9.33301 -92.001 -28s-31 -45 -31 -79c0 -23.333 7.83301 -42.833 23.5 -58.5s35 -29.667 58 -42s48.167 -24.5 75.5 -36.5s52.5 -26.5 75.5 -43.5s42.333 -38 58 -63s23.5 -56.5 23.5 -94.5c0 -30 -5.33301 -57 -16 -81s-26 -44.667 -46 -62
s-44.167 -30.666 -72.5 -39.999s-59.833 -14 -94.5 -14c-35.333 0 -68 3.33301 -98 10s-62.333 15.334 -97 26.001z" />
    <glyph glyph-name="T" unicode="T" horiz-adv-x="539" 
d="M222 616h-182v82h459v-82h-182v-616h-95v616z" />
    <glyph glyph-name="U" unicode="U" horiz-adv-x="660" 
d="M75 698h95v-459c0 -21.333 3 -42.333 9 -63s15.5 -39 28.5 -55s29.667 -28.833 50 -38.5s44.5 -14.5 72.5 -14.5s52.167 4.83301 72.5 14.5s37 22.5 50 38.5s22.667 34.333 29 55s9.5 41.667 9.5 63v459h94v-441c0 -86 -21.833 -152.5 -65.5 -199.5
s-106.834 -70.5 -189.501 -70.5c-81.333 0 -144.166 23.5 -188.499 70.5s-66.5 113.5 -66.5 199.5v441z" />
    <glyph glyph-name="V" unicode="V" horiz-adv-x="635" 
d="M35 698h97.001l150 -466c5.33301 -18 11.166 -39.5 17.499 -64.5l17.5 -70.5l17.5 70.5c6.33301 25 12.5 46.5 18.5 64.5l150 466h97l-228 -698h-110z" />
    <glyph glyph-name="W" unicode="W" horiz-adv-x="894" 
d="M45 698h95l82 -412c4 -21.333 8 -46.5 12 -75.5s7.66699 -57.167 11 -84.5c3.33301 27.333 7.5 55.333 12.5 84s10.167 54 15.5 76l57 252c7.33301 33.333 20.166 60.333 38.499 81s44.5 31 78.5 31s60 -10.333 78 -31s30.667 -47.667 38 -81l58 -252
c5.33301 -22 10.5 -47.667 15.5 -77s9.16699 -58 12.5 -86l10.5 86c3.66699 29.333 7.83398 55 12.501 77l82 412h95l-143 -698h-109l-120 525c-3.33301 13.333 -7 23 -11 29s-10.333 9 -19 9c-9.33301 0 -15.833 -3 -19.5 -9s-7.16699 -15.667 -10.5 -29l-121 -525h-108z
" />
    <glyph glyph-name="X" unicode="X" horiz-adv-x="636" 
d="M263 365l-203 333h106l153 -252l154 252h104l-204 -331l226 -367h-106l-175 286l-176 -286h-104z" />
    <glyph glyph-name="Y" unicode="Y" horiz-adv-x="580" 
d="M243 287c-26 4 -47.9971 11.832 -65.9971 23.499s-33.333 25.834 -46 42.501s-22.667 35.5 -30 56.5s-13.333 43.167 -18 66.5l-43 222h93l42 -208c3.33301 -17.333 7.33301 -33.666 12 -48.999s11.167 -28.833 19.5 -40.5s19.166 -21 32.499 -28s30.333 -10.5 51 -10.5
s37.667 3.5 51 10.5s24.166 16.333 32.499 28s14.833 25.167 19.5 40.5s8.66699 31.666 12 48.999l41 208h94l-44 -222c-4.66699 -23.333 -10.834 -45.5 -18.501 -66.5s-17.667 -40 -30 -57s-27.5 -31.167 -45.5 -42.5s-39.667 -19 -65 -23v-287h-94v287z" />
    <glyph glyph-name="Z" unicode="Z" horiz-adv-x="558" 
d="M52 74l331 542h-319v82h428v-75l-330 -542h344v-81h-454v74z" />
    <glyph glyph-name="bracketleft" unicode="[" horiz-adv-x="290" 
d="M256 -142v-79h-197v1009h197v-80h-105v-850h105z" />
    <glyph glyph-name="backslash" unicode="\" horiz-adv-x="443" 
d="M68 741h87l220 -778h-87z" />
    <glyph glyph-name="bracketright" unicode="]" horiz-adv-x="311" 
d="M140 -142v850h-105v80h197v-1009h-197v79h105z" />
    <glyph glyph-name="asciicircum" unicode="^" horiz-adv-x="604" 
d="M258 697h88l179 -373h-97l-127 291l-125 -291h-97z" />
    <glyph glyph-name="underscore" unicode="_" horiz-adv-x="501" 
d="M501 -90v-81h-501v81h501z" />
    <glyph glyph-name="grave" unicode="`" horiz-adv-x="354" 
d="M69 650l29 72l188 -76l-24 -59z" />
    <glyph glyph-name="a" unicode="a" horiz-adv-x="514" 
d="M47 143c0 28 5.49902 51.668 16.499 71.001s26.5 35 46.5 47s43.833 20.833 71.5 26.5s57.834 8.5 90.501 8.5h77v36c0 38.667 -7.83301 67.667 -23.5 87s-43.834 29 -84.501 29c-25.333 0 -48.666 -2.16699 -69.999 -6.5s-44.333 -10.166 -69 -17.499l-21 75
c28 9.33301 54.667 16.5 80 21.5s52 7.5 80 7.5c34 0 63.5 -4.5 88.5 -13.5s45.667 -21.833 62 -38.5s28.666 -36.334 36.999 -59.001s12.5 -47.334 12.5 -74.001v-343h-74l-7 50c-19.333 -19.333 -41.166 -34.666 -65.499 -45.999s-51.5 -17 -81.5 -17
c-52 0 -92.667 14.167 -122 42.5s-44 66.166 -44 113.499zM139.999 144.001c0 -23.333 7 -42.001 21 -56.001s36 -21 66 -21c22 0 43.667 4.83301 65 14.5s40.333 22.5 57 38.5v106h-70c-20 0 -38.5 -1.16699 -55.5 -3.5s-31.667 -6.66602 -44 -12.999
s-22 -14.833 -29 -25.5s-10.5 -24 -10.5 -40z" />
    <glyph glyph-name="b" unicode="b" horiz-adv-x="552" 
d="M78 726l91.998 0.000976562v-252c22.667 17.333 44.834 30.666 66.501 39.999s44.834 14 69.501 14c58.667 0 104.667 -18.167 138 -54.5s50 -87.833 50 -154.5v-124c0 -65.333 -16.667 -116.333 -50 -153s-79.333 -55 -138 -55c-26 0 -50.5 5 -73.5 15
s-46.833 25.333 -71.5 46l-7 -48h-76v726zM169.998 122.001c18.667 -15.333 38 -28.3311 58 -38.998s41.667 -16 65 -16c38 0 65.333 11.667 82 35s25 59.666 25 108.999v93c0 49.333 -8.33301 85.666 -25 108.999s-44 35 -82 35c-23.333 0 -44.5 -5.5 -63.5 -16.5
s-38.833 -24.5 -59.5 -40.5v-269z" />
    <glyph glyph-name="c" unicode="c" horiz-adv-x="482" 
d="M58 298c0 34 4.49805 65.0039 13.498 93.0039s22.333 52.167 40 72.5s39.834 36.166 66.501 47.499s57.667 17 93 17c28.667 0 55.834 -2.33301 81.501 -7s52.5 -11.334 80.5 -20.001l-21 -77c-23.333 7.33301 -45.666 13.166 -66.999 17.499s-44.333 6.5 -69 6.5
c-23.333 0 -43 -4 -59 -12s-28.833 -19 -38.5 -33s-16.667 -30.667 -21 -50s-6.5 -40.333 -6.5 -63v-63c0 -23.333 2.16699 -44.833 6.5 -64.5s11.333 -36.5 21 -50.5s22.5 -25 38.5 -33s35.667 -12 59 -12c25.333 0 48.333 2.16699 69 6.5s43 10.166 67 17.499l22 -76
c-28 -8.66699 -55 -15.5 -81 -20.5s-53.333 -7.5 -82 -7.5c-35.333 0 -66.333 5.66699 -93 17s-48.834 27.333 -66.501 48s-31 45 -40 73s-13.5 59 -13.5 93v80z" />
    <glyph glyph-name="d" unicode="d" horiz-adv-x="552" 
d="M58 319c0 66.667 16.499 118.168 49.499 154.501s78.833 54.5 137.5 54.5c24.667 0 47.834 -4.83301 69.501 -14.5s44.167 -23.5 67.5 -41.5v254h92v-726h-77l-6 50c-24.667 -20.667 -48.5 -36.334 -71.5 -47.001s-47.833 -16 -74.5 -16
c-58.667 0 -104.5 18.333 -137.5 55s-49.5 87.667 -49.5 153v124zM150.999 211.001c0 -48.667 8.5 -84.832 25.5 -108.499s44.5 -35.5 82.5 -35.5c22.667 0 44.167 5.66699 64.5 17s39.833 24.333 58.5 39v267c-19.333 15.333 -39 28.833 -59 40.5s-41.333 17.5 -64 17.5
c-38 0 -65.5 -11.833 -82.5 -35.5s-25.5 -59.834 -25.5 -108.501v-93z" />
    <glyph glyph-name="e" unicode="e" horiz-adv-x="525" 
d="M58 318c0 27.333 4.66797 53.6689 14.001 79.002s22.666 47.666 39.999 66.999s38.833 34.833 64.5 46.5s54.834 17.5 87.501 17.5s62 -6 88 -18s47.833 -27.833 65.5 -47.5s31.167 -42.167 40.5 -67.5s14 -51 14 -77v-61c0 -6.66699 -2.16699 -12 -6.5 -16
s-9.5 -6 -15.5 -6h-300v-38c0 -14 1.83301 -28.667 5.5 -44s10.167 -29.333 19.5 -42s22 -23.167 38 -31.5s36.333 -12.5 61 -12.5c27.333 0 53.166 2.5 77.499 7.5s49.833 11.5 76.5 19.5l19 -75c-30 -9.33301 -58.667 -17 -86 -23s-56 -9 -86 -9
c-36.667 0 -68.667 6 -96 18s-50 27.667 -68 47s-31.333 41.666 -40 66.999s-13 51.333 -13 78v121zM380.001 303.003v20c0 14.667 -2 29.5 -6 44.5s-10.5 28.5 -19.5 40.5s-20.833 21.667 -35.5 29s-32.667 11 -54 11s-39.333 -3.66699 -54 -11s-26.5 -17 -35.5 -29
s-15.5 -25.5 -19.5 -40.5s-6 -29.833 -6 -44.5v-20h230z" />
    <glyph glyph-name="f" unicode="f" horiz-adv-x="318" 
d="M96 446l-83 8v61h83v67c0 48.667 14.833 87 44.5 115s69.5 42 119.5 42c15.333 0 30.166 -1.16699 44.499 -3.5s28.833 -5.5 43.5 -9.5l-14 -76c-23.333 6 -47 9 -71 9c-21.333 0 -39.166 -5.83301 -53.499 -17.5s-21.5 -33.5 -21.5 -65.5v-61h114v-69h-114v-424
c0 -14.667 -7.33301 -22 -22 -22h-70v446z" />
    <glyph glyph-name="g" unicode="g" horiz-adv-x="552" 
d="M299 -122c27.333 0 47.999 8 61.999 24s21 36.667 21 62v88c-23.333 -18 -45.666 -31.167 -66.999 -39.5s-44.333 -12.5 -69 -12.5c-58.667 0 -104.667 18.167 -138 54.5s-50 87.5 -50 153.5v111c0 66.667 16.5 118.167 49.5 154.5s78.833 54.5 137.5 54.5
c26.667 0 51.667 -5.5 75 -16.5s47 -26.5 71 -46.5l6 50h77v-549c0 -52 -14.833 -92.833 -44.5 -122.5s-73.167 -44.5 -130.5 -44.5h-140l-12 79h152zM150.999 224c0 -49.333 8.49902 -85.666 25.499 -108.999s44.5 -35 82.5 -35c22.667 0 43.5 5 62.5 15
s39.167 22.667 60.5 38v256c-19.333 15.333 -39.166 29 -59.499 41s-41.5 18 -63.5 18c-38 0 -65.5 -11.833 -82.5 -35.5s-25.5 -59.834 -25.5 -108.501v-80z" />
    <glyph glyph-name="h" unicode="h" 
d="M78 726l92 -0.000976562v-255c23.333 17.333 46.5 31.166 69.5 41.499s46.833 15.5 71.5 15.5c56 0 98.167 -15.667 126.5 -47s42.5 -73.666 42.5 -126.999v-332c0 -14.667 -7.33301 -22 -22 -22h-70v338c0 36.667 -6.66699 64.167 -20 82.5s-37.666 27.5 -72.999 27.5
c-22.667 0 -43.834 -5.16699 -63.501 -15.5s-40.167 -24.166 -61.5 -41.499v-391h-92v726z" />
    <glyph glyph-name="i" unicode="i" horiz-adv-x="248" 
d="M124 604c-16 0 -29.333 5.33301 -40 16s-16 23.667 -16 39s5.33301 28.166 16 38.499s24 15.5 40 15.5s29.333 -5.16699 40 -15.5s16 -23.166 16 -38.499s-5.33301 -28.333 -16 -39s-24 -16 -40 -16zM78 515h92v-493c0 -14.667 -7.33301 -22 -22 -22h-70v515z" />
    <glyph glyph-name="j" unicode="j" horiz-adv-x="248" 
d="M124 604c-16 0 -29.333 5.33301 -40 16s-16 23.667 -16 39s5.33301 28.166 16 38.499s24 15.5 40 15.5s29.333 -5.16699 40 -15.5s16 -23.166 16 -38.499s-5.33301 -28.333 -16 -39s-24 -16 -40 -16zM78 515h92.002v-573c0 -48 -13.333 -86 -40 -114
s-65.334 -42 -116.001 -42c-27.333 0 -55.333 4 -84 12l15 77c22.667 -6 45 -9 67 -9c21.333 0 37.666 6.33301 48.999 19s17 34.667 17 66v564z" />
    <glyph glyph-name="k" unicode="k" horiz-adv-x="495" 
d="M78 726h92v-419l85 23c12 3.33301 21.333 8.83301 28 16.5s11.667 15.834 15 24.501l59 144h97l-75 -178c-6 -14.667 -13.833 -27.834 -23.5 -39.501s-22.167 -21.167 -37.5 -28.5l154 -269h-103l-133 241l-66 -17v-202c0 -14.667 -7.33301 -22 -22 -22h-70v726z" />
    <glyph glyph-name="l" unicode="l" horiz-adv-x="250" 
d="M78 726h91.999v-620c0 -15.333 2.33301 -25.833 7 -31.5s12.334 -9.16699 23.001 -10.5l-18 -75c-14.667 1.33301 -28.334 3.83301 -41.001 7.5s-23.667 9.5 -33 17.5s-16.666 18.667 -21.999 32s-8 30 -8 50v630z" />
    <glyph glyph-name="m" unicode="m" horiz-adv-x="844" 
d="M78 515l75.998 0.00390625l6 -51c19.333 17.333 40.833 32.333 64.5 45s49.5 19 77.5 19c35.333 0 64.833 -6.33301 88.5 -19s41.834 -30.334 54.501 -53.001c21.333 19.333 45.333 36.166 72 50.499s55 21.5 85 21.5c56 0 98.167 -15.667 126.5 -47
s42.5 -73.666 42.5 -126.999v-332c0 -14.667 -7.33301 -22 -22 -22h-70v337c0 37.333 -6.66699 65.166 -20 83.499s-37.666 27.5 -72.999 27.5c-21.333 0 -42.166 -5.66699 -62.499 -17s-39.5 -25 -57.5 -41c2.66699 -10.667 4 -23.334 4 -38.001v-352h-92v337
c0 37.333 -6.66699 65.166 -20 83.499s-37.333 27.5 -72 27.5c-22.667 0 -43.334 -5.83301 -62.001 -17.5s-36.667 -25.167 -54 -40.5v-390h-92v515z" />
    <glyph glyph-name="n" unicode="n" 
d="M78 515h75.999l6 -51c24.667 20 49.5 35.667 74.5 47s50.5 17 76.5 17c56 0 98.167 -15.667 126.5 -47s42.5 -73.666 42.5 -126.999v-332c0 -14.667 -7.33301 -22 -22 -22h-70v337c0 37.333 -6.66699 65.166 -20 83.499s-37.666 27.5 -72.999 27.5
c-22.667 0 -44 -5.33301 -64 -16s-40.333 -24.667 -61 -42v-390h-92v515z" />
    <glyph glyph-name="o" unicode="o" horiz-adv-x="547" 
d="M58 300c0 34.667 4.83105 66 14.498 94s23.834 52 42.501 72s41.167 35.333 67.5 46s56.5 16 90.5 16c68.667 0 121.834 -20.5 159.501 -61.5s56.5 -96.5 56.5 -166.5v-85c0 -70.667 -19 -126.334 -57 -167.001s-91 -61 -159 -61s-120.833 20.333 -158.5 61
s-56.5 96.334 -56.5 167.001v85zM150.998 223c0 -48.667 9 -86.834 27 -114.501s49.667 -41.5 95 -41.5s77 13.833 95 41.5s27 65.834 27 114.501v69c0 24 -2.16699 45.5 -6.5 64.5s-11.166 35.333 -20.499 49s-21.833 24.167 -37.5 31.5s-34.834 11 -57.501 11
s-41.667 -3.66699 -57 -11s-27.833 -17.833 -37.5 -31.5s-16.667 -30 -21 -49s-6.5 -40.5 -6.5 -64.5v-69z" />
    <glyph glyph-name="p" unicode="p" horiz-adv-x="552" 
d="M170 -201h-91.998v716h76l7 -50c24 20 47.667 35.5 71 46.5s48 16.5 74 16.5c58.667 0 104.667 -18.167 138 -54.5s50 -87.833 50 -154.5v-124c0 -65.333 -16.667 -116.333 -50 -153s-79.333 -55 -138 -55c-24.667 0 -47.834 5 -69.501 15s-43.834 23.667 -66.501 41
v-244zM170.002 123c20.667 -15.333 40.5 -28.501 59.5 -39.501s40.167 -16.5 63.5 -16.5c38 0 65.333 11.833 82 35.5s25 59.834 25 108.501v92c0 49.333 -8.33301 85.833 -25 109.5s-44 35.5 -82 35.5c-23.333 0 -45 -6 -65 -18s-39.333 -25.667 -58 -41v-266z" />
    <glyph glyph-name="q" unicode="q" horiz-adv-x="547" 
d="M58 319c0 66.667 16.501 118.168 49.501 154.501s78.833 54.5 137.5 54.5c26 0 50.667 -5.33301 74 -16s47.333 -26.334 72 -47.001l6 50h77v-716h-92v244c-23.333 -18 -45.833 -31.833 -67.5 -41.5s-44.834 -14.5 -69.501 -14.5c-58.667 0 -104.5 18.333 -137.5 55
s-49.5 87.667 -49.5 153v124zM151.001 211.001c0 -48.667 8.5 -84.833 25.5 -108.5s44.5 -35.5 82.5 -35.5c22.667 0 43.5 5.5 62.5 16.5s39.167 24.167 60.5 39.5v266c-18.667 15.333 -38.167 29 -58.5 41s-41.833 18 -64.5 18c-38 0 -65.5 -11.833 -82.5 -35.5
s-25.5 -60.167 -25.5 -109.5v-92z" />
    <glyph glyph-name="r" unicode="r" horiz-adv-x="367" 
d="M78 515h74.0039l9 -71c15.333 22 35.166 41.333 59.499 58s49.166 25 74.499 25c16.667 0 33 -2 49 -6l-13 -78c-6 1.33301 -12.333 2.33301 -19 3s-13.334 1 -20.001 1c-10.667 0 -21.667 -2.5 -33 -7.5s-22.333 -11.5 -33 -19.5s-20.834 -17 -30.501 -27
s-18.167 -20 -25.5 -30v-363h-92v515z" />
    <glyph glyph-name="s" unicode="s" horiz-adv-x="434" 
d="M66 95c22.667 -8 44.8311 -14.6621 66.498 -19.9951s44.167 -8 67.5 -8c32 0 54.833 6.66699 68.5 20s20.5 30.666 20.5 51.999c0 16.667 -5.66699 30.167 -17 40.5s-25.666 19.666 -42.999 27.999s-35.833 16.666 -55.5 24.999s-38.167 18.833 -55.5 31.5
s-31.666 28.167 -42.999 46.5s-17 42.166 -17 71.499c0 22.667 4.5 43 13.5 61s21.5 33.333 37.5 46s34.833 22.334 56.5 29.001s45.167 10 70.5 10c43.333 0 86 -8 128 -24l-22 -75c-17.333 5.33301 -34.5 9.83301 -51.5 13.5s-34.5 5.5 -52.5 5.5
c-28 0 -48.833 -6 -62.5 -18s-20.5 -28 -20.5 -48c0 -15.333 5.66699 -28.166 17 -38.499s25.666 -19.833 42.999 -28.5s35.833 -17.334 55.5 -26.001s38.167 -19.334 55.5 -32.001s31.666 -28.5 42.999 -47.5s17 -42.5 17 -70.5c0 -23.333 -4.5 -44.333 -13.5 -63
s-21.5 -34.5 -37.5 -47.5s-35.333 -23.167 -58 -30.5s-47.667 -11 -75 -11s-53.666 2.66699 -78.999 8s-50.666 12.666 -75.999 21.999z" />
    <glyph glyph-name="t" unicode="t" horiz-adv-x="365" 
d="M96 446l-82.999 7.99902v61h83v165h92v-165h123v-69h-123v-294c0 -31.333 7.16699 -53.333 21.5 -66s32.166 -19 53.499 -19c11.333 0 23 0.833008 35 2.5s24 3.83398 36 6.50098l14 -77c-29.333 -8 -59 -12 -89 -12c-50.667 0 -90.5 13.5 -119.5 40.5
s-43.5 64.833 -43.5 113.5v305z" />
    <glyph glyph-name="u" unicode="u" 
d="M73 493c0 14.667 7.33203 22.002 21.999 22.002h70v-338c0 -36.667 6.66699 -64.167 20 -82.5s37.333 -27.5 72 -27.5c23.333 0 45 5.16699 65 15.5s40.333 24.166 61 41.499v391h92v-515h-76l-7 51c-23.333 -20 -47.666 -35.667 -72.999 -47s-51.333 -17 -78 -17
c-56 0 -98 15.667 -126 47s-42 73.666 -42 126.999v332z" />
    <glyph glyph-name="v" unicode="v" horiz-adv-x="510" 
d="M26 515h95.001l93 -280c6.66699 -20 13.667 -43.833 21 -71.5s13.666 -53.5 18.999 -77.5c5.33301 24 11.5 49.667 18.5 77s14.167 51.333 21.5 72l95 280h95l-178 -515h-104z" />
    <glyph glyph-name="w" unicode="w" horiz-adv-x="733" 
d="M28 515h96.999l63 -272c4 -18.667 8.33301 -40.5 13 -65.5l13 -72.5l17 72.5c6 25 11.667 46.833 17 65.5l68 238h101l68 -238c5.33301 -18.667 10.833 -40.667 16.5 -66l16.5 -74c4 24 8.33301 48.667 13 74s9.33398 47.333 14.001 66l63 272h97l-133 -515h-103
l-103 366l-102 -366h-103z" />
    <glyph glyph-name="x" unicode="x" horiz-adv-x="501" 
d="M195 266l-157 249h105l107 -172l110 172h103l-158 -248l170 -267h-105l-121 190l-120 -190h-103z" />
    <glyph glyph-name="y" unicode="y" horiz-adv-x="518" 
d="M40 515h91.001l44 -333c3.33301 -28.667 11.333 -52.667 24 -72s34 -29 64 -29c15.333 0 30.166 1.83301 44.499 5.5s28.833 9.16699 43.5 16.5l22 412h90l-29 -551c-2.66699 -51.333 -18 -91.666 -46 -120.999s-71.333 -44 -130 -44h-96l-7 79h106
c30.667 0 51.667 8.33301 63 25s18 38.667 20 66l4 52c-15.333 -6.66699 -30.5 -11.834 -45.5 -15.501s-30.167 -5.5 -45.5 -5.5c-54 -0 -94.333 15.333 -121 46s-43.667 72 -51 124z" />
    <glyph glyph-name="z" unicode="z" horiz-adv-x="476" 
d="M53 59l243 377h-232v79h347v-59l-243 -377h255v-79h-370v59z" />
    <glyph glyph-name="braceleft" unicode="{" horiz-adv-x="355" 
d="M122 142c0 14 -0.99707 26.999 -2.99707 38.999s-6.16699 22.5 -12.5 31.5s-15.333 16 -27 21s-26.834 7.5 -45.501 7.5v68c18.667 0 33.834 2.5 45.501 7.5s20.667 12 27 21s10.5 19.5 12.5 31.5s3 25 3 39v185c0 28 3 53.5 9 76.5s16.667 42.667 32 59
s35.666 29 60.999 38s57.666 13.5 96.999 13.5v-81c-23.333 0 -42 -2.5 -56 -7.5s-24.667 -12.167 -32 -21.5s-12.333 -20.5 -15 -33.5s-4 -27.5 -4 -43.5v-185c0 -33.333 -5.66699 -60 -17 -80s-32 -37.667 -62 -53c30 -15.333 50.667 -32.833 62 -52.5s17 -46.5 17 -80.5
v-176c0 -16 1.16699 -30.667 3.5 -44s7.33301 -24.666 15 -33.999s18.5 -16.666 32.5 -21.999s32.667 -8 56 -8v-80c-38.667 0 -70.834 4.5 -96.501 13.5s-46 21.667 -61 38s-25.667 36.166 -32 59.499s-9.5 49 -9.5 77v176z" />
    <glyph glyph-name="bar" unicode="|" horiz-adv-x="280" 
d="M96 737h88v-920h-88v920z" />
    <glyph glyph-name="braceright" unicode="}" horiz-adv-x="355" 
d="M141 142c0 33.333 5.66992 60.001 17.0029 80.001s31.666 37.667 60.999 53c-30 15.333 -50.5 33 -61.5 53s-16.5 46.667 -16.5 80v185c0 16 -1.33301 30.5 -4 43.5s-7.83398 24.167 -15.501 33.5s-18.5 16.5 -32.5 21.5s-32.333 7.5 -55 7.5v81
c38.667 0 70.834 -4.5 96.501 -13.5s46 -21.667 61 -38s25.5 -36 31.5 -59s9 -48.5 9 -76.5v-185c0 -14 1 -27 3 -39s6.16699 -22.5 12.5 -31.5s15.333 -16 27 -21s27.167 -7.5 46.5 -7.5v-68c-19.333 0 -34.833 -2.5 -46.5 -7.5s-20.5 -12 -26.5 -21s-10 -19.5 -12 -31.5
s-3 -25 -3 -39v-176c0 -28 -3.16699 -53.667 -9.5 -77s-17 -43.166 -32 -59.499s-35.333 -29 -61 -38s-57.834 -13.5 -96.501 -13.5v80c22.667 0 41.167 2.66699 55.5 8s25.166 12.666 32.499 21.999s12.333 20.666 15 33.999s4 28 4 44v176z" />
    <glyph glyph-name="asciitilde" unicode="~" horiz-adv-x="609" 
d="M96 272c6.66699 8.66699 14.334 17.334 23.001 26.001s18.5 16.5 29.5 23.5s22.833 12.667 35.5 17s26.667 6.5 42 6.5c18 0 34 -3 48 -9s27.167 -12.5 39.5 -19.5l35 -19.5c11 -6 22.5 -9 34.5 -9c14 0 28 4.33301 42 13s26.667 19 38 31l50 -53
c-6.66699 -8.66699 -14.334 -17.334 -23.001 -26.001s-18.5 -16.5 -29.5 -23.5s-23 -12.667 -36 -17s-26.833 -6.5 -41.5 -6.5c-18 0 -34 3 -48 9s-27.167 12.667 -39.5 20l-35 20c-11 6 -22.5 9 -34.5 9c-14 0 -28 -4.5 -42 -13.5s-26.667 -19.5 -38 -31.5z" />
    <glyph glyph-name="nonbreakingspace" unicode="&#xa0;" horiz-adv-x="240" 
 />
    <glyph glyph-name="exclamdown" unicode="&#xa1;" horiz-adv-x="356" 
d="M178 489c-16.667 0 -30.667 5.66699 -42 17s-17 25.333 -17 42s5.66699 30.667 17 42s25.333 17 42 17c16 0 29.833 -5.66699 41.5 -17s17.5 -25.333 17.5 -42s-5.83301 -30.667 -17.5 -42s-25.5 -17 -41.5 -17zM136 369l83 12l14 -481h-110z" />
    <glyph glyph-name="cent" unicode="&#xa2;" horiz-adv-x="488" 
d="M58 298c0 61.333 14.668 112.502 44.001 153.502s73.333 65.167 132 72.5v115h74v-113c21.333 -1.33301 42.166 -4.16602 62.499 -8.49902s41.166 -9.83301 62.499 -16.5l-21 -77c-23.333 7.33301 -45.666 13.166 -66.999 17.499s-44.333 6.5 -69 6.5
c-23.333 0 -43 -4 -59 -12s-28.833 -19 -38.5 -33s-16.667 -30.667 -21 -50s-6.5 -40.333 -6.5 -63v-63c0 -23.333 2.16699 -44.833 6.5 -64.5s11.333 -36.5 21 -50.5s22.5 -25 38.5 -33s35.667 -12 59 -12c25.333 0 48.333 2.16699 69 6.5s43 10.166 67 17.499l22 -76
c-21.333 -6.66699 -42.333 -12.334 -63 -17.001s-41.667 -7.66699 -63 -9v-113h-74v114c-29.333 4 -55 12.167 -77 24.5s-40.333 28.5 -55 48.5s-25.667 43 -33 69s-11 54.667 -11 86v80z" />
    <glyph glyph-name="sterling" unicode="&#xa3;" horiz-adv-x="520" 
d="M60 71c16.667 24 30.001 48.5 40.001 73.5s15 51.833 15 80.5v72h-62v65h62v144c0 34 5.33301 63.833 16 89.5s25.167 47 43.5 64s40.333 29.833 66 38.5s53.5 13 83.5 13c25.333 0 50.166 -2.83301 74.499 -8.5s49.166 -13.167 74.499 -22.5l-25 -74
c-20 7.33301 -39.667 13.166 -59 17.499s-39.333 6.5 -60 6.5c-41.333 0 -71.666 -10.167 -90.999 -30.5s-29 -55.166 -29 -104.499v-133h208v-65h-208v-66c0 -32 -5 -60.5 -15 -85.5s-22.667 -47.5 -38 -67.5h304v-56c0 -14.667 -7.33301 -22 -22 -22h-378v71z" />
    <glyph glyph-name="currency" unicode="&#xa4;" horiz-adv-x="525" 
d="M64 136l48.999 48c-16.667 28 -25 58.333 -25 91c0 31.333 8.33301 61 25 89l-49 51l59 58l50 -49c27.333 16.667 57 25 89 25c32.667 0 62.334 -8.66699 89.001 -26l51 50l59 -58l-51 -52c17.333 -26.667 26 -56 26 -88c0 -32.667 -8.33301 -62.667 -25 -90
c8.66699 -8 17 -16.167 25 -24.5l25 -25.5l-59 -59l-51 50c-28 -16.667 -57.667 -25 -89 -25c-32.667 0 -62.667 8.33301 -90 25l-49 -50zM261.999 180c12.667 0 24.8311 2.5 36.498 7.5s21.834 11.667 30.501 20s15.5 18.333 20.5 30s7.5 24.167 7.5 37.5
c0 12.667 -2.5 24.834 -7.5 36.501s-11.667 21.834 -20 30.501s-18.333 15.5 -30 20.5s-24.167 7.5 -37.5 7.5s-25.666 -2.5 -36.999 -7.5s-21.333 -11.667 -30 -20s-15.5 -18.333 -20.5 -30s-7.5 -24.167 -7.5 -37.5c0 -12.667 2.5 -24.834 7.5 -36.501
s11.667 -21.834 20 -30.501s18.333 -15.5 30 -20.5s24.167 -7.5 37.5 -7.5z" />
    <glyph glyph-name="yen" unicode="&#xa5;" horiz-adv-x="519" 
d="M71 199h142v98h-142v65h110l-171 336h93l156 -312l157 312h93l-172 -336h111v-65h-143v-98h143v-65h-143v-134h-92v134h-142v65z" />
    <glyph glyph-name="brokenbar" unicode="&#xa6;" horiz-adv-x="276" 
d="M94 737h88v-320h-88v320zM182 138v-321h-88v321h88z" />
    <glyph glyph-name="section" unicode="&#xa7;" horiz-adv-x="505" 
d="M69 13c26 -8 51.501 -14.835 76.501 -20.502s50.833 -8.5 77.5 -8.5c36 0 62.833 8.16699 80.5 24.5s26.5 38.5 26.5 66.5c0 22 -6.5 39.833 -19.5 53.5s-29.5 25.667 -49.5 36s-41.333 20.5 -64 30.5s-44 22 -64 36s-36.5 31.333 -49.5 52s-19.5 47.334 -19.5 80.001
c0 26 4.83301 49.167 14.5 69.5s23.167 37.5 40.5 51.5c-11.333 21.333 -17 47 -17 77c0 26 4.83301 49.167 14.5 69.5s23 37.5 40 51.5s37 24.667 60 32s48.167 11 75.5 11c26 0 51.5 -2.83301 76.5 -8.5s50.167 -13.5 75.5 -23.5l-23 -74
c-20 7.33301 -40.5 13.333 -61.5 18s-42.167 7 -63.5 7c-30.667 0 -54.334 -7.16699 -71.001 -21.5s-25 -34.833 -25 -61.5c0 -20 6.5 -36.5 19.5 -49.5s29.5 -24.667 49.5 -35s41.333 -20.666 64 -30.999s44 -22.833 64 -37.5s36.5 -32.834 49.5 -54.501
s19.5 -48.834 19.5 -81.501c0 -25.333 -4.83301 -48.166 -14.5 -68.499s-23.167 -38.166 -40.5 -53.499c11.333 -21.333 17 -46.333 17 -75c0 -26 -5 -49.667 -15 -71s-24 -39.5 -42 -54.5s-39.5 -26.5 -64.5 -34.5s-52.167 -12 -81.5 -12c-30 0 -58.833 3 -86.5 9
s-56.167 13.333 -85.5 22zM162.001 362.998c0 -19.333 6.3291 -35.334 18.9961 -48.001s28.334 -24.167 47.001 -34.5s38.834 -20.333 60.501 -30s41.5 -21.5 59.5 -35.5c13.333 15.333 20 34.333 20 57c0 20.667 -6.16699 37.834 -18.5 51.501s-27.666 25.667 -45.999 36
s-38.166 20 -59.499 29s-41.333 19.833 -60 32.5c-14.667 -14.667 -22 -34 -22 -58z" />
    <glyph glyph-name="dieresis" unicode="&#xa8;" horiz-adv-x="416" 
d="M294 602c-14.667 0 -27.167 5 -37.5 15s-15.5 22 -15.5 36s5.16699 26.333 15.5 37s22.833 16 37.5 16c13.333 0 25.166 -5.33301 35.499 -16s15.5 -23 15.5 -37s-5.16699 -26 -15.5 -36s-22.166 -15 -35.499 -15zM122 602c-14 0 -26.167 5 -36.5 15s-15.5 22 -15.5 36
s5.16699 26.333 15.5 37s22.5 16 36.5 16s26.167 -5.33301 36.5 -16s15.5 -23 15.5 -37s-5.16699 -26 -15.5 -36s-22.5 -15 -36.5 -15z" />
    <glyph glyph-name="copyright" unicode="&#xa9;" horiz-adv-x="794" 
d="M63 342c0 47.333 7.5 91.833 22.5 133.5s36.833 78 65.5 109s63.667 55.5 105 73.5s88.333 27 141 27s99.667 -9 141 -27s76.166 -42.5 104.499 -73.5s50 -67.333 65 -109s22.5 -86.167 22.5 -133.5s-7.5 -91.833 -22.5 -133.5s-36.667 -78 -65 -109
s-63.166 -55.333 -104.499 -73s-88.333 -26.5 -141 -26.5s-99.667 8.83301 -141 26.5s-76.333 42 -105 73s-50.5 67.333 -65.5 109s-22.5 86.167 -22.5 133.5zM124 342c0 -39.333 5.83301 -76.333 17.5 -111s29 -64.834 52 -90.501s51.5 -45.834 85.5 -60.501
s73.333 -22 118 -22s84 7.33301 118 22s62.333 34.834 85 60.501s39.834 55.834 51.501 90.501s17.5 71.667 17.5 111s-5.83301 76.333 -17.5 111s-28.834 64.834 -51.501 90.501s-51 46 -85 61s-73.333 22.5 -118 22.5s-84 -7.5 -118 -22.5s-62.5 -35.333 -85.5 -61
s-40.333 -55.834 -52 -90.501s-17.5 -71.667 -17.5 -111zM253 397c0 42 13.168 74.167 39.501 96.5s60.166 33.5 101.499 33.5c35.333 0 70.333 -6.66699 105 -20l-15 -59c-31.333 10 -60.666 15 -87.999 15c-23.333 0 -41 -6 -53 -18s-18 -31.667 -18 -59v-87
c0 -28 6 -48 18 -60s29.667 -18 53 -18c27.333 0 56.666 5 87.999 15l15 -58c-34 -14 -69.333 -21 -106 -21c-40.667 0 -74.167 11.167 -100.5 33.5s-39.5 54.5 -39.5 96.5v110z" />
    <glyph glyph-name="ordfeminine" unicode="&#xaa;" horiz-adv-x="372" 
d="M163 325c-36 0 -64.667 10.001 -86 30.001s-32 48 -32 84c0 20 4 37 12 51s19.167 25.333 33.5 34s31.333 15 51 19s41.167 6 64.5 6h47v24c0 25.333 -5.16699 44.166 -15.5 56.499s-28.5 18.5 -54.5 18.5c-18 0 -34.5 -1.5 -49.5 -4.5s-31.167 -7.16699 -48.5 -12.5
l-16 59c20 7.33301 39 12.666 57 15.999s37 5 57 5c48 0 84 -12.333 108 -37s36 -57 36 -97v-243h-60l-5 33c-13.333 -13.333 -28.333 -23.666 -45 -30.999s-34.667 -11 -54 -11zM175 388.001c15.333 0 29.5 3.16602 42.5 9.49902s24.833 14.5 35.5 24.5v72h-42
c-26 0 -47.667 -3.5 -65 -10.5s-26 -21.833 -26 -44.5c0 -15.333 4.5 -27.666 13.5 -36.999s22.833 -14 41.5 -14z" />
    <glyph glyph-name="guillemotleft" unicode="&#xab;" horiz-adv-x="564" 
d="M410 463l71 -50l-110 -143l110 -143l-71 -48l-143 191zM72 270l144 193l70 -50l-110 -143l110 -143l-70 -48z" />
    <glyph glyph-name="logicalnot" unicode="&#xac;" horiz-adv-x="587" 
d="M96 314h395v-255h-82v174h-313v81z" />
    <glyph glyph-name="sfthyphen" unicode="&#xad;" horiz-adv-x="396" 
d="M39 318h318v-77h-318v77z" />
    <glyph glyph-name="registered" unicode="&#xae;" horiz-adv-x="794" 
d="M63 342c0 47.333 7.5 91.833 22.5 133.5s36.833 78 65.5 109s63.667 55.5 105 73.5s88.333 27 141 27s99.667 -9 141 -27s76.166 -42.5 104.499 -73.5s50 -67.333 65 -109s22.5 -86.167 22.5 -133.5s-7.5 -91.833 -22.5 -133.5s-36.667 -78 -65 -109
s-63.166 -55.333 -104.499 -73s-88.333 -26.5 -141 -26.5s-99.667 8.83301 -141 26.5s-76.333 42 -105 73s-50.5 67.333 -65.5 109s-22.5 86.167 -22.5 133.5zM124 342c0 -39.333 5.83301 -76.333 17.5 -111s29 -64.834 52 -90.501s51.5 -45.834 85.5 -60.501
s73.333 -22 118 -22s84 7.33301 118 22s62.333 34.834 85 60.501s39.834 55.834 51.501 90.501s17.5 71.667 17.5 111s-5.83301 76.333 -17.5 111s-28.834 64.834 -51.501 90.501s-51 46 -85 61s-73.333 22.5 -118 22.5s-84 -7.5 -118 -22.5s-62.5 -35.333 -85.5 -61
s-40.333 -55.834 -52 -90.501s-17.5 -71.667 -17.5 -111zM273 504c19.333 6.66699 40 12.5 62 17.5s43.667 7.5 65 7.5c20 0 37.833 -3.16699 53.5 -9.5s28.667 -14.833 39 -25.5s18.333 -23 24 -37s8.5 -29 8.5 -45c0 -22.667 -5.5 -43 -16.5 -61
s-26.833 -31.667 -47.5 -41l66 -147h-76l-59 133h-47v-133h-72v341zM399 355c19.333 0 33.165 5.66895 41.498 17.002s12.5 24.666 12.5 39.999c0 13.333 -4.16699 25.5 -12.5 36.5s-22.166 16.833 -41.499 17.5c-8 0 -16.667 -0.833008 -26 -2.5
s-18.666 -3.83398 -27.999 -6.50098v-102h54z" />
    <glyph glyph-name="macron" unicode="&#xaf;" horiz-adv-x="363" 
d="M69 690h225v-70h-225v70z" />
    <glyph glyph-name="degree" unicode="&#xb0;" horiz-adv-x="405" 
d="M202 465c-17.333 0 -33.5 3.33301 -48.5 10s-28.167 15.667 -39.5 27s-20.333 24.666 -27 39.999s-10 31.666 -10 48.999s3.33301 33.5 10 48.5s15.667 28.167 27 39.5s24.5 20.333 39.5 27s31.167 10 48.5 10s33.666 -3.33301 48.999 -10s28.666 -15.667 39.999 -27
s20.333 -24.5 27 -39.5s10 -31.167 10 -48.5s-3.33301 -33.666 -10 -48.999s-15.667 -28.666 -27 -39.999s-24.666 -20.333 -39.999 -27s-31.666 -10 -48.999 -10zM202 525c18 0 33.167 6.16699 45.5 18.5s18.5 28.166 18.5 47.499c0 18.667 -6.16699 34.334 -18.5 47.001
s-27.5 19 -45.5 19c-17.333 0 -32.333 -6.33301 -45 -19s-19 -28.334 -19 -47.001c0 -19.333 6.33301 -35.166 19 -47.499s27.667 -18.5 45 -18.5z" />
    <glyph glyph-name="plusminus" unicode="&#xb1;" horiz-adv-x="633" 
d="M89 355h186v176h83v-176h186v-82h-186v-177h-83v177h-186v82zM89 41h455v-82h-455v82z" />
    <glyph glyph-name="acute" unicode="&#xb4;" horiz-adv-x="354" 
d="M69 646l187 76l29 -72l-193 -63z" />
    <glyph glyph-name="mu" unicode="&#xb5;" horiz-adv-x="556" 
d="M164 -201l-91.001 0.000976562v694c0 14.667 7.33301 22 22 22h70v-338c0 -36.667 6.66699 -64.167 20 -82.5s37.333 -27.5 72 -27.5c23.333 0 45 5.16699 65 15.5s40.333 24.166 61 41.499v391h92v-515h-76l-7 51c-23.333 -20 -47.666 -35.667 -72.999 -47
s-51.333 -17 -78 -17c-31.333 0 -57 8 -77 24v-212z" />
    <glyph glyph-name="paragraph" unicode="&#xb6;" horiz-adv-x="583" 
d="M230 281c-29.333 2.66699 -56.3311 9.83496 -80.998 21.502s-46 26.667 -64 45s-32 39.666 -42 63.999s-15 50.166 -15 77.499c0 28.667 5.66699 55.667 17 81s26.666 47.5 45.999 66.5s42.166 34 68.499 45s54.5 16.5 84.5 16.5h259v-804h-87v716h-98v-716h-88v387z" />
    <glyph glyph-name="periodcentered" unicode="&#xb7;" horiz-adv-x="241" 
d="M120 251c-14 0 -26 5 -36 15s-15 22.333 -15 37s5 27 15 37s22 15 36 15c14.667 0 27 -5 37 -15s15 -22.333 15 -37s-5 -27 -15 -37s-22.333 -15 -37 -15z" />
    <glyph glyph-name="cedilla" unicode="&#xb8;" horiz-adv-x="252" 
d="M213 0l0.000976562 -103.999c0 -21.333 -3.5 -38.833 -10.5 -52.5s-16 -24.834 -27 -33.501s-23.167 -14.667 -36.5 -18s-26.666 -5 -39.999 -5c-10 0 -20 0.666992 -30 2s-20 3 -30 5l9 65c7.33301 -2 14.166 -3.33301 20.499 -4s13.166 -1 20.499 -1
c31.333 0 47 18.667 47 56v90h77z" />
    <glyph glyph-name="ordmasculine" unicode="&#xba;" horiz-adv-x="396" 
d="M198 325c-48.667 0 -86.332 14.833 -112.999 44.5s-40 69.5 -40 119.5v58c0 50.667 13.5 90.667 40.5 120s64.5 44 112.5 44s85.5 -14.667 112.5 -44s40.5 -69.333 40.5 -120v-58c0 -50 -13.333 -89.833 -40 -119.5s-64.334 -44.5 -113.001 -44.5zM198.002 388
c30 0 50.667 9.5 62 28.5s17 45.167 17 78.5v46c0 34 -5.66699 60.333 -17 79s-32 28 -62 28s-50.667 -9.33301 -62 -28s-17 -45 -17 -79v-46c0 -33.333 5.66699 -59.5 17 -78.5s32 -28.5 62 -28.5z" />
    <glyph glyph-name="guillemotright" unicode="&#xbb;" horiz-adv-x="562" 
d="M386 270l-110 143l71 50l143 -193l-143 -191l-72 48zM194 270l-111 143l71 50l143 -193l-143 -191l-72 48z" />
    <glyph glyph-name="questiondown" unicode="&#xbf;" horiz-adv-x="463" 
d="M248 489c-16.667 0 -30.667 5.66699 -42 17s-17 25.333 -17 42s5.66699 30.667 17 42s25.333 17 42 17c16 0 29.833 -5.66699 41.5 -17s17.5 -25.333 17.5 -42s-5.83301 -30.667 -17.5 -42s-25.5 -17 -41.5 -17zM65 48c0 21.333 3.33203 39.666 9.99902 54.999
s15.167 29.666 25.5 42.999s21.5 26.833 33.5 40.5s23.167 29.334 33.5 47.001s18.833 38.334 25.5 62.001s10 52.5 10 86.5l90 9c0 -39.333 -3.33301 -72.833 -10 -100.5s-15.167 -51.167 -25.5 -70.5s-21.5 -35.833 -33.5 -49.5l-33.5 -38.5
c-10.333 -12 -18.833 -24.333 -25.5 -37s-10 -27.334 -10 -44.001c0 -21.333 7.33301 -40.166 22 -56.499s36 -24.5 64 -24.5c21.333 0 41.833 3.83301 61.5 11.5s39.5 17.167 59.5 28.5l36 -73c-51.333 -32.667 -103.666 -49 -156.999 -49c-28 0 -53 4.33301 -75 13
s-40.5 20.5 -55.5 35.5s-26.333 32 -34 51s-11.5 39.167 -11.5 60.5z" />
    <glyph glyph-name="Agrave" unicode="&#xc0;" horiz-adv-x="655" 
d="M248 890l187 -76l-23 -59l-193 63zM195 596c9.33301 34 25.167 61.667 47.5 83s50.5 32 84.5 32s62.167 -10.833 84.5 -32.5s37.833 -49.167 46.5 -82.5l157 -596h-95l-51 197h-285l-50 -197h-94zM449.001 277l-77.998 306c-3.33301 13.333 -8.33301 24 -15 32
s-16.334 12 -29.001 12s-22.334 -4 -29.001 -12s-11.667 -18.667 -15 -32l-79 -306h245z" />
    <glyph glyph-name="Aacute" unicode="&#xc1;" horiz-adv-x="655" 
d="M219 814l187 76l29 -72l-193 -63zM195 596c9.33301 34 25.167 61.667 47.5 83s50.5 32 84.5 32s62.167 -10.833 84.5 -32.5s37.833 -49.167 46.5 -82.5l157 -596h-95l-51 197h-285l-50 -197h-94zM449.001 277l-77.998 306c-3.33301 13.333 -8.33301 24 -15 32
s-16.334 12 -29.001 12s-22.334 -4 -29.001 -12s-11.667 -18.667 -15 -32l-79 -306h245z" />
    <glyph glyph-name="Acircumflex" unicode="&#xc2;" horiz-adv-x="655" 
d="M191 812l136 79l136 -79l-42 -58l-94 58l-95 -58zM195 596c9.33301 34 25.167 61.667 47.5 83s50.5 32 84.5 32s62.167 -10.833 84.5 -32.5s37.833 -49.167 46.5 -82.5l157 -596h-95l-51 197h-285l-50 -197h-94zM449.001 277l-77.998 306
c-3.33301 13.333 -8.33301 24 -15 32s-16.334 12 -29.001 12s-22.334 -4 -29.001 -12s-11.667 -18.667 -15 -32l-79 -306h245z" />
    <glyph glyph-name="Atilde" unicode="&#xc3;" horiz-adv-x="655" 
d="M192 819c14.667 20 28.667 34.165 42 42.498s28.666 12.5 45.999 12.5c10.667 0 20.334 -1.83301 29.001 -5.5s16.834 -7.66699 24.501 -12l21.5 -12c6.66699 -3.66699 13 -5.5 19 -5.5c9.33301 0 18 2.33301 26 7s16.667 12.667 26 24l37 -44
c-15.333 -20.667 -29.666 -35.167 -42.999 -43.5s-28.666 -12.5 -45.999 -12.5c-10 0 -19.333 1.83301 -28 5.5s-16.834 7.83398 -24.501 12.501s-14.834 8.83398 -21.501 12.501s-13.334 5.5 -20.001 5.5c-9.33301 0 -18 -2.33301 -26 -7s-16.667 -12.667 -26 -24z
M195 595.998c9.33301 34 25.167 61.667 47.5 83s50.5 32 84.5 32s62.167 -10.833 84.5 -32.5s37.833 -49.167 46.5 -82.5l157 -596h-95l-51 197h-285l-50 -197h-94zM449.001 276.998l-77.998 306c-3.33301 13.333 -8.33301 24 -15 32s-16.334 12 -29.001 12
s-22.334 -4 -29.001 -12s-11.667 -18.667 -15 -32l-79 -306h245z" />
    <glyph glyph-name="Adieresis" unicode="&#xc4;" horiz-adv-x="655" 
d="M413 770c-14.667 0 -27.167 5 -37.5 15s-15.5 22 -15.5 36s5.16699 26.333 15.5 37s22.833 16 37.5 16c13.333 0 25.166 -5.33301 35.499 -16s15.5 -23 15.5 -37s-5.16699 -26 -15.5 -36s-22.166 -15 -35.499 -15zM241 770c-14 0 -26.167 5 -36.5 15s-15.5 22 -15.5 36
s5.16699 26.333 15.5 37s22.5 16 36.5 16s26.167 -5.33301 36.5 -16s15.5 -23 15.5 -37s-5.16699 -26 -15.5 -36s-22.5 -15 -36.5 -15zM195 596c9.33301 34 25.167 61.667 47.5 83s50.5 32 84.5 32s62.167 -10.833 84.5 -32.5s37.833 -49.167 46.5 -82.5l157 -596h-95
l-51 197h-285l-50 -197h-94zM449.001 277l-77.998 306c-3.33301 13.333 -8.33301 24 -15 32s-16.334 12 -29.001 12s-22.334 -4 -29.001 -12s-11.667 -18.667 -15 -32l-79 -306h245z" />
    <glyph glyph-name="Aring" unicode="&#xc5;" horiz-adv-x="655" 
d="M326 735c-24 0 -44.833 7.83301 -62.5 23.5s-26.5 35.167 -26.5 58.5c0 24.667 8.83301 44.5 26.5 59.5s38.5 22.5 62.5 22.5c26 0 47.667 -7.5 65 -22.5s26 -34.833 26 -59.5c0 -23.333 -8.66699 -42.833 -26 -58.5s-39 -23.5 -65 -23.5zM327 794
c7.33301 0 13.332 2.50098 17.999 7.50098s7 10.167 7 15.5c0 7.33301 -2.66699 13.166 -8 17.499s-10.666 6.5 -15.999 6.5c-7.33301 0 -13.5 -2.5 -18.5 -7.5s-7.5 -10.833 -7.5 -17.5s2.33301 -12 7 -16s10.667 -6 18 -6zM194.999 596.001
c9.33301 34 25.167 61.667 47.5 83s50.5 32 84.5 32s62.167 -10.833 84.5 -32.5s37.833 -49.167 46.5 -82.5l157 -596h-95l-51 197h-285l-50 -197h-94zM449 277.001l-77.998 306c-3.33301 13.333 -8.33301 24 -15 32s-16.334 12 -29.001 12s-22.334 -4 -29.001 -12
s-11.667 -18.667 -15 -32l-79 -306h245z" />
    <glyph glyph-name="AE" unicode="&#xc6;" horiz-adv-x="932" 
d="M304 590c15.333 34 35.168 60.501 59.501 79.501s55.5 28.5 93.5 28.5h414v-82h-292v-218h262v-81h-262v-128c0 -15.333 1.5 -29.5 4.5 -42.5s8.66699 -24.333 17 -34s19.666 -17.334 33.999 -23.001s33.166 -8.5 56.499 -8.5h185v-64
c0 -4.66699 -1.83301 -8.66699 -5.5 -12s-8.16699 -5 -13.5 -5h-167c-69.333 0 -120.666 17 -153.999 51s-50 78.667 -50 134v12h-258l-87 -197h-101zM486.002 277.001l-0.000976562 338.999h-25c-17.333 0 -31.666 -5.16699 -42.999 -15.5s-21 -24.166 -29 -41.499
l-125 -282h222z" />
    <glyph glyph-name="Ccedilla" unicode="&#xc7;" horiz-adv-x="567" 
d="M206 -141c7.33301 -2 14.166 -3.33691 20.499 -4.00391s13.166 -1 20.499 -1c31.333 0 47 18.667 47 56v78c-73.333 4 -130.166 27.833 -170.499 71.5s-60.5 105.834 -60.5 186.501v206c0 83.333 22 147.333 66 192s106 67 186 67c34 0 66.833 -2.66699 98.5 -8
s64.5 -12.666 98.5 -21.999l-18 -79c-28 8.66699 -55.833 15.334 -83.5 20.001s-56.167 7 -85.5 7c-30.667 0 -56.5 -4.5 -77.5 -13.5s-38 -21.667 -51 -38s-22.333 -36 -28 -59s-8.5 -48.833 -8.5 -77.5v-184c0 -28.667 2.83301 -54.667 8.5 -78s15 -43.166 28 -59.499
s30 -29 51 -38s46.833 -13.5 77.5 -13.5c32 0 61 2.5 87 7.5s53.333 11.167 82 18.5l18 -77c-23.333 -7.33301 -46.5 -13.166 -69.5 -17.499s-47.167 -7.83301 -72.5 -10.5v-93c0 -21.333 -3.5 -38.833 -10.5 -52.5s-16 -24.834 -27 -33.501s-23.167 -14.667 -36.5 -18
s-26.666 -5 -39.999 -5c-10 0 -20 0.666992 -30 2s-20 3 -30 5l10 65v0z" />
    <glyph glyph-name="Egrave" unicode="&#xc8;" horiz-adv-x="519" 
d="M211 890l187 -76l-23 -59l-193 63zM70 519c0 54 16.667 97.333 50 130s84.333 49 153 49h185v-82h-184c-42.667 0 -71.5 -9.16699 -86.5 -27.5s-22.5 -43.5 -22.5 -75.5v-115h263v-81h-263v-133c0 -32 7.5 -57.167 22.5 -75.5s43.833 -27.5 86.5 -27.5h188v-59
c0 -14.667 -7.33301 -22 -22 -22h-167c-68 -0 -118.833 16.333 -152.5 49s-50.5 75.667 -50.5 129v341z" />
    <glyph glyph-name="Eacute" unicode="&#xc9;" horiz-adv-x="519" 
d="M175 814l187 76l29 -72l-193 -63zM70 519c0 54 16.667 97.333 50 130s84.333 49 153 49h185v-82h-184c-42.667 0 -71.5 -9.16699 -86.5 -27.5s-22.5 -43.5 -22.5 -75.5v-115h263v-81h-263v-133c0 -32 7.5 -57.167 22.5 -75.5s43.833 -27.5 86.5 -27.5h188v-59
c0 -14.667 -7.33301 -22 -22 -22h-167c-68 -0 -118.833 16.333 -152.5 49s-50.5 75.667 -50.5 129v341z" />
    <glyph glyph-name="Ecircumflex" unicode="&#xca;" horiz-adv-x="519" 
d="M150 812l136 79l136 -79l-41 -58l-95 58l-94 -58zM70 519c0 54 16.667 97.333 50 130s84.333 49 153 49h185v-82h-184c-42.667 0 -71.5 -9.16699 -86.5 -27.5s-22.5 -43.5 -22.5 -75.5v-115h263v-81h-263v-133c0 -32 7.5 -57.167 22.5 -75.5s43.833 -27.5 86.5 -27.5h188
v-59c0 -14.667 -7.33301 -22 -22 -22h-167c-68 -0 -118.833 16.333 -152.5 49s-50.5 75.667 -50.5 129v341z" />
    <glyph glyph-name="Edieresis" unicode="&#xcb;" horiz-adv-x="519" 
d="M365 770c-14 0 -26.167 5 -36.5 15s-15.5 22 -15.5 36s5.16699 26.333 15.5 37s22.5 16 36.5 16c13.333 0 25.333 -5.33301 36 -16s16 -23 16 -37s-5.33301 -26 -16 -36s-22.667 -15 -36 -15zM194 770c-14 0 -26.167 5 -36.5 15s-15.5 22 -15.5 36
s5.16699 26.333 15.5 37s22.5 16 36.5 16s26 -5.33301 36 -16s15 -23 15 -37s-5 -26 -15 -36s-22 -15 -36 -15zM70 519c0 54 16.667 97.333 50 130s84.333 49 153 49h185v-82h-184c-42.667 0 -71.5 -9.16699 -86.5 -27.5s-22.5 -43.5 -22.5 -75.5v-115h263v-81h-263v-133
c0 -32 7.5 -57.167 22.5 -75.5s43.833 -27.5 86.5 -27.5h188v-59c0 -14.667 -7.33301 -22 -22 -22h-167c-68 -0 -118.833 16.333 -152.5 49s-50.5 75.667 -50.5 129v341z" />
    <glyph glyph-name="Igrave" unicode="&#xcc;" horiz-adv-x="275" 
d="M30 818l29 72l187 -76l-23 -59zM90 698h95v-676c0 -14.667 -7.33301 -22 -22 -22h-73v698z" />
    <glyph glyph-name="Iacute" unicode="&#xcd;" horiz-adv-x="275" 
d="M30 814l187 76l29 -72l-193 -63zM90 698h95v-676c0 -14.667 -7.33301 -22 -22 -22h-73v698z" />
    <glyph glyph-name="Icircumflex" unicode="&#xce;" horiz-adv-x="275" 
d="M2 812l136 79l136 -79l-42 -58l-94 58l-95 -58zM90 698h95v-676c0 -14.667 -7.33301 -22 -22 -22h-73v698z" />
    <glyph glyph-name="Idieresis" unicode="&#xcf;" horiz-adv-x="275" 
d="M224 770c-14.667 0 -27.167 5 -37.5 15s-15.5 22 -15.5 36s5.16699 26.333 15.5 37s22.833 16 37.5 16c13.333 0 25.166 -5.33301 35.499 -16s15.5 -23 15.5 -37s-5.16699 -26 -15.5 -36s-22.166 -15 -35.499 -15zM52 770c-14 0 -26.167 5 -36.5 15s-15.5 22 -15.5 36
s5.16699 26.333 15.5 37s22.5 16 36.5 16s26.167 -5.33301 36.5 -16s15.5 -23 15.5 -37s-5.16699 -26 -15.5 -36s-22.5 -15 -36.5 -15zM90 698h95v-676c0 -14.667 -7.33301 -22 -22 -22h-73v698z" />
    <glyph glyph-name="Eth" unicode="&#xd0;" horiz-adv-x="653" 
d="M90 314h-68v69h68v315h245c86.667 0 150.834 -20.333 192.501 -61s62.5 -104 62.5 -190v-196c0 -86.667 -20.833 -150.167 -62.5 -190.5s-105.834 -60.5 -192.501 -60.5h-245v314zM333 81c33.333 0 60.333 4.33301 81 13s36.834 20.834 48.501 36.501
s19.667 34.667 24 57s6.5 47.166 6.5 74.499v173c0 27.333 -2.16699 52.166 -6.5 74.499s-12.333 41.333 -24 57s-27.834 27.834 -48.501 36.501s-47.667 13 -81 13h-148v-233h141v-69h-141v-233h148z" />
    <glyph glyph-name="Ntilde" unicode="&#xd1;" horiz-adv-x="663" 
d="M196 819c14.667 20 28.667 34.165 42 42.498s28.666 12.5 45.999 12.5c10.667 0 20.334 -1.83301 29.001 -5.5s16.834 -7.66699 24.501 -12l21.5 -12c6.66699 -3.66699 13 -5.5 19 -5.5c9.33301 0 18 2.33301 26 7s16.667 12.667 26 24l37 -44
c-15.333 -20.667 -29.666 -35.167 -42.999 -43.5s-28.666 -12.5 -45.999 -12.5c-10 0 -19.333 1.83301 -28 5.5s-16.834 7.83398 -24.501 12.501s-14.834 8.83398 -21.501 12.501s-13.334 5.5 -20.001 5.5c-9.33301 0 -18 -2.33301 -26 -7s-16.667 -12.667 -26 -24z
M90 697.998l88 0.000976562l307 -529c-2 22.667 -3.5 45.167 -4.5 67.5s-1.5 42.166 -1.5 59.499v402h94v-698h-88l-307 527l4 -67c1.33301 -22 2 -41.667 2 -59v-401h-94v698z" />
    <glyph glyph-name="Ograve" unicode="&#xd2;" horiz-adv-x="661" 
d="M251 890l188 -76l-24 -59l-193 63zM63 423c0 42.667 6 81.667 18 117s29.5 65.666 52.5 90.999s51.167 45 84.5 59s71 21 113 21s79.5 -7 112.5 -21s61 -33.667 84 -59s40.5 -55.666 52.5 -90.999s18 -74.333 18 -117v-148c0 -43.333 -6 -82.666 -18 -117.999
s-29.5 -65.666 -52.5 -90.999s-51 -44.833 -84 -58.5s-70.5 -20.5 -112.5 -20.5s-79.667 6.83301 -113 20.5s-61.5 33.167 -84.5 58.5s-40.5 55.666 -52.5 90.999s-18 74.666 -18 117.999v148zM160 285c0 -29.333 2.83301 -57 8.5 -83s15 -49 28 -69
s30.5 -35.833 52.5 -47.5s49.333 -17.5 82 -17.5s60 5.83301 82 17.5s39.5 27.5 52.5 47.5s22.167 43 27.5 69s8 53.667 8 83v128c0 28.667 -2.66699 56 -8 82s-14.5 49 -27.5 69s-30.5 35.833 -52.5 47.5s-49.333 17.5 -82 17.5s-60 -5.83301 -82 -17.5
s-39.5 -27.5 -52.5 -47.5s-22.333 -43 -28 -69s-8.5 -53.333 -8.5 -82v-128z" />
    <glyph glyph-name="Oacute" unicode="&#xd3;" horiz-adv-x="661" 
d="M222 814l188 76l29 -72l-193 -63zM63 423c0 42.667 6 81.667 18 117s29.5 65.666 52.5 90.999s51.167 45 84.5 59s71 21 113 21s79.5 -7 112.5 -21s61 -33.667 84 -59s40.5 -55.666 52.5 -90.999s18 -74.333 18 -117v-148c0 -43.333 -6 -82.666 -18 -117.999
s-29.5 -65.666 -52.5 -90.999s-51 -44.833 -84 -58.5s-70.5 -20.5 -112.5 -20.5s-79.667 6.83301 -113 20.5s-61.5 33.167 -84.5 58.5s-40.5 55.666 -52.5 90.999s-18 74.666 -18 117.999v148zM160 285c0 -29.333 2.83301 -57 8.5 -83s15 -49 28 -69
s30.5 -35.833 52.5 -47.5s49.333 -17.5 82 -17.5s60 5.83301 82 17.5s39.5 27.5 52.5 47.5s22.167 43 27.5 69s8 53.667 8 83v128c0 28.667 -2.66699 56 -8 82s-14.5 49 -27.5 69s-30.5 35.833 -52.5 47.5s-49.333 17.5 -82 17.5s-60 -5.83301 -82 -17.5
s-39.5 -27.5 -52.5 -47.5s-22.333 -43 -28 -69s-8.5 -53.333 -8.5 -82v-128z" />
    <glyph glyph-name="Ocircumflex" unicode="&#xd4;" horiz-adv-x="661" 
d="M195 812l136 79l136 -79l-42 -58l-94 58l-95 -58zM63 423c0 42.667 6 81.667 18 117s29.5 65.666 52.5 90.999s51.167 45 84.5 59s71 21 113 21s79.5 -7 112.5 -21s61 -33.667 84 -59s40.5 -55.666 52.5 -90.999s18 -74.333 18 -117v-148
c0 -43.333 -6 -82.666 -18 -117.999s-29.5 -65.666 -52.5 -90.999s-51 -44.833 -84 -58.5s-70.5 -20.5 -112.5 -20.5s-79.667 6.83301 -113 20.5s-61.5 33.167 -84.5 58.5s-40.5 55.666 -52.5 90.999s-18 74.666 -18 117.999v148zM160 285c0 -29.333 2.83301 -57 8.5 -83
s15 -49 28 -69s30.5 -35.833 52.5 -47.5s49.333 -17.5 82 -17.5s60 5.83301 82 17.5s39.5 27.5 52.5 47.5s22.167 43 27.5 69s8 53.667 8 83v128c0 28.667 -2.66699 56 -8 82s-14.5 49 -27.5 69s-30.5 35.833 -52.5 47.5s-49.333 17.5 -82 17.5s-60 -5.83301 -82 -17.5
s-39.5 -27.5 -52.5 -47.5s-22.333 -43 -28 -69s-8.5 -53.333 -8.5 -82v-128z" />
    <glyph glyph-name="Otilde" unicode="&#xd5;" horiz-adv-x="661" 
d="M195 819c14.667 20 28.667 34.165 42 42.498s28.666 12.5 45.999 12.5c10.667 0 20.334 -1.83301 29.001 -5.5s16.834 -7.66699 24.501 -12l21.5 -12c6.66699 -3.66699 13 -5.5 19 -5.5c9.33301 0 18 2.33301 26 7s16.667 12.667 26 24l37 -44
c-15.333 -20.667 -29.666 -35.167 -42.999 -43.5s-28.666 -12.5 -45.999 -12.5c-10 0 -19.333 1.83301 -28 5.5s-16.834 7.83398 -24.501 12.501s-14.834 8.83398 -21.501 12.501s-13.334 5.5 -20.001 5.5c-9.33301 0 -18 -2.33301 -26 -7s-16.667 -12.667 -26 -24z
M63 422.998c0 42.667 6 81.667 18 117s29.5 65.666 52.5 90.999s51.167 45 84.5 59s71 21 113 21s79.5 -7 112.5 -21s61 -33.667 84 -59s40.5 -55.666 52.5 -90.999s18 -74.333 18 -117v-148c0 -43.333 -6 -82.666 -18 -117.999s-29.5 -65.666 -52.5 -90.999
s-51 -44.833 -84 -58.5s-70.5 -20.5 -112.5 -20.5s-79.667 6.83301 -113 20.5s-61.5 33.167 -84.5 58.5s-40.5 55.666 -52.5 90.999s-18 74.666 -18 117.999v148zM160 284.998c0 -29.333 2.83301 -57 8.5 -83s15 -49 28 -69s30.5 -35.833 52.5 -47.5s49.333 -17.5 82 -17.5
s60 5.83301 82 17.5s39.5 27.5 52.5 47.5s22.167 43 27.5 69s8 53.667 8 83v128c0 28.667 -2.66699 56 -8 82s-14.5 49 -27.5 69s-30.5 35.833 -52.5 47.5s-49.333 17.5 -82 17.5s-60 -5.83301 -82 -17.5s-39.5 -27.5 -52.5 -47.5s-22.333 -43 -28 -69
s-8.5 -53.333 -8.5 -82v-128z" />
    <glyph glyph-name="Odieresis" unicode="&#xd6;" horiz-adv-x="661" 
d="M417 770c-14.667 0 -27.167 5 -37.5 15s-15.5 22 -15.5 36s5.16699 26.333 15.5 37s22.833 16 37.5 16c13.333 0 25.166 -5.33301 35.499 -16s15.5 -23 15.5 -37s-5.16699 -26 -15.5 -36s-22.166 -15 -35.499 -15zM245 770c-14 0 -26.167 5 -36.5 15s-15.5 22 -15.5 36
s5.16699 26.333 15.5 37s22.5 16 36.5 16s26.167 -5.33301 36.5 -16s15.5 -23 15.5 -37s-5.16699 -26 -15.5 -36s-22.5 -15 -36.5 -15zM63 423c0 42.667 6 81.667 18 117s29.5 65.666 52.5 90.999s51.167 45 84.5 59s71 21 113 21s79.5 -7 112.5 -21s61 -33.667 84 -59
s40.5 -55.666 52.5 -90.999s18 -74.333 18 -117v-148c0 -43.333 -6 -82.666 -18 -117.999s-29.5 -65.666 -52.5 -90.999s-51 -44.833 -84 -58.5s-70.5 -20.5 -112.5 -20.5s-79.667 6.83301 -113 20.5s-61.5 33.167 -84.5 58.5s-40.5 55.666 -52.5 90.999
s-18 74.666 -18 117.999v148zM160 285c0 -29.333 2.83301 -57 8.5 -83s15 -49 28 -69s30.5 -35.833 52.5 -47.5s49.333 -17.5 82 -17.5s60 5.83301 82 17.5s39.5 27.5 52.5 47.5s22.167 43 27.5 69s8 53.667 8 83v128c0 28.667 -2.66699 56 -8 82s-14.5 49 -27.5 69
s-30.5 35.833 -52.5 47.5s-49.333 17.5 -82 17.5s-60 -5.83301 -82 -17.5s-39.5 -27.5 -52.5 -47.5s-22.333 -43 -28 -69s-8.5 -53.333 -8.5 -82v-128z" />
    <glyph glyph-name="multiply" unicode="&#xd7;" horiz-adv-x="568" 
d="M94 163l131 130l-131 132l58 59l131 -132l132 132l59 -58l-132 -133l132 -131l-59 -59l-132 132l-131 -131z" />
    <glyph glyph-name="Oslash" unicode="&#xd8;" horiz-adv-x="661" 
d="M156 45c-30 25.333 -52.999 57.499 -68.999 96.499s-24 83.5 -24 133.5v148c0 42.667 6 81.667 18 117s29.5 65.666 52.5 90.999s51.167 45 84.5 59s71 21 113 21c40 0 77.333 -7.33301 112 -22l40 91l63 -28l-44 -97c31.333 -25.333 55.166 -57.833 71.499 -97.5
s24.5 -84.5 24.5 -134.5v-148c0 -43.333 -6 -82.666 -18 -117.999s-29.5 -65.666 -52.5 -90.999s-51 -44.833 -84 -58.5s-70.5 -20.5 -112.5 -20.5c-22 0 -42.5 1.83301 -61.5 5.5s-37.167 9.16699 -54.5 16.5l-40 -91l-63 27zM409.001 612.999
c-22.667 10.667 -48.667 16 -78 16c-32.667 0 -60 -5.83301 -82 -17.5s-39.5 -27.5 -52.5 -47.5s-22.333 -43 -28 -69s-8.5 -53.333 -8.5 -82v-128c0 -28 2.83301 -54.5 8.5 -79.5s15.5 -47.167 29.5 -66.5zM249.001 85.999c22 -12 49.333 -18.001 82 -18.001
s60 5.83301 82 17.5s39.5 27.5 52.5 47.5s22.167 43 27.5 69s8 53.667 8 83v128c0 28.667 -3 55.834 -9 81.501s-16.667 48.167 -32 67.5z" />
    <glyph glyph-name="Ugrave" unicode="&#xd9;" horiz-adv-x="660" 
d="M251 890l187 -76l-23 -59l-193 63zM75 698h95v-459c0 -21.333 3 -42.333 9 -63s15.5 -39 28.5 -55s29.667 -28.833 50 -38.5s44.5 -14.5 72.5 -14.5s52.167 4.83301 72.5 14.5s37 22.5 50 38.5s22.667 34.333 29 55s9.5 41.667 9.5 63v459h94v-441
c0 -86 -21.833 -152.5 -65.5 -199.5s-106.834 -70.5 -189.501 -70.5c-81.333 0 -144.166 23.5 -188.499 70.5s-66.5 113.5 -66.5 199.5v441z" />
    <glyph glyph-name="Uacute" unicode="&#xda;" horiz-adv-x="660" 
d="M222 814l187 76l29 -72l-193 -63zM75 698h95v-459c0 -21.333 3 -42.333 9 -63s15.5 -39 28.5 -55s29.667 -28.833 50 -38.5s44.5 -14.5 72.5 -14.5s52.167 4.83301 72.5 14.5s37 22.5 50 38.5s22.667 34.333 29 55s9.5 41.667 9.5 63v459h94v-441
c0 -86 -21.833 -152.5 -65.5 -199.5s-106.834 -70.5 -189.501 -70.5c-81.333 0 -144.166 23.5 -188.499 70.5s-66.5 113.5 -66.5 199.5v441z" />
    <glyph glyph-name="Ucircumflex" unicode="&#xdb;" horiz-adv-x="660" 
d="M194 812l136 79l136 -79l-42 -58l-94 58l-95 -58zM75 698h95v-459c0 -21.333 3 -42.333 9 -63s15.5 -39 28.5 -55s29.667 -28.833 50 -38.5s44.5 -14.5 72.5 -14.5s52.167 4.83301 72.5 14.5s37 22.5 50 38.5s22.667 34.333 29 55s9.5 41.667 9.5 63v459h94v-441
c0 -86 -21.833 -152.5 -65.5 -199.5s-106.834 -70.5 -189.501 -70.5c-81.333 0 -144.166 23.5 -188.499 70.5s-66.5 113.5 -66.5 199.5v441z" />
    <glyph glyph-name="Udieresis" unicode="&#xdc;" horiz-adv-x="660" 
d="M416 770c-14.667 0 -27.167 5 -37.5 15s-15.5 22 -15.5 36s5.16699 26.333 15.5 37s22.833 16 37.5 16c13.333 0 25.166 -5.33301 35.499 -16s15.5 -23 15.5 -37s-5.16699 -26 -15.5 -36s-22.166 -15 -35.499 -15zM244 770c-14 0 -26.167 5 -36.5 15s-15.5 22 -15.5 36
s5.16699 26.333 15.5 37s22.5 16 36.5 16s26.167 -5.33301 36.5 -16s15.5 -23 15.5 -37s-5.16699 -26 -15.5 -36s-22.5 -15 -36.5 -15zM75 698h95v-459c0 -21.333 3 -42.333 9 -63s15.5 -39 28.5 -55s29.667 -28.833 50 -38.5s44.5 -14.5 72.5 -14.5
s52.167 4.83301 72.5 14.5s37 22.5 50 38.5s22.667 34.333 29 55s9.5 41.667 9.5 63v459h94v-441c0 -86 -21.833 -152.5 -65.5 -199.5s-106.834 -70.5 -189.501 -70.5c-81.333 0 -144.166 23.5 -188.499 70.5s-66.5 113.5 -66.5 199.5v441z" />
    <glyph glyph-name="Yacute" unicode="&#xdd;" horiz-adv-x="580" 
d="M181 814l188 76l29 -72l-193 -63zM243 287c-26 4 -47.9971 11.832 -65.9971 23.499s-33.333 25.834 -46 42.501s-22.667 35.5 -30 56.5s-13.333 43.167 -18 66.5l-43 222h93l42 -208c3.33301 -17.333 7.33301 -33.666 12 -48.999s11.167 -28.833 19.5 -40.5
s19.166 -21 32.499 -28s30.333 -10.5 51 -10.5s37.667 3.5 51 10.5s24.166 16.333 32.499 28s14.833 25.167 19.5 40.5s8.66699 31.666 12 48.999l41 208h94l-44 -222c-4.66699 -23.333 -10.834 -45.5 -18.501 -66.5s-17.667 -40 -30 -57s-27.5 -31.167 -45.5 -42.5
s-39.667 -19 -65 -23v-287h-94v287z" />
    <glyph glyph-name="Thorn" unicode="&#xde;" horiz-adv-x="565" 
d="M90 698h95v-117h98c38 0 71.667 -5.83301 101 -17.5s54 -27.5 74 -47.5s35.167 -43.333 45.5 -70s15.5 -55 15.5 -85s-5.16699 -58.333 -15.5 -85s-25.5 -50 -45.5 -70s-44.667 -35.833 -74 -47.5s-63 -17.5 -101 -17.5h-98v-141h-95v698zM281 223
c24.667 0 45.999 4.00098 63.999 12.001s32.5 18.5 43.5 31.5s19.167 27.667 24.5 44s8 33.166 8 50.499s-2.66699 34.333 -8 51s-13.666 31.5 -24.999 44.5s-25.833 23.333 -43.5 31s-39.167 11.5 -64.5 11.5h-95v-276h96z" />
    <glyph glyph-name="germandbls" unicode="&#xdf;" horiz-adv-x="598" 
d="M96 446l-83 8.00098v61h83v52c0 28 4.5 52.667 13.5 74s21.5 39.166 37.5 53.499s35.167 25.333 57.5 33s46.833 11.5 73.5 11.5c25.333 0 48.833 -4 70.5 -12s40.5 -19 56.5 -33s28.5 -30.833 37.5 -50.5s13.5 -41.167 13.5 -64.5c0 -28.667 -5.66699 -52 -17 -70
s-24 -34 -38 -48s-26.667 -27.833 -38 -41.5s-17 -30.167 -17 -49.5c0 -16 5 -28.833 15 -38.5s22.667 -18.334 38 -26.001s31.666 -15.167 48.999 -22.5s33.666 -16.833 48.999 -28.5s28 -26.334 38 -44.001s15 -40.5 15 -68.5c0 -23.333 -4.5 -44.666 -13.5 -63.999
s-21.5 -35.666 -37.5 -48.999s-35.167 -23.666 -57.5 -30.999s-47.166 -11 -74.499 -11s-51.833 2.33301 -73.5 7s-46.167 11.667 -73.5 21l19 77c24.667 -8 46 -14.167 64 -18.5s39.333 -6.5 64 -6.5c32.667 0 55.667 7.16699 69 21.5s20 32.166 20 53.499
c0 17.333 -5 31 -15 41s-22.5 18.667 -37.5 26s-31.167 14.5 -48.5 21.5s-33.5 16 -48.5 27s-27.5 25.333 -37.5 43s-15 40.834 -15 69.501c0 28 5.83301 50.5 17.5 67.5s24.667 32.167 39 45.5s27.333 27.166 39 41.499s17.5 32.5 17.5 54.5c0 21.333 -7.5 40 -22.5 56
s-36.833 24 -65.5 24c-32 0 -55.167 -8.33301 -69.5 -25s-21.5 -41 -21.5 -73v-539c0 -6.66699 -2.16699 -12 -6.5 -16s-9.16602 -6 -14.499 -6h-71v446z" />
    <glyph glyph-name="agrave" unicode="&#xe0;" horiz-adv-x="514" 
d="M180 722l188 -76l-24 -59l-193 63zM47 143c0 28 5.49902 51.668 16.499 71.001s26.5 35 46.5 47s43.833 20.833 71.5 26.5s57.834 8.5 90.501 8.5h77v36c0 38.667 -7.83301 67.667 -23.5 87s-43.834 29 -84.501 29c-25.333 0 -48.666 -2.16699 -69.999 -6.5
s-44.333 -10.166 -69 -17.499l-21 75c28 9.33301 54.667 16.5 80 21.5s52 7.5 80 7.5c34 0 63.5 -4.5 88.5 -13.5s45.667 -21.833 62 -38.5s28.666 -36.334 36.999 -59.001s12.5 -47.334 12.5 -74.001v-343h-74l-7 50c-19.333 -19.333 -41.166 -34.666 -65.499 -45.999
s-51.5 -17 -81.5 -17c-52 0 -92.667 14.167 -122 42.5s-44 66.166 -44 113.499zM139.999 144.001c0 -23.333 7 -42.001 21 -56.001s36 -21 66 -21c22 0 43.667 4.83301 65 14.5s40.333 22.5 57 38.5v106h-70c-20 0 -38.5 -1.16699 -55.5 -3.5s-31.667 -6.66602 -44 -12.999
s-22 -14.833 -29 -25.5s-10.5 -24 -10.5 -40z" />
    <glyph glyph-name="aacute" unicode="&#xe1;" horiz-adv-x="514" 
d="M148 646l188 76l29 -72l-193 -63zM47 143c0 28 5.49902 51.668 16.499 71.001s26.5 35 46.5 47s43.833 20.833 71.5 26.5s57.834 8.5 90.501 8.5h77v36c0 38.667 -7.83301 67.667 -23.5 87s-43.834 29 -84.501 29c-25.333 0 -48.666 -2.16699 -69.999 -6.5
s-44.333 -10.166 -69 -17.499l-21 75c28 9.33301 54.667 16.5 80 21.5s52 7.5 80 7.5c34 0 63.5 -4.5 88.5 -13.5s45.667 -21.833 62 -38.5s28.666 -36.334 36.999 -59.001s12.5 -47.334 12.5 -74.001v-343h-74l-7 50c-19.333 -19.333 -41.166 -34.666 -65.499 -45.999
s-51.5 -17 -81.5 -17c-52 0 -92.667 14.167 -122 42.5s-44 66.166 -44 113.499zM139.999 144.001c0 -23.333 7 -42.001 21 -56.001s36 -21 66 -21c22 0 43.667 4.83301 65 14.5s40.333 22.5 57 38.5v106h-70c-20 0 -38.5 -1.16699 -55.5 -3.5s-31.667 -6.66602 -44 -12.999
s-22 -14.833 -29 -25.5s-10.5 -24 -10.5 -40z" />
    <glyph glyph-name="acircumflex" unicode="&#xe2;" horiz-adv-x="514" 
d="M120 644l136 79l136 -79l-42 -58l-94 58l-95 -58zM47 143c0 28 5.49902 51.668 16.499 71.001s26.5 35 46.5 47s43.833 20.833 71.5 26.5s57.834 8.5 90.501 8.5h77v36c0 38.667 -7.83301 67.667 -23.5 87s-43.834 29 -84.501 29
c-25.333 0 -48.666 -2.16699 -69.999 -6.5s-44.333 -10.166 -69 -17.499l-21 75c28 9.33301 54.667 16.5 80 21.5s52 7.5 80 7.5c34 0 63.5 -4.5 88.5 -13.5s45.667 -21.833 62 -38.5s28.666 -36.334 36.999 -59.001s12.5 -47.334 12.5 -74.001v-343h-74l-7 50
c-19.333 -19.333 -41.166 -34.666 -65.499 -45.999s-51.5 -17 -81.5 -17c-52 0 -92.667 14.167 -122 42.5s-44 66.166 -44 113.499zM139.999 144.001c0 -23.333 7 -42.001 21 -56.001s36 -21 66 -21c22 0 43.667 4.83301 65 14.5s40.333 22.5 57 38.5v106h-70
c-20 0 -38.5 -1.16699 -55.5 -3.5s-31.667 -6.66602 -44 -12.999s-22 -14.833 -29 -25.5s-10.5 -24 -10.5 -40z" />
    <glyph glyph-name="atilde" unicode="&#xe3;" horiz-adv-x="514" 
d="M119 651c14.667 20 28.667 34.165 42 42.498s28.666 12.5 45.999 12.5c10.667 0 20.334 -1.83301 29.001 -5.5s16.834 -7.66699 24.501 -12l21.5 -12c6.66699 -3.66699 13 -5.5 19 -5.5c9.33301 0 18 2.33301 26 7s16.667 12.667 26 24l37 -44
c-15.333 -20.667 -29.666 -35.167 -42.999 -43.5s-28.666 -12.5 -45.999 -12.5c-10 0 -19.333 1.83301 -28 5.5s-16.834 7.83398 -24.501 12.501s-14.834 8.83398 -21.501 12.501s-13.334 5.5 -20.001 5.5c-9.33301 0 -18 -2.33301 -26 -7s-16.667 -12.667 -26 -24z
M47 142.998c0 28 5.49902 51.668 16.499 71.001s26.5 35 46.5 47s43.833 20.833 71.5 26.5s57.834 8.5 90.501 8.5h77v36c0 38.667 -7.83301 67.667 -23.5 87s-43.834 29 -84.501 29c-25.333 0 -48.666 -2.16699 -69.999 -6.5s-44.333 -10.166 -69 -17.499l-21 75
c28 9.33301 54.667 16.5 80 21.5s52 7.5 80 7.5c34 0 63.5 -4.5 88.5 -13.5s45.667 -21.833 62 -38.5s28.666 -36.334 36.999 -59.001s12.5 -47.334 12.5 -74.001v-343h-74l-7 50c-19.333 -19.333 -41.166 -34.666 -65.499 -45.999s-51.5 -17 -81.5 -17
c-52 0 -92.667 14.167 -122 42.5s-44 66.166 -44 113.499zM139.999 143.999c0 -23.333 7 -42.001 21 -56.001s36 -21 66 -21c22 0 43.667 4.83301 65 14.5s40.333 22.5 57 38.5v106h-70c-20 0 -38.5 -1.16699 -55.5 -3.5s-31.667 -6.66602 -44 -12.999
s-22 -14.833 -29 -25.5s-10.5 -24 -10.5 -40z" />
    <glyph glyph-name="adieresis" unicode="&#xe4;" horiz-adv-x="514" 
d="M340 602c-14.667 0 -27.167 5 -37.5 15s-15.5 22 -15.5 36s5.16699 26.333 15.5 37s22.833 16 37.5 16c13.333 0 25.166 -5.33301 35.499 -16s15.5 -23 15.5 -37s-5.16699 -26 -15.5 -36s-22.166 -15 -35.499 -15zM168 602c-14 0 -26.167 5 -36.5 15s-15.5 22 -15.5 36
s5.16699 26.333 15.5 37s22.5 16 36.5 16s26.167 -5.33301 36.5 -16s15.5 -23 15.5 -37s-5.16699 -26 -15.5 -36s-22.5 -15 -36.5 -15zM47 143c0 28 5.49902 51.668 16.499 71.001s26.5 35 46.5 47s43.833 20.833 71.5 26.5s57.834 8.5 90.501 8.5h77v36
c0 38.667 -7.83301 67.667 -23.5 87s-43.834 29 -84.501 29c-25.333 0 -48.666 -2.16699 -69.999 -6.5s-44.333 -10.166 -69 -17.499l-21 75c28 9.33301 54.667 16.5 80 21.5s52 7.5 80 7.5c34 0 63.5 -4.5 88.5 -13.5s45.667 -21.833 62 -38.5
s28.666 -36.334 36.999 -59.001s12.5 -47.334 12.5 -74.001v-343h-74l-7 50c-19.333 -19.333 -41.166 -34.666 -65.499 -45.999s-51.5 -17 -81.5 -17c-52 0 -92.667 14.167 -122 42.5s-44 66.166 -44 113.499zM139.999 144.001c0 -23.333 7 -42.001 21 -56.001
s36 -21 66 -21c22 0 43.667 4.83301 65 14.5s40.333 22.5 57 38.5v106h-70c-20 0 -38.5 -1.16699 -55.5 -3.5s-31.667 -6.66602 -44 -12.999s-22 -14.833 -29 -25.5s-10.5 -24 -10.5 -40z" />
    <glyph glyph-name="aring" unicode="&#xe5;" horiz-adv-x="514" 
d="M253 574c-24.667 0 -45.667 7.83301 -63 23.5s-26 35.167 -26 58.5c0 24.667 8.66699 44.5 26 59.5s38.333 22.5 63 22.5c25.333 0 46.833 -7.5 64.5 -22.5s26.5 -34.833 26.5 -59.5c0 -23.333 -8.83301 -42.833 -26.5 -58.5s-39.167 -23.5 -64.5 -23.5zM253 633
c7.33301 0 13.335 2.33203 18.002 6.99902s7 10 7 16c0 6.66699 -2.33301 12.334 -7 17.001s-10.334 7 -17.001 7s-12.5 -2.33301 -17.5 -7s-7.5 -10.667 -7.5 -18c0 -6 2.16699 -11.167 6.5 -15.5s10.166 -6.5 17.499 -6.5zM47.002 142.999
c0 28 5.49902 51.668 16.499 71.001s26.5 35 46.5 47s43.833 20.833 71.5 26.5s57.834 8.5 90.501 8.5h77v36c0 38.667 -7.83301 67.667 -23.5 87s-43.834 29 -84.501 29c-25.333 0 -48.666 -2.16699 -69.999 -6.5s-44.333 -10.166 -69 -17.499l-21 75
c28 9.33301 54.667 16.5 80 21.5s52 7.5 80 7.5c34 0 63.5 -4.5 88.5 -13.5s45.667 -21.833 62 -38.5s28.666 -36.334 36.999 -59.001s12.5 -47.334 12.5 -74.001v-343h-74l-7 50c-19.333 -19.333 -41.166 -34.666 -65.499 -45.999s-51.5 -17 -81.5 -17
c-52 0 -92.667 14.167 -122 42.5s-44 66.166 -44 113.499zM140.001 144c0 -23.333 7 -42.001 21 -56.001s36 -21 66 -21c22 0 43.667 4.83301 65 14.5s40.333 22.5 57 38.5v106h-70c-20 0 -38.5 -1.16699 -55.5 -3.5s-31.667 -6.66602 -44 -12.999s-22 -14.833 -29 -25.5
s-10.5 -24 -10.5 -40z" />
    <glyph glyph-name="ae" unicode="&#xe6;" horiz-adv-x="816" 
d="M47 145c0 28 5.67285 51.667 17.0059 71s27.166 35 47.499 47s44.166 20.5 71.499 25.5s57 7.5 89 7.5h77v35c0 40 -7.83301 69.5 -23.5 88.5s-43.834 28.5 -84.501 28.5c-25.333 0 -48.666 -2.33301 -69.999 -7s-44.333 -10.667 -69 -18l-21 76
c28 9.33301 54.667 16.5 80 21.5s52 7.5 80 7.5c39.333 0 72.166 -6.33301 98.499 -19s47.166 -30 62.499 -52c17.333 21.333 38.833 38.5 64.5 51.5s55.5 19.5 89.5 19.5c32.667 0 62 -6 88 -18s47.833 -27.833 65.5 -47.5s31.167 -42.167 40.5 -67.5s14 -51 14 -77v-61
c0 -6.66699 -2.16699 -12 -6.5 -16s-9.5 -6 -15.5 -6h-300v-38c0 -14 1.83301 -28.667 5.5 -44s10.167 -29.333 19.5 -42s22 -23.167 38 -31.5s36.333 -12.5 61 -12.5c27.333 0 53.166 2.5 77.499 7.5s49.833 11.5 76.5 19.5l19 -75c-30 -9.33301 -58.667 -17 -86 -23
s-56 -9 -86 -9c-38.667 0 -72 6.5 -100 19.5s-51 30.167 -69 51.5c-20 -18.667 -45.5 -35.167 -76.5 -49.5s-66.5 -21.5 -106.5 -21.5c-52.667 0 -93.834 14.333 -123.501 43s-44.5 67 -44.5 115zM672.006 303l0.000976562 19.999c0 14.667 -2 29.5 -6 44.5
s-10.5 28.5 -19.5 40.5s-20.833 21.667 -35.5 29s-32.667 11 -54 11c-20.667 0 -38.334 -3.66699 -53.001 -11s-26.5 -16.666 -35.5 -27.999s-15.667 -24.333 -20 -39s-6.5 -29 -6.5 -43v-24h230zM141.007 144.999c0 -23.333 7 -42.166 21 -56.499s35.667 -21.5 65 -21.5
c24.667 0 49.167 5 73.5 15s45.5 21.667 63.5 35c-9.33301 26 -14 52.667 -14 80v29h-71c-20 0 -38.5 -1 -55.5 -3s-31.5 -6 -43.5 -12s-21.5 -14.333 -28.5 -25s-10.5 -24.334 -10.5 -41.001z" />
    <glyph glyph-name="ccedilla" unicode="&#xe7;" horiz-adv-x="482" 
d="M153 -141c7.33301 -2 14.1641 -3.3291 20.4971 -3.99609s13.166 -1 20.499 -1c31.333 0 47 18.667 47 56v79c-30 2.66699 -56.5 10.334 -79.5 23.001s-42.167 29 -57.5 49s-26.833 43.333 -34.5 70s-11.5 55.667 -11.5 87v80c0 34 4.5 65 13.5 93s22.333 52.167 40 72.5
s39.834 36.166 66.501 47.499s57.667 17 93 17c28.667 0 55.834 -2.33301 81.501 -7s52.5 -11.334 80.5 -20.001l-21 -77c-23.333 7.33301 -45.666 13.166 -66.999 17.499s-44.333 6.5 -69 6.5c-23.333 0 -43 -4 -59 -12s-28.833 -19 -38.5 -33s-16.667 -30.667 -21 -50
s-6.5 -40.333 -6.5 -63v-63c0 -23.333 2.16699 -44.833 6.5 -64.5s11.333 -36.5 21 -50.5s22.5 -25 38.5 -33s35.667 -12 59 -12c25.333 0 48.333 2.16699 69 6.5s43 10.166 67 17.499l22 -76c-20 -6 -39.5 -11.167 -58.5 -15.5s-38.167 -7.5 -57.5 -9.5v-94
c0 -21.333 -3.5 -38.833 -10.5 -52.5s-16 -24.834 -27 -33.501s-23.167 -14.667 -36.5 -18s-26.666 -5 -39.999 -5c-10 0 -20 0.666992 -30 2s-20 3 -30 5l9 65v0z" />
    <glyph glyph-name="egrave" unicode="&#xe8;" horiz-adv-x="525" 
d="M182 722l187 -76l-23 -59l-193 63zM58 318c0 27.333 4.66797 53.6689 14.001 79.002s22.666 47.666 39.999 66.999s38.833 34.833 64.5 46.5s54.834 17.5 87.501 17.5s62 -6 88 -18s47.833 -27.833 65.5 -47.5s31.167 -42.167 40.5 -67.5s14 -51 14 -77v-61
c0 -6.66699 -2.16699 -12 -6.5 -16s-9.5 -6 -15.5 -6h-300v-38c0 -14 1.83301 -28.667 5.5 -44s10.167 -29.333 19.5 -42s22 -23.167 38 -31.5s36.333 -12.5 61 -12.5c27.333 0 53.166 2.5 77.499 7.5s49.833 11.5 76.5 19.5l19 -75c-30 -9.33301 -58.667 -17 -86 -23
s-56 -9 -86 -9c-36.667 0 -68.667 6 -96 18s-50 27.667 -68 47s-31.333 41.666 -40 66.999s-13 51.333 -13 78v121zM380.001 303.003v20c0 14.667 -2 29.5 -6 44.5s-10.5 28.5 -19.5 40.5s-20.833 21.667 -35.5 29s-32.667 11 -54 11s-39.333 -3.66699 -54 -11
s-26.5 -17 -35.5 -29s-15.5 -25.5 -19.5 -40.5s-6 -29.833 -6 -44.5v-20h230z" />
    <glyph glyph-name="eacute" unicode="&#xe9;" horiz-adv-x="525" 
d="M150 646l188 76l29 -72l-193 -63zM58 318c0 27.333 4.66797 53.6689 14.001 79.002s22.666 47.666 39.999 66.999s38.833 34.833 64.5 46.5s54.834 17.5 87.501 17.5s62 -6 88 -18s47.833 -27.833 65.5 -47.5s31.167 -42.167 40.5 -67.5s14 -51 14 -77v-61
c0 -6.66699 -2.16699 -12 -6.5 -16s-9.5 -6 -15.5 -6h-300v-38c0 -14 1.83301 -28.667 5.5 -44s10.167 -29.333 19.5 -42s22 -23.167 38 -31.5s36.333 -12.5 61 -12.5c27.333 0 53.166 2.5 77.499 7.5s49.833 11.5 76.5 19.5l19 -75c-30 -9.33301 -58.667 -17 -86 -23
s-56 -9 -86 -9c-36.667 0 -68.667 6 -96 18s-50 27.667 -68 47s-31.333 41.666 -40 66.999s-13 51.333 -13 78v121zM380.001 303.003v20c0 14.667 -2 29.5 -6 44.5s-10.5 28.5 -19.5 40.5s-20.833 21.667 -35.5 29s-32.667 11 -54 11s-39.333 -3.66699 -54 -11
s-26.5 -17 -35.5 -29s-15.5 -25.5 -19.5 -40.5s-6 -29.833 -6 -44.5v-20h230z" />
    <glyph glyph-name="ecircumflex" unicode="&#xea;" horiz-adv-x="525" 
d="M126 644l136 79l136 -79l-41 -58l-95 58l-94 -58zM58 318c0 27.333 4.66797 53.6689 14.001 79.002s22.666 47.666 39.999 66.999s38.833 34.833 64.5 46.5s54.834 17.5 87.501 17.5s62 -6 88 -18s47.833 -27.833 65.5 -47.5s31.167 -42.167 40.5 -67.5s14 -51 14 -77
v-61c0 -6.66699 -2.16699 -12 -6.5 -16s-9.5 -6 -15.5 -6h-300v-38c0 -14 1.83301 -28.667 5.5 -44s10.167 -29.333 19.5 -42s22 -23.167 38 -31.5s36.333 -12.5 61 -12.5c27.333 0 53.166 2.5 77.499 7.5s49.833 11.5 76.5 19.5l19 -75c-30 -9.33301 -58.667 -17 -86 -23
s-56 -9 -86 -9c-36.667 0 -68.667 6 -96 18s-50 27.667 -68 47s-31.333 41.666 -40 66.999s-13 51.333 -13 78v121zM380.001 303.003v20c0 14.667 -2 29.5 -6 44.5s-10.5 28.5 -19.5 40.5s-20.833 21.667 -35.5 29s-32.667 11 -54 11s-39.333 -3.66699 -54 -11
s-26.5 -17 -35.5 -29s-15.5 -25.5 -19.5 -40.5s-6 -29.833 -6 -44.5v-20h230z" />
    <glyph glyph-name="edieresis" unicode="&#xeb;" horiz-adv-x="525" 
d="M348 602c-14 0 -26.167 5 -36.5 15s-15.5 22 -15.5 36s5.16699 26.333 15.5 37s22.5 16 36.5 16c13.333 0 25.333 -5.33301 36 -16s16 -23 16 -37s-5.33301 -26 -16 -36s-22.667 -15 -36 -15zM177 602c-14 0 -26.167 5 -36.5 15s-15.5 22 -15.5 36
s5.16699 26.333 15.5 37s22.5 16 36.5 16s26 -5.33301 36 -16s15 -23 15 -37s-5 -26 -15 -36s-22 -15 -36 -15zM58 318c0 27.333 4.66797 53.6689 14.001 79.002s22.666 47.666 39.999 66.999s38.833 34.833 64.5 46.5s54.834 17.5 87.501 17.5s62 -6 88 -18
s47.833 -27.833 65.5 -47.5s31.167 -42.167 40.5 -67.5s14 -51 14 -77v-61c0 -6.66699 -2.16699 -12 -6.5 -16s-9.5 -6 -15.5 -6h-300v-38c0 -14 1.83301 -28.667 5.5 -44s10.167 -29.333 19.5 -42s22 -23.167 38 -31.5s36.333 -12.5 61 -12.5
c27.333 0 53.166 2.5 77.499 7.5s49.833 11.5 76.5 19.5l19 -75c-30 -9.33301 -58.667 -17 -86 -23s-56 -9 -86 -9c-36.667 0 -68.667 6 -96 18s-50 27.667 -68 47s-31.333 41.666 -40 66.999s-13 51.333 -13 78v121zM380.001 303.003v20c0 14.667 -2 29.5 -6 44.5
s-10.5 28.5 -19.5 40.5s-20.833 21.667 -35.5 29s-32.667 11 -54 11s-39.333 -3.66699 -54 -11s-26.5 -17 -35.5 -29s-15.5 -25.5 -19.5 -40.5s-6 -29.833 -6 -44.5v-20h230z" />
    <glyph glyph-name="igrave" unicode="&#xec;" horiz-adv-x="248" 
d="M16 650l29 72l187 -76l-23 -59zM78 515h92v-493c0 -14.667 -7.33301 -22 -22 -22h-70v515z" />
    <glyph glyph-name="iacute" unicode="&#xed;" horiz-adv-x="248" 
d="M16 646l187 76l29 -72l-193 -63zM78 515h92v-493c0 -14.667 -7.33301 -22 -22 -22h-70v515z" />
    <glyph glyph-name="icircumflex" unicode="&#xee;" horiz-adv-x="248" 
d="M-12 644l136 79l136 -79l-42 -58l-94 58l-95 -58zM78 515h92v-493c0 -14.667 -7.33301 -22 -22 -22h-70v515z" />
    <glyph glyph-name="idieresis" unicode="&#xef;" horiz-adv-x="248" 
d="M210 602c-14.667 0 -27.167 5 -37.5 15s-15.5 22 -15.5 36s5.16699 26.333 15.5 37s22.833 16 37.5 16c13.333 0 25.166 -5.33301 35.499 -16s15.5 -23 15.5 -37s-5.16699 -26 -15.5 -36s-22.166 -15 -35.499 -15zM38 602c-14 0 -26.167 5 -36.5 15s-15.5 22 -15.5 36
s5.16699 26.333 15.5 37s22.5 16 36.5 16s26.167 -5.33301 36.5 -16s15.5 -23 15.5 -37s-5.16699 -26 -15.5 -36s-22.5 -15 -36.5 -15zM78 515h92v-493c0 -14.667 -7.33301 -22 -22 -22h-70v515z" />
    <glyph glyph-name="eth" unicode="&#xf0;" horiz-adv-x="549" 
d="M58 269c0 32.667 5.49707 62.0029 16.4971 88.0029s26.167 48.167 45.5 66.5s42.166 32.333 68.499 42s54.833 14.5 85.5 14.5c26 0 49.833 -4 71.5 -12s40.834 -19 57.501 -33c-2.66699 59.333 -13.167 104.166 -31.5 134.499s-44.833 49.166 -79.5 56.499l-40 -85
l-50 23l32 67c-25.333 -1.33301 -49 -3.83301 -71 -7.5s-43 -8.16699 -63 -13.5l-18 71c24.667 7.33301 50.334 13.333 77.001 18s56 7 88 7h11c4 0 7.66699 -0.333008 11 -1l36 77l50 -22l-31 -65c24.667 -6.66699 47.334 -17 68.001 -31s38.334 -32.333 53.001 -55
s26 -49.834 34 -81.501s12 -68.167 12 -109.5v-219c0 -29.333 -5 -57 -15 -83s-24.167 -48.5 -42.5 -67.5s-41 -34 -68 -45s-57.5 -16.5 -91.5 -16.5s-64.333 5.5 -91 16.5s-49.167 26 -67.5 45s-32.5 41.5 -42.5 67.5s-15 53.667 -15 83v70zM150.997 207.003
c0 -18.667 2.16699 -36.5 6.5 -53.5s11.333 -31.833 21 -44.5s22.334 -22.667 38.001 -30s34.834 -11 57.501 -11s41.834 3.66699 57.501 11s28.334 17.333 38.001 30s16.667 27.5 21 44.5s6.5 34.833 6.5 53.5v53c0 19.333 -2.16699 37.5 -6.5 54.5s-11.333 31.667 -21 44
s-22.334 22.166 -38.001 29.499s-34.834 11 -57.501 11s-41.834 -3.66699 -57.501 -11s-28.334 -17.166 -38.001 -29.499s-16.667 -27 -21 -44s-6.5 -35.167 -6.5 -54.5v-53z" />
    <glyph glyph-name="ntilde" unicode="&#xf1;" 
d="M141 651c14.667 20 28.667 34.165 42 42.498s28.666 12.5 45.999 12.5c10.667 0 20.334 -1.83301 29.001 -5.5s16.834 -7.66699 24.501 -12l21.5 -12c6.66699 -3.66699 13 -5.5 19 -5.5c9.33301 0 18 2.33301 26 7s16.667 12.667 26 24l37 -44
c-15.333 -20.667 -29.666 -35.167 -42.999 -43.5s-28.666 -12.5 -45.999 -12.5c-10 0 -19.333 1.83301 -28 5.5s-16.834 7.83398 -24.501 12.501s-14.834 8.83398 -21.501 12.501s-13.334 5.5 -20.001 5.5c-9.33301 0 -18 -2.33301 -26 -7s-16.667 -12.667 -26 -24z
M78 514.998h75.999l6 -51c24.667 20 49.5 35.667 74.5 47s50.5 17 76.5 17c56 0 98.167 -15.667 126.5 -47s42.5 -73.666 42.5 -126.999v-332c0 -14.667 -7.33301 -22 -22 -22h-70v337c0 37.333 -6.66699 65.166 -20 83.499s-37.666 27.5 -72.999 27.5
c-22.667 0 -44 -5.33301 -64 -16s-40.333 -24.667 -61 -42v-390h-92v515z" />
    <glyph glyph-name="ograve" unicode="&#xf2;" horiz-adv-x="547" 
d="M192 722l187 -76l-23 -59l-193 63zM58 300c0 34.667 4.83105 66 14.498 94s23.834 52 42.501 72s41.167 35.333 67.5 46s56.5 16 90.5 16c68.667 0 121.834 -20.5 159.501 -61.5s56.5 -96.5 56.5 -166.5v-85c0 -70.667 -19 -126.334 -57 -167.001s-91 -61 -159 -61
s-120.833 20.333 -158.5 61s-56.5 96.334 -56.5 167.001v85zM150.998 223c0 -48.667 9 -86.834 27 -114.501s49.667 -41.5 95 -41.5s77 13.833 95 41.5s27 65.834 27 114.501v69c0 24 -2.16699 45.5 -6.5 64.5s-11.166 35.333 -20.499 49s-21.833 24.167 -37.5 31.5
s-34.834 11 -57.501 11s-41.667 -3.66699 -57 -11s-27.833 -17.833 -37.5 -31.5s-16.667 -30 -21 -49s-6.5 -40.5 -6.5 -64.5v-69z" />
    <glyph glyph-name="oacute" unicode="&#xf3;" horiz-adv-x="547" 
d="M163 646l187 76l29 -72l-193 -63zM58 300c0 34.667 4.83105 66 14.498 94s23.834 52 42.501 72s41.167 35.333 67.5 46s56.5 16 90.5 16c68.667 0 121.834 -20.5 159.501 -61.5s56.5 -96.5 56.5 -166.5v-85c0 -70.667 -19 -126.334 -57 -167.001s-91 -61 -159 -61
s-120.833 20.333 -158.5 61s-56.5 96.334 -56.5 167.001v85zM150.998 223c0 -48.667 9 -86.834 27 -114.501s49.667 -41.5 95 -41.5s77 13.833 95 41.5s27 65.834 27 114.501v69c0 24 -2.16699 45.5 -6.5 64.5s-11.166 35.333 -20.499 49s-21.833 24.167 -37.5 31.5
s-34.834 11 -57.501 11s-41.667 -3.66699 -57 -11s-27.833 -17.833 -37.5 -31.5s-16.667 -30 -21 -49s-6.5 -40.5 -6.5 -64.5v-69z" />
    <glyph glyph-name="ocircumflex" unicode="&#xf4;" horiz-adv-x="547" 
d="M137 644l136 79l136 -79l-41 -58l-95 58l-94 -58zM58 300c0 34.667 4.83105 66 14.498 94s23.834 52 42.501 72s41.167 35.333 67.5 46s56.5 16 90.5 16c68.667 0 121.834 -20.5 159.501 -61.5s56.5 -96.5 56.5 -166.5v-85c0 -70.667 -19 -126.334 -57 -167.001
s-91 -61 -159 -61s-120.833 20.333 -158.5 61s-56.5 96.334 -56.5 167.001v85zM150.998 223c0 -48.667 9 -86.834 27 -114.501s49.667 -41.5 95 -41.5s77 13.833 95 41.5s27 65.834 27 114.501v69c0 24 -2.16699 45.5 -6.5 64.5s-11.166 35.333 -20.499 49
s-21.833 24.167 -37.5 31.5s-34.834 11 -57.501 11s-41.667 -3.66699 -57 -11s-27.833 -17.833 -37.5 -31.5s-16.667 -30 -21 -49s-6.5 -40.5 -6.5 -64.5v-69z" />
    <glyph glyph-name="otilde" unicode="&#xf5;" horiz-adv-x="547" 
d="M138 651c14.667 20 28.834 34.165 42.501 42.498s29.167 12.5 46.5 12.5c10.667 0 20.334 -1.83301 29.001 -5.5s16.834 -7.66699 24.501 -12l21.5 -12c6.66699 -3.66699 13 -5.5 19 -5.5c9.33301 0 17.833 2.33301 25.5 7s16.167 12.667 25.5 24l37 -44
c-15.333 -20.667 -29.5 -35.167 -42.5 -43.5s-28.167 -12.5 -45.5 -12.5c-10.667 0 -20.334 1.83301 -29.001 5.5s-16.834 7.83398 -24.501 12.501s-14.834 8.83398 -21.501 12.501s-13 5.5 -19 5.5c-9.33301 0 -18 -2.33301 -26 -7s-16.667 -12.667 -26 -24zM58 299.998
c0 34.667 4.83105 66 14.498 94s23.834 52 42.501 72s41.167 35.333 67.5 46s56.5 16 90.5 16c68.667 0 121.834 -20.5 159.501 -61.5s56.5 -96.5 56.5 -166.5v-85c0 -70.667 -19 -126.334 -57 -167.001s-91 -61 -159 -61s-120.833 20.333 -158.5 61
s-56.5 96.334 -56.5 167.001v85zM150.998 222.998c0 -48.667 9 -86.834 27 -114.501s49.667 -41.5 95 -41.5s77 13.833 95 41.5s27 65.834 27 114.501v69c0 24 -2.16699 45.5 -6.5 64.5s-11.166 35.333 -20.499 49s-21.833 24.167 -37.5 31.5s-34.834 11 -57.501 11
s-41.667 -3.66699 -57 -11s-27.833 -17.833 -37.5 -31.5s-16.667 -30 -21 -49s-6.5 -40.5 -6.5 -64.5v-69z" />
    <glyph glyph-name="odieresis" unicode="&#xf6;" horiz-adv-x="547" 
d="M359 602c-14 0 -26.167 5 -36.5 15s-15.5 22 -15.5 36s5.16699 26.333 15.5 37s22.5 16 36.5 16c13.333 0 25.333 -5.33301 36 -16s16 -23 16 -37s-5.33301 -26 -16 -36s-22.667 -15 -36 -15zM188 602c-14 0 -26.167 5 -36.5 15s-15.5 22 -15.5 36
s5.16699 26.333 15.5 37s22.5 16 36.5 16s26 -5.33301 36 -16s15 -23 15 -37s-5 -26 -15 -36s-22 -15 -36 -15zM58 300c0 34.667 4.83105 66 14.498 94s23.834 52 42.501 72s41.167 35.333 67.5 46s56.5 16 90.5 16c68.667 0 121.834 -20.5 159.501 -61.5
s56.5 -96.5 56.5 -166.5v-85c0 -70.667 -19 -126.334 -57 -167.001s-91 -61 -159 -61s-120.833 20.333 -158.5 61s-56.5 96.334 -56.5 167.001v85zM150.998 223c0 -48.667 9 -86.834 27 -114.501s49.667 -41.5 95 -41.5s77 13.833 95 41.5s27 65.834 27 114.501v69
c0 24 -2.16699 45.5 -6.5 64.5s-11.166 35.333 -20.499 49s-21.833 24.167 -37.5 31.5s-34.834 11 -57.501 11s-41.667 -3.66699 -57 -11s-27.833 -17.833 -37.5 -31.5s-16.667 -30 -21 -49s-6.5 -40.5 -6.5 -64.5v-69z" />
    <glyph glyph-name="oslash" unicode="&#xf8;" horiz-adv-x="547" 
d="M134 30c-24.667 19.333 -43.501 44.832 -56.501 76.499s-19.5 67.834 -19.5 108.501v85c0 34.667 4.83301 66 14.5 94s23.834 52 42.501 72s41.167 35.333 67.5 46s56.5 16 90.5 16c14 0 27.5 -1.16699 40.5 -3.5s25.167 -5.16602 36.5 -8.49902l38 84l62 -28l-40 -87
c25.333 -20 44.833 -45.667 58.5 -77s20.5 -67.333 20.5 -108v-85c0 -70.667 -19 -126.334 -57 -167.001s-91 -61 -159 -61c-30 0 -56.333 4 -79 12l-38 -85l-61 28zM316.999 439.999c-14 5.33301 -28.667 8 -44 8c-22.667 0 -41.667 -3.66699 -57 -11
s-27.833 -17.833 -37.5 -31.5s-16.667 -30 -21 -49s-6.5 -40.5 -6.5 -64.5v-69c0 -42 8.33301 -74.667 25 -98zM226.999 73.999c12 -4.66699 27.332 -7.00098 45.999 -7.00098c45.333 0 77 13.833 95 41.5s27 65.834 27 114.501v69c0 20 -2.16699 38.333 -6.5 55
s-11.166 31 -20.499 43z" />
    <glyph glyph-name="ugrave" unicode="&#xf9;" 
d="M197 722l188 -76l-24 -59l-193 63zM73 493c0 14.667 7.33203 22.002 21.999 22.002h70v-338c0 -36.667 6.66699 -64.167 20 -82.5s37.333 -27.5 72 -27.5c23.333 0 45 5.16699 65 15.5s40.333 24.166 61 41.499v391h92v-515h-76l-7 51
c-23.333 -20 -47.666 -35.667 -72.999 -47s-51.333 -17 -78 -17c-56 0 -98 15.667 -126 47s-42 73.666 -42 126.999v332z" />
    <glyph glyph-name="uacute" unicode="&#xfa;" 
d="M168 646l188 76l29 -72l-193 -63zM73 493c0 14.667 7.33203 22.002 21.999 22.002h70v-338c0 -36.667 6.66699 -64.167 20 -82.5s37.333 -27.5 72 -27.5c23.333 0 45 5.16699 65 15.5s40.333 24.166 61 41.499v391h92v-515h-76l-7 51
c-23.333 -20 -47.666 -35.667 -72.999 -47s-51.333 -17 -78 -17c-56 0 -98 15.667 -126 47s-42 73.666 -42 126.999v332z" />
    <glyph glyph-name="ucircumflex" unicode="&#xfb;" 
d="M140 644l136 79l136 -79l-41 -58l-95 58l-94 -58zM73 493c0 14.667 7.33203 22.002 21.999 22.002h70v-338c0 -36.667 6.66699 -64.167 20 -82.5s37.333 -27.5 72 -27.5c23.333 0 45 5.16699 65 15.5s40.333 24.166 61 41.499v391h92v-515h-76l-7 51
c-23.333 -20 -47.666 -35.667 -72.999 -47s-51.333 -17 -78 -17c-56 0 -98 15.667 -126 47s-42 73.666 -42 126.999v332z" />
    <glyph glyph-name="udieresis" unicode="&#xfc;" 
d="M362 602c-14 0 -26.167 5 -36.5 15s-15.5 22 -15.5 36s5.16699 26.333 15.5 37s22.5 16 36.5 16c13.333 0 25.333 -5.33301 36 -16s16 -23 16 -37s-5.33301 -26 -16 -36s-22.667 -15 -36 -15zM191 602c-14 0 -26.167 5 -36.5 15s-15.5 22 -15.5 36
s5.16699 26.333 15.5 37s22.5 16 36.5 16s26 -5.33301 36 -16s15 -23 15 -37s-5 -26 -15 -36s-22 -15 -36 -15zM73 493c0 14.667 7.33203 22.002 21.999 22.002h70v-338c0 -36.667 6.66699 -64.167 20 -82.5s37.333 -27.5 72 -27.5c23.333 0 45 5.16699 65 15.5
s40.333 24.166 61 41.499v391h92v-515h-76l-7 51c-23.333 -20 -47.666 -35.667 -72.999 -47s-51.333 -17 -78 -17c-56 0 -98 15.667 -126 47s-42 73.666 -42 126.999v332z" />
    <glyph glyph-name="yacute" unicode="&#xfd;" horiz-adv-x="518" 
d="M147 646l187 76l29 -72l-193 -63zM40 515h91.001l44 -333c3.33301 -28.667 11.333 -52.667 24 -72s34 -29 64 -29c15.333 0 30.166 1.83301 44.499 5.5s28.833 9.16699 43.5 16.5l22 412h90l-29 -551c-2.66699 -51.333 -18 -91.666 -46 -120.999s-71.333 -44 -130 -44
h-96l-7 79h106c30.667 0 51.667 8.33301 63 25s18 38.667 20 66l4 52c-15.333 -6.66699 -30.5 -11.834 -45.5 -15.501s-30.167 -5.5 -45.5 -5.5c-54 -0 -94.333 15.333 -121 46s-43.667 72 -51 124z" />
    <glyph glyph-name="thorn" unicode="&#xfe;" horiz-adv-x="552" 
d="M170 -201h-91.998v927h92v-254c22 17.333 44 31 66 41s45.333 15 70 15c58.667 0 104.667 -18.167 138 -54.5s50 -87.833 50 -154.5v-124c0 -65.333 -16.667 -116.333 -50 -153s-79.333 -55 -138 -55c-24.667 0 -47.834 5 -69.501 15s-43.834 23.667 -66.501 41v-244z
M170.002 123c20.667 -15.333 40.5 -28.501 59.5 -39.501s40.167 -16.5 63.5 -16.5c38 0 65.333 11.833 82 35.5s25 59.834 25 108.501v92c0 49.333 -8.33301 85.833 -25 109.5s-44 35.5 -82 35.5c-23.333 0 -45 -6 -65 -18s-39.333 -25.667 -58 -41v-266z" />
    <glyph glyph-name="ydieresis" unicode="&#xff;" horiz-adv-x="518" 
d="M341 602c-14.667 0 -27.167 5 -37.5 15s-15.5 22 -15.5 36s5.16699 26.333 15.5 37s22.833 16 37.5 16c13.333 0 25.166 -5.33301 35.499 -16s15.5 -23 15.5 -37s-5.16699 -26 -15.5 -36s-22.166 -15 -35.499 -15zM169 602c-14 0 -26.167 5 -36.5 15s-15.5 22 -15.5 36
s5.16699 26.333 15.5 37s22.5 16 36.5 16s26.167 -5.33301 36.5 -16s15.5 -23 15.5 -37s-5.16699 -26 -15.5 -36s-22.5 -15 -36.5 -15zM40 515h91.001l44 -333c3.33301 -28.667 11.333 -52.667 24 -72s34 -29 64 -29c15.333 0 30.166 1.83301 44.499 5.5
s28.833 9.16699 43.5 16.5l22 412h90l-29 -551c-2.66699 -51.333 -18 -91.666 -46 -120.999s-71.333 -44 -130 -44h-96l-7 79h106c30.667 0 51.667 8.33301 63 25s18 38.667 20 66l4 52c-15.333 -6.66699 -30.5 -11.834 -45.5 -15.501s-30.167 -5.5 -45.5 -5.5
c-54 -0 -94.333 15.333 -121 46s-43.667 72 -51 124z" />
    <glyph glyph-name="OE" unicode="&#x152;" horiz-adv-x="928" 
d="M63 423c0 42.667 6 81.6699 18 117.003s29.5 65.666 52.5 90.999s51.167 45 84.5 59s71 21 113 21c16 0 31.5 -1.16699 46.5 -3.5s29.167 -5.5 42.5 -9.5h447v-82h-332c20 -23.333 35.5 -50.5 46.5 -81.5s16.5 -65.5 16.5 -103.5v-33h239v-81h-239v-42
c0 -81.333 -21 -146 -63 -194h336v-59c0 -14.667 -7.33301 -22 -22 -22h-428c-13.333 -4 -27.5 -7.16699 -42.5 -9.5s-30.833 -3.5 -47.5 -3.5c-42 0 -79.667 6.83301 -113 20.5s-61.5 33.167 -84.5 58.5s-40.5 55.666 -52.5 90.999s-18 74.666 -18 117.999v148z
M160 285.003c0 -29.333 2.83301 -57 8.5 -83s15 -49 28 -69s30.5 -35.833 52.5 -47.5s49.333 -17.5 82 -17.5s60 5.83301 82 17.5s39.5 27.5 52.5 47.5s22.167 43 27.5 69s8 53.667 8 83v128c0 28.667 -2.66699 56 -8 82s-14.5 49 -27.5 69s-30.5 35.833 -52.5 47.5
s-49.333 17.5 -82 17.5s-60 -5.83301 -82 -17.5s-39.5 -27.5 -52.5 -47.5s-22.333 -43 -28 -69s-8.5 -53.333 -8.5 -82v-128z" />
    <glyph glyph-name="oe" unicode="&#x153;" horiz-adv-x="863" 
d="M58 300c0 34.667 4.8291 65.999 14.4961 93.999s23.834 52 42.501 72s41.167 35.333 67.5 46s56.5 16 90.5 16c38 0 71.167 -7.16699 99.5 -21.5s51.166 -34.5 68.499 -60.5c16.667 24 38.5 43.667 65.5 59s59.167 23 96.5 23c32.667 0 61.834 -6 87.501 -18
s47.334 -27.833 65.001 -47.5s31.167 -42.167 40.5 -67.5s14 -51 14 -77v-61c0 -6.66699 -2.16699 -12 -6.5 -16s-9.16602 -6 -14.499 -6h-301v-38c0 -14 1.83301 -28.667 5.5 -44s10.167 -29.333 19.5 -42s22 -23.167 38 -31.5s36.667 -12.5 62 -12.5
c27.333 0 53 2.5 77 7.5s49.333 11.5 76 19.5l20 -75c-30 -9.33301 -58.833 -17 -86.5 -23s-56.5 -9 -86.5 -9c-40.667 0 -75.167 7.5 -103.5 22.5s-51.166 34.5 -68.499 58.5c-17.333 -26 -40 -46 -68 -60s-61.333 -21 -100 -21c-68 0 -120.833 20.333 -158.5 61
s-56.5 96.334 -56.5 167.001v85zM717.996 302.999l-0.00195312 20c0 14.667 -2 29.5 -6 44.5s-10.5 28.5 -19.5 40.5s-20.833 21.667 -35.5 29s-32.667 11 -54 11s-39.166 -3.66699 -53.499 -11s-26.166 -17 -35.499 -29s-16 -25.5 -20 -40.5s-6 -29.833 -6 -44.5v-20h230z
M150.994 222.999c0 -48.667 9 -86.834 27 -114.501s49.667 -41.5 95 -41.5s77 13.833 95 41.5s27 65.834 27 114.501v69c0 24 -2.16699 45.5 -6.5 64.5s-11.166 35.333 -20.499 49s-21.833 24.167 -37.5 31.5s-34.834 11 -57.501 11s-41.667 -3.66699 -57 -11
s-27.833 -17.833 -37.5 -31.5s-16.667 -30 -21 -49s-6.5 -40.5 -6.5 -64.5v-69z" />
    <glyph glyph-name="Ydieresis" unicode="&#x178;" horiz-adv-x="580" 
d="M376 770c-14.667 0 -27.167 5 -37.5 15s-15.5 22 -15.5 36s5.16699 26.333 15.5 37s22.833 16 37.5 16c13.333 0 25.166 -5.33301 35.499 -16s15.5 -23 15.5 -37s-5.16699 -26 -15.5 -36s-22.166 -15 -35.499 -15zM204 770c-14 0 -26.167 5 -36.5 15s-15.5 22 -15.5 36
s5.16699 26.333 15.5 37s22.5 16 36.5 16s26.167 -5.33301 36.5 -16s15.5 -23 15.5 -37s-5.16699 -26 -15.5 -36s-22.5 -15 -36.5 -15zM243 287c-26 4 -47.9971 11.832 -65.9971 23.499s-33.333 25.834 -46 42.501s-22.667 35.5 -30 56.5s-13.333 43.167 -18 66.5l-43 222
h93l42 -208c3.33301 -17.333 7.33301 -33.666 12 -48.999s11.167 -28.833 19.5 -40.5s19.166 -21 32.499 -28s30.333 -10.5 51 -10.5s37.667 3.5 51 10.5s24.166 16.333 32.499 28s14.833 25.167 19.5 40.5s8.66699 31.666 12 48.999l41 208h94l-44 -222
c-4.66699 -23.333 -10.834 -45.5 -18.501 -66.5s-17.667 -40 -30 -57s-27.5 -31.167 -45.5 -42.5s-39.667 -19 -65 -23v-287h-94v287z" />
    <glyph glyph-name="tilde" unicode="&#x2dc;" horiz-adv-x="409" 
d="M69 651c14.667 20 28.667 34.165 42 42.498s28.666 12.5 45.999 12.5c10.667 0 20.334 -1.83301 29.001 -5.5s16.834 -7.66699 24.501 -12l21.5 -12c6.66699 -3.66699 13 -5.5 19 -5.5c9.33301 0 18 2.33301 26 7s16.667 12.667 26 24l37 -44
c-15.333 -20.667 -29.666 -35.167 -42.999 -43.5s-28.666 -12.5 -45.999 -12.5c-10 0 -19.333 1.83301 -28 5.5s-16.834 7.83398 -24.501 12.501s-14.834 8.83398 -21.501 12.501s-13.334 5.5 -20.001 5.5c-9.33301 0 -18 -2.33301 -26 -7s-16.667 -12.667 -26 -24z" />
    <glyph glyph-name="endash" unicode="&#x2013;" horiz-adv-x="500" 
d="M0 323h500v-77h-500v77z" />
    <glyph glyph-name="emdash" unicode="&#x2014;" horiz-adv-x="1000" 
d="M-1 323h1000v-77h-1000v77z" />
    <glyph glyph-name="quoteleft" unicode="&#x2018;" horiz-adv-x="247" 
d="M135 698h67l-53 -226h-87z" />
    <glyph glyph-name="quoteright" unicode="&#x2019;" horiz-adv-x="248" 
d="M114 698h87l-73 -226h-67z" />
    <glyph glyph-name="quotedblleft" unicode="&#x201c;" horiz-adv-x="403" 
d="M290 698h67l-53 -226h-87zM135 698h67l-52 -226h-87z" />
    <glyph glyph-name="quotedblright" unicode="&#x201d;" horiz-adv-x="403" 
d="M266 698h87l-73 -226h-67zM111 698h87l-72 -226h-67z" />
    <glyph glyph-name="quotedblbase" unicode="&#x201e;" horiz-adv-x="409" 
d="M272 102h87l-73 -226h-67zM111 102h87l-72 -226h-67z" />
    <glyph glyph-name="bullet" unicode="&#x2022;" horiz-adv-x="516" 
d="M258 142c-21.333 0 -41.333 4 -60 12s-35 19 -49 33s-25 30.333 -33 49s-12 38.667 -12 60s4 41.333 12 60s19 35 33 49s30.333 25 49 33s38.667 12 60 12c20.667 0 40.334 -4 59.001 -12s35 -19 49 -33s25.167 -30.333 33.5 -49s12.5 -38.667 12.5 -60
s-4.16699 -41.333 -12.5 -60s-19.5 -35 -33.5 -49s-30.333 -25 -49 -33s-38.334 -12 -59.001 -12z" />
    <glyph glyph-name="ellipsis" unicode="&#x2026;" horiz-adv-x="844" 
d="M672 48c0 16 5.66699 29.833 17 41.5s25.333 17.5 42 17.5c16 0 29.667 -5.83301 41 -17.5s17 -25.5 17 -41.5c0 -16.667 -5.66699 -30.667 -17 -42s-25 -17 -41 -17c-16.667 0 -30.667 5.66699 -42 17s-17 25.333 -17 42zM364 48c0 16 5.5 29.833 16.5 41.5
s24.833 17.5 41.5 17.5c16 0 29.667 -5.83301 41 -17.5s17 -25.5 17 -41.5c0 -16.667 -5.66699 -30.667 -17 -42s-25 -17 -41 -17c-16.667 0 -30.5 5.66699 -41.5 17s-16.5 25.333 -16.5 42zM55 48c0 16 5.66699 29.833 17 41.5s25 17.5 41 17.5s29.667 -5.83301 41 -17.5
s17 -25.5 17 -41.5c0 -16.667 -5.66699 -30.667 -17 -42s-25 -17 -41 -17s-29.667 5.66699 -41 17s-17 25.333 -17 42z" />
    <glyph glyph-name="guilsinglleft" unicode="&#x2039;" horiz-adv-x="372" 
d="M69 270l143 193l71 -50l-111 -143l111 -143l-71 -48z" />
    <glyph glyph-name="guilsinglright" unicode="&#x203a;" horiz-adv-x="373" 
d="M200 270l-111 143l71 50l144 -193l-144 -191l-71 48z" />
    <glyph glyph-name="Euro" unicode="&#x20ac;" horiz-adv-x="550" 
d="M45 303h54.002v91h-54v63h54c2 78 23.333 139.833 64 185.5s101.667 68.5 183 68.5c28 0 55.5 -2.16699 82.5 -6.5s54.5 -10.833 82.5 -19.5l-21 -76c-24 6 -47.833 11 -71.5 15s-47.5 6 -71.5 6c-55.333 0 -94.333 -15.333 -117 -46s-34.667 -73 -36 -127h214l-9 -63
h-206v-91h215l-9 -63h-205c0.666992 -26.667 3.66699 -50.5 9 -71.5s14 -39 26 -54s27.667 -26.5 47 -34.5s43 -12 71 -12c24 0 47.833 2 71.5 6s47.5 9 71.5 15l21 -77c-28 -8 -55.5 -14.167 -82.5 -18.5s-54.5 -6.5 -82.5 -6.5c-40.667 0 -76.167 5.83301 -106.5 17.5
s-55.833 28.5 -76.5 50.5s-36.334 48.667 -47.001 80s-16.334 66.333 -17.001 105h-54v63z" />
    <glyph glyph-name="trademark" unicode="&#x2122;" horiz-adv-x="751" 
d="M363 698h68l85 -227l86 227h68l38 -340h-66l-22 222l-69 -187h-70l-68 186l-21 -221h-67zM142 641h-94v57h254v-57h-94v-283h-66v283z" />
    <glyph glyph-name=".null" horiz-adv-x="0" 
 />
    <glyph glyph-name="nonmarkingreturn" horiz-adv-x="333" 
 />
    <glyph glyph-name="cdotaccent.smcp" horiz-adv-x="488" 
d="M258 652c-14.667 0 -27.167 5.16699 -37.5 15.5s-15.5 22.5 -15.5 36.5s5.16699 26.333 15.5 37s22.833 16 37.5 16c13.333 0 25.166 -5.33301 35.499 -16s15.5 -23 15.5 -37s-5.16699 -26.167 -15.5 -36.5s-22.166 -15.5 -35.499 -15.5zM58 367
c0 68 18.833 120.165 56.5 156.498s89.834 54.5 156.501 54.5c55.333 0 110.333 -8.33301 165 -25l-17 -77c-22.667 7.33301 -45.5 12.833 -68.5 16.5s-46.167 5.5 -69.5 5.5c-26 0 -47.333 -3.5 -64 -10.5s-29.834 -16.667 -39.501 -29s-16.5 -27.166 -20.5 -44.499
s-6 -36 -6 -56v-151c0 -20 2 -38.667 6 -56s10.833 -32.166 20.5 -44.499s22.834 -22 39.501 -29s38 -10.5 64 -10.5s49.667 2 71 6s43.666 8.66699 66.999 14l17 -75c-25.333 -7.33301 -51.166 -13.333 -77.499 -18s-55.5 -7 -87.5 -7c-66.667 0 -118.834 18 -156.501 54
s-56.5 88.333 -56.5 157v169z" />
    </font>
</defs>
</svg>
